<?xml version="1.0" encoding="UTF-8"?>
<svg id="Camada_2" data-name="Camada 2" xmlns="http://www.w3.org/2000/svg" viewBox="0 0 2418.34 2418.34">
  <defs>
    <style>
      .cls-1 {
        fill: #5d5d5d;
        stroke-width: 0px;
      }
    </style>
  </defs>
  <g id="layer">
    <g>
      <path class="cls-1" d="m994.97,1998.81c-27.28-39.45-99-57.42-154.1-57.42-16.96,0-32.7,1.54-46.79,4.58-51.83,11.16-96.03,21.2-135.03,30.05-104.45,23.71-167.49,38.02-219.9,38.02-43.63,0-81.02-9.74-133.38-34.74-54.66-26.11-94.77-50.95-127-70.92-50.54-31.31-83.94-51.99-129.64-51.99-14.95,0-31.06,2.31-49.13,7.02v3.86c18.1-4.77,34.22-7.12,49.13-7.12,44.63,0,77.66,20.46,127.66,51.43,32.31,20.01,72.52,44.92,127.36,71.11,52.91,25.27,90.76,35.12,135,35.12,52.83,0,116.03-14.35,220.74-38.12,38.99-8.85,83.19-18.88,134.99-30.05,13.83-2.98,29.3-4.49,45.99-4.49,54.14,0,124.49,17.46,151,55.8,11.69,16.9,13.6,36.12,5.67,57.11-15.82,41.9-89.72,78.92-154.92,111.58-39.41,19.74-76.64,38.38-95.78,55.68-55.95,50.59-42.53,119.12-19.82,193.02h3.94c-22.54-73.14-36.14-140.91,18.4-190.23,18.75-16.96,55.76-35.49,94.94-55.11,65.82-32.97,140.42-70.33,156.76-113.61,8.38-22.22,6.33-42.6-6.1-60.58Z"/>
      <path class="cls-1" d="m17.07,1568.7c7.64-165.76,113.3-286.59,198.21-383.69l6.03-6.89c9.85-10.37,32.58-38.1,30.79-71.6-1.09-20.39-11.19-38.85-30.01-54.85-11.29-9.59-21.73-18.56-31.66-27.09-43.92-37.71-78.61-67.49-132.47-104.84-19.68-13.64-39.04-26.55-57.95-38.69v1.91c18.61,11.96,37.67,24.68,57.03,38.11,53.79,37.3,88.45,67.06,132.34,104.74,9.93,8.53,20.38,17.5,31.67,27.09,18.48,15.7,28.39,33.77,29.45,53.7,1.75,32.88-20.64,60.19-30.37,70.43l-6.06,6.92c-85.07,97.28-190.94,218.35-198.61,384.67-.82,17.72-7.71,28.55-15.46,32.23v1.92c8.38-3.45,16.16-14.42,17.07-34.07Z"/>
      <path class="cls-1" d="m958.39,2250.49c-7.06-7.1-16.25-10.69-27.3-10.69-33.77,0-76.04,33.4-90.14,48.65-51.94,56.15-57.91,87.59-47.51,129.89h2.8c-10.31-41.76-4.51-72.72,46.69-128.07,13.85-14.97,55.27-47.78,88.16-47.78,10.31,0,18.85,3.33,25.39,9.9,11.21,11.26,16.82,32.13,16.68,62.05-.17,36.34-6.41,69.89-14.35,103.9h2.76c7.9-33.96,14.1-67.49,14.27-103.89.14-30.65-5.73-52.17-17.46-63.95Z"/>
      <path class="cls-1" d="m54.65,1570.44c7.03-152.63,107.9-267.97,188.96-360.66l6.06-6.93c17.02-19.48,30.81-36.73,40.98-51.29,12.61-18.04,36.08-51.62-19.34-105.13-59.76-57.71-124.33-110.73-191.91-157.59-27.56-19.11-54.08-36.33-79.39-51.8v1.88c25.02,15.32,51.23,32.36,78.47,51.24,67.51,46.81,132.01,99.78,191.71,157.43,54.43,52.55,31.47,85.4,19.14,103.05-10.14,14.51-23.89,31.72-40.87,51.15l-6.06,6.93c-81.21,92.87-182.29,208.46-189.35,361.64-3.28,71.05-15.89,112.39-39.69,130.12-4.71,3.51-9.17,5.41-13.34,5.87v1.62c4.53-.44,9.22-2.42,14.3-6.2,24.23-18.03,37.04-59.76,40.35-131.33Z"/>
      <path class="cls-1" d="m710.59,478.76c-10.44-41.25-94.71-52.27-192.28-65.04-24.11-3.15-49.04-6.42-73.26-10.24-106.98-16.88-204.91-70.59-299.61-122.52C98.03,254.94,49.58,228.39,0,206.55v4.1c48.92,21.66,96.78,47.9,143.64,73.6,94.99,52.09,193.21,105.95,300.83,122.94,24.27,3.83,49.22,7.1,73.36,10.25,92.21,12.07,179.3,23.46,189.12,62.24,7.65,30.21-31.69,76.04-120.28,140.1-124.29,89.89-228.58,131.75-328.21,131.75-56.62,0-112.76-14.06-166.86-41.78-33.67-17.25-63.31-38.23-91.6-59.41v4.7c27.74,20.7,56.85,41.13,89.88,58.06,54.64,27.99,111.35,42.19,168.57,42.19h.01c100.46,0,205.45-42.09,330.4-132.46,91.23-65.97,129.9-111.75,121.72-144.07Z"/>
      <path class="cls-1" d="m13.94,1327.03c14.48-25.47,33.26-48.58,51.41-70.92,26.19-32.23,53.27-65.56,67.85-106.51,25.7-72.21-24.67-105.57-78.01-140.89-4.92-3.26-9.87-6.54-14.84-9.9-8.79-5.95-17.09-11.56-25.27-17.23-4.02-2.79-8.97-6.35-15.09-10.81v1.99c5.67,4.12,10.36,7.5,14.17,10.14,8.18,5.67,16.49,11.29,25.34,17.27,4.92,3.33,9.87,6.61,14.8,9.87,52.79,34.96,102.66,67.98,77.38,139-14.48,40.69-41.48,73.91-67.58,106.03-18.2,22.39-37.01,45.55-51.56,71.14-4.36,7.66-8.34,17.63-12.54,28.19v4.35c.44-1.1.88-2.2,1.31-3.28,4.25-10.69,8.26-20.78,12.63-28.46Z"/>
      <path class="cls-1" d="m1700.25,2259.16c-2.07-18.18-13.5-33.95-34-46.86-37.05-23.33-114.55-33.77-174.91-33.77-11.79,0-22.59.4-32.1,1.19-58.93,4.89-120.3,16.51-187.63,35.55-9.64,2.72-19.21,5.67-28.48,8.74-112.27,37.27-177.16,96.25-208.33,194.33h2.85c31.04-96.7,95.36-154.94,206.33-191.78,9.23-3.06,18.77-5.99,28.37-8.71,67.15-18.99,128.35-30.59,187.11-35.46,9.44-.78,20.16-1.18,31.88-1.18,59.98,0,136.88,10.31,173.48,33.36,19.77,12.45,30.79,27.55,32.76,44.88,4.95,43.56-45.86,94.67-86.69,135.74-8.24,8.29-15.91,16.01-22.61,23.13h3.71c6.26-6.59,13.28-13.67,20.81-21.24,41.24-41.48,92.56-93.1,87.46-137.94Z"/>
      <path class="cls-1" d="m673.82,2122.48c8.69-5.46,18.74-6.19,27.42-6.19,4.09,0,8.2.18,12.55.38,4.33.2,8.82.4,13.26.4,10.02,0,23.04-.94,34.9-8.28,30.55-18.92,40.67-40.88,37.14-53.28-2.33-8.19-10.27-12.88-21.78-12.88-10.26,0-23.29,3.67-37.68,10.62-9.2,4.44-17.48,12.39-25.49,20.07-9.68,9.29-19.68,18.89-31.16,22.04-3.55.97-7.04,1.44-10.68,1.44-7.27,0-13.77-1.86-20.65-3.84-6.8-1.95-13.83-3.97-21.57-3.97-2.7,0-5.4.25-8.04.74-13.63,2.55-22.96,11.19-31.98,19.56-7.52,6.97-15.29,14.18-25.5,17.74-11.55,4.04-27.22,6-47.91,6-26.87,0-56.66-3.37-80.6-6.09-6.9-.78-13.29-1.51-18.98-2.08-49.73-4.99-101.44-20.57-158.08-47.63-59.96-28.63-102.87-55.21-137.38-76.59-18.83-11.66-38.09-17.58-57.25-17.58-24.35,0-45.97,9.27-64.36,23.5v2c18.33-14.46,39.98-23.89,64.36-23.89,18.85,0,37.83,5.83,56.44,17.36,34.51,21.38,77.46,47.97,137.5,76.65,56.81,27.14,108.7,42.77,158.61,47.78,5.68.57,12.07,1.29,18.96,2.07,23.98,2.72,53.82,6.1,80.78,6.1,20.87,0,36.72-1.99,48.44-6.09,10.53-3.68,18.43-11.01,26.06-18.09,9.26-8.59,18.01-16.7,31.18-19.16,2.57-.48,5.11-.71,7.74-.71,7.52,0,14.43,1.98,21.13,3.9,6.69,1.92,13.6,3.9,21.09,3.9,3.79,0,7.42-.49,11.1-1.5,11.87-3.25,22.03-13,31.85-22.44,7.92-7.6,16.1-15.46,25.07-19.79,14.18-6.84,26.97-10.46,36.98-10.46,10.9,0,18.08,4.16,20.23,11.72,3.37,11.83-6.6,32.98-36.44,51.46-11.51,7.13-24.24,8.05-34.05,8.05-4.41,0-8.87-.2-13.19-.4-4.18-.19-8.49-.39-12.62-.39-8.91,0-19.23.77-28.27,6.44-9.96,6.26-17.52,22.05-24.83,37.32-4.41,9.22-8.58,17.93-13.01,23.97-36.78,50.1-39.03,104.03-31.08,169.59,2.73,22.53,7.3,44.72,12.81,66.35h1.67c-5.54-21.69-10.14-43.95-12.88-66.54-7.9-65.19-5.69-118.78,30.78-168.44,4.52-6.16,8.72-14.94,13.16-24.23,7.21-15.07,14.66-30.65,24.23-36.66Z"/>
      <path class="cls-1" d="m842.36,327.43c-9.25,0-22.3,5.9-31.91,33.99-10.79,31.59,10,38.93,32.01,46.7,3.86,1.36,7.85,2.77,11.72,4.33,8.68,3.49,15.97,5.26,21.68,5.26,6.33,0,10.89-2.14,13.55-6.35,8.22-13.04-4.96-41.89-11.02-53.7-9.78-18.93-23.25-30.23-36.03-30.23Zm44.78,82.49c-4.3,6.81-15.15,6.79-31.95.03-3.92-1.58-7.94-2.99-11.83-4.37-21.62-7.63-40.29-14.23-30.36-43.3,7.19-21.05,17.35-32.17,29.36-32.17s24.33,10.76,33.64,28.77c12.17,23.72,16.33,42.8,11.13,51.03Z"/>
      <path class="cls-1" d="m145.24,1208.71c2.4-2.86,4.85-5.74,7.3-8.63,34.59-40.69,70.36-82.77,29.71-133.09-31.45-38.92-78.91-71.01-120.78-99.33-8.68-5.87-16.87-11.41-24.95-17.01-5.42-3.76-12.76-9.12-21.25-15.32-4.67-3.41-9.8-7.15-15.26-11.11v1.99c5.11,3.7,9.92,7.21,14.31,10.42,8.5,6.21,15.85,11.57,21.29,15.34,8.08,5.61,16.28,11.15,24.96,17.02,41.78,28.25,89.14,60.27,120.43,99,39.82,49.28,4.48,90.84-29.68,131.03-2.46,2.89-4.9,5.77-7.31,8.64-30.04,35.8-68.41,83.74-98.77,137.14-18.43,32.42-33.6,66.48-45.24,101.43v5.29c11.79-36.52,27.43-72.12,46.64-105.92,30.29-53.28,68.6-101.15,98.6-136.9Z"/>
      <path class="cls-1" d="m874,2409.34c-2.35-8.62-6.38-14.71-10.27-20.59-5.95-9-11.09-16.76-9.04-31.45,2.79-20.07,27.07-69.58,53.29-69.58.26,0,.52,0,.78.01,13.12.51,21.44,3.82,24.75,9.85,6.05,11.04-4.87,29.71-13.64,44.72-4.75,8.12-8.85,15.13-9.58,19.7-1.46,9.07,2.57,14.27,6.46,19.29,3.09,3.99,6.02,7.76,5.89,13.3-.28,11.67-5.45,17.15-10.93,22.94-.25.26-.5.54-.74.8h2.2c5.59-5.92,10.79-11.62,11.08-23.71.15-6.12-3.09-10.3-6.22-14.34-3.68-4.75-7.49-9.66-6.15-18.05.68-4.27,4.72-11.16,9.38-19.14,8.98-15.36,20.16-34.46,13.67-46.31-3.65-6.65-12.19-10.15-26.1-10.68-.28-.02-.56-.02-.84-.02-27.07,0-52.04,50.51-54.89,70.98-2.13,15.29,3.42,23.68,9.29,32.56,3.82,5.78,7.78,11.76,10.06,20.12.9,3.28,1.37,6.05,1.62,8.58h1.6c-.25-2.66-.73-5.57-1.67-9Z"/>
      <path class="cls-1" d="m114.63,664.79c40.85,20.93,75.55,30.68,109.22,30.68s66.58-10.59,102.86-22.85c20.58-6.95,43.91-14.84,70.36-21.47,13.41-3.37,25.11-3.76,32.74-3.76,5.13,0,10.05.2,14.8.39,4.51.18,8.76.35,12.97.35,21.78,0,39.1-5.15,58.09-30.8,12.81-17.3,17.6-30.67,21.84-42.46,6.33-17.63,11.33-31.56,39.2-51.49,7.15-5.11,17.38-9.14,27.27-13.03,15.93-6.27,29.69-11.68,30.26-20.85.46-7.43-8.19-15.72-27.23-26.08-22.81-12.38-55.36-14.05-84.19-14.05-12.86,0-26.36.4-39.42.78-13.12.39-26.69.78-39.68.78-28.94,0-49.23-2-65.78-6.5-93.52-25.4-181.21-73.48-258.58-115.91-40.61-22.27-80.01-43.85-119.35-62.39v2.97c38.89,18.39,77.88,39.75,118.06,61.78,77.5,42.5,165.33,90.67,259.17,116.15,16.79,4.56,37.3,6.59,66.49,6.59,13.03,0,26.62-.4,39.76-.78,13.04-.38,26.52-.78,39.34-.78,28.49,0,60.63,1.63,82.91,13.72,17.52,9.54,26.21,17.46,25.83,23.55-.46,7.46-14.11,12.83-28.56,18.51-10.05,3.95-20.43,8.04-27.85,13.34-28.55,20.41-33.93,35.41-40.16,52.76-4.17,11.62-8.9,24.78-21.47,41.76-18.31,24.74-34.97,29.71-55.92,29.71-4.16,0-8.39-.17-12.86-.35-4.78-.19-9.72-.39-14.91-.39-7.77,0-19.69.4-33.4,3.84-26.55,6.66-49.93,14.57-70.57,21.54-36.06,12.18-67.2,22.71-102,22.71s-67.54-9.65-107.99-30.38c-36.98-18.95-70.24-44.17-102.42-68.55-4.46-3.38-8.94-6.77-13.44-10.16v3.36c3.95,2.98,7.89,5.96,11.82,8.94,32.26,24.45,65.61,49.74,102.81,68.8Z"/>
      <path class="cls-1" d="m1422.43,2343.52c-2.6-1.12-6.62-1.68-11.94-1.68-31.18,0-97.23,18.59-97.9,18.78-7.39,2.09-14.75,4.36-21.87,6.72-36.54,12.13-63.58,28.37-83.27,51h2.12c19.44-21.89,45.99-37.64,81.65-49.47,7.1-2.36,14.44-4.62,21.81-6.7.66-.19,66.5-18.72,97.46-18.72,5.1,0,8.91.52,11.3,1.55,11.94,5.12,7.56,18.73-2.06,48.53-2.3,7.14-4.98,15.52-7.77,24.81h1.68c2.73-9.09,5.36-17.3,7.62-24.31,9.62-29.83,14.45-44.8,1.16-50.5Z"/>
      <path class="cls-1" d="m1349.49,2391.9c-7.47,0-16.48,1.48-26.81,4.4-6.88,1.95-13.7,4.05-20.28,6.23-13.83,4.6-25.8,9.85-36.26,15.81h5.62c9.28-4.92,19.67-9.33,31.49-13.26,6.54-2.17,13.33-4.26,20.17-6.2,10.08-2.85,18.86-4.29,26.07-4.29,13.4,0,21.53,4.9,24.15,14.57.74,2.74.9,5.87.77,9.18h2.69c.13-3.55-.06-6.91-.87-9.88-2.05-7.56-8.34-16.56-26.74-16.56Z"/>
      <path class="cls-1" d="m1518.31,2303.09c-4.68-9.4-20.8-12.76-49.7-10.35-51.58,4.27-105.93,14.63-166.14,31.66-8.05,2.27-15.99,4.71-23.6,7.24-54.64,18.14-92.78,45.98-117.57,86.71h1.9c24.62-39.95,62.33-67.31,116.17-85.18,7.6-2.52,15.51-4.95,23.54-7.22,60.11-17,114.35-27.34,165.84-31.6,5.9-.49,11.35-.73,16.16-.73,18.09,0,28.54,3.34,31.96,10.2,6,12.07-10.91,34.44-27.25,56.08-2.9,3.83-5.8,7.68-8.61,11.5-11.34,15.43-21.42,31.17-30.51,46.96h1.86c8.94-15.47,18.84-30.88,29.95-46,2.8-3.82,5.7-7.66,8.6-11.48,17.41-23.05,33.86-44.82,27.41-57.78Z"/>
      <path class="cls-1" d="m1572.55,2330.72c24.78-23.28,34.72-41.7,29.55-54.75-6.14-15.5-33.47-23.36-81.23-23.36-15.92,0-34.03.86-55.37,2.63-54.01,4.48-110.69,15.25-173.27,32.95-8.48,2.4-16.96,5-25.21,7.74-71.67,23.79-120.07,63.44-148.54,122.41h1.82c28.35-58.17,76.32-97.35,147.22-120.88,8.23-2.73,16.69-5.33,25.15-7.72,62.48-17.67,119.05-28.43,172.97-32.9,21.29-1.76,39.36-2.62,55.23-2.62,47.03,0,73.86,7.52,79.73,22.34,4.9,12.37-4.91,30.2-29.15,52.98-4.88,4.58-9.58,9.02-13.53,12.99-18.55,18.66-34.57,34.77-46.56,51.07-5.95,8.09-11.57,16.36-17.03,24.73h1.91c5.26-8.04,10.69-15.99,16.42-23.77,11.91-16.2,27.89-32.27,46.4-50.9,3.93-3.95,8.62-8.38,13.49-12.95Z"/>
      <path class="cls-1" d="m139.38,616.48c39.71,20.34,78.64,30.24,119.05,30.25,22.62,0,71.45-9.23,114.03-24.68,37.3-13.53,81.78-36,81.89-66.22.12-35.59-68.6-55.36-109.65-67.17-8.93-2.57-16.64-4.79-21.79-6.65-73.52-26.63-146.49-60.27-229.65-105.88-31.74-17.41-62.72-34.39-93.26-49.65v1.81c30.28,15.15,61,32,92.48,49.26,83.23,45.64,156.28,79.32,229.88,105.98,5.2,1.88,12.94,4.11,21.89,6.69,40.62,11.69,108.61,31.25,108.49,65.61-.18,52.23-147.42,89.28-194.33,89.29-40.12-.01-78.82-9.85-118.29-30.07-32.84-16.83-64.2-40.61-94.53-63.6-14.68-11.13-29.79-22.57-45.58-33.71v1.98c15.44,10.91,30.22,22.11,44.6,33.01,30.39,23.04,61.81,46.86,94.78,63.75Z"/>
      <path class="cls-1" d="m156.53,583c34.25,17.55,67.55,26.09,101.89,26.11,29.81,0,68.72-8.84,83.71-28.25,6.52-8.44,8.36-18.33,5.47-29.41-6.8-26.06-61.38-44.49-101.23-57.94-12.88-4.35-24-8.11-30.83-11.28-46.04-21.37-91.61-46.36-135.67-70.53l-4.91-2.7c-25.47-13.97-50.43-27.64-74.96-40.31v1.82c24.28,12.55,48.98,26.08,74.19,39.91l4.91,2.7c44.09,24.18,89.68,49.19,135.77,70.58,6.91,3.2,18.07,6.97,30.99,11.34,37.27,12.59,93.6,31.61,100.18,56.82,2.76,10.56,1.01,19.99-5.19,28.01-14.66,18.98-53.01,27.62-82.53,27.63-33.99-.02-67.05-8.51-101.07-25.93-29.89-15.32-59.92-38.08-88.98-60.11-21.01-15.93-43.56-33-68.29-49.15v1.93c24.35,15.95,46.59,32.79,67.33,48.51,29.1,22.06,59.18,44.86,89.2,60.25Z"/>
      <path class="cls-1" d="m953.77,32.19c2.68-10.84,5.32-21.53,7.8-32.19h-2.76c-2.44,10.44-5.02,20.92-7.65,31.54-4.94,19.93-10.04,40.54-14.17,61.57-13.77,70.13-25.64,162.07,5.06,251.31,12.47,36.26,43.56,65.89,70.98,92.03,24.41,23.26,45.48,43.35,43.58,60.24-.87,7.76-6.55,14.67-17.34,21.1-4.98,2.97-13.5,4.47-25.32,4.47-41.25,0-114.04-18.21-167.87-36.26-58.56-19.63-130.7-50.9-141.89-88.4-3.57-11.94-.64-24.01,8.7-35.86,11.97-15.19,24.83-28.56,37.26-41.48,24.46-25.43,47.56-49.45,62.86-85.09,21.81-50.85,24.46-103.87,7.87-157.6-4.02-13.02-8.07-25.02-11.64-35.6-5.28-15.65-9.87-29.3-13-41.97h-2.8c3.18,12.93,7.86,26.85,13.25,42.83,3.57,10.57,7.61,22.54,11.62,35.53,16.4,53.1,13.78,105.5-7.77,155.75-15.1,35.2-38.04,59.04-62.32,84.29-12.48,12.97-25.38,26.38-37.43,41.68-9.91,12.58-13,25.46-9.17,38.3,11.52,38.61,84.46,70.35,143.61,90.18,54.04,18.12,127.17,36.4,168.73,36.4,12.31,0,21.29-1.63,26.69-4.85,11.57-6.89,17.66-14.45,18.64-23.1,2.05-18.21-19.47-38.73-44.4-62.48-27.2-25.93-58.04-55.32-70.3-90.96-30.49-88.63-18.67-180.11-4.97-249.91,4.12-20.97,9.21-41.55,14.14-61.45Z"/>
      <path class="cls-1" d="m508.57,1289.12c-2.68,4.44-5.22,8.65-7.42,11.75-27.19,38.32-59.38,72.29-95.58,109.58-4.88,5.02-9.89,10.08-14.96,15.2-29.91,30.21-60.83,61.45-79.32,98.37-7.17,14.32-9.38,25.48-6.4,32.29,1.36,3.09,3.72,5.14,7.03,6.1,1.37.39,2.9.59,4.55.59,6.64,0,15.43-3.2,25.43-9.26,19.88-12.03,38.77-26.9,57.03-41.27,14.96-11.77,30.43-23.95,46.39-34.52,64.34-42.64,106.84-70.81,126.71-150.3,4.12-16.48,6.53-54.03-6.19-70.32-4.38-5.62-10.13-8.26-17.26-7.93-16.56.84-30.11,23.31-40.01,39.72Zm41.26-38.14c5.98,0,10.94,2.47,14.74,7.34,12.38,15.85,9.95,52.73,5.9,68.94-19.72,78.88-62.01,106.92-126.05,149.35-16,10.6-31.49,22.8-46.48,34.59-18.23,14.34-37.08,29.17-56.87,41.16-12.06,7.29-22.34,10.34-28.7,8.49-2.83-.81-4.85-2.56-6-5.19-2.75-6.27-.49-17.25,6.36-30.92,18.38-36.69,49.21-67.84,79.02-97.96,5.07-5.13,10.09-10.19,14.97-15.21,36.26-37.33,68.49-71.35,95.75-109.76,2.23-3.15,4.78-7.37,7.48-11.85,9.71-16.1,23.02-38.15,38.72-38.95.39-.02.78-.03,1.17-.03Z"/>
      <path class="cls-1" d="m173.41,549.99c10.72,5.49,40.83,15.31,62.69,15.3,7.8,0,13.75-1.29,17.68-3.84,8.52-5.53,12.27-10.71,11.49-15.84-1.74-11.32-26.36-18.16-46.15-23.66-8.15-2.26-15.18-4.22-19.17-6.07-47.18-21.89-93.29-47.19-137.89-71.66l-4.94-2.71c-19.35-10.61-38.38-21.03-57.11-30.95v3.04c18.32,9.72,36.93,19.91,55.84,30.28l4.92,2.7c44.64,24.49,90.8,49.81,138.05,71.73,4.19,1.95,11.32,3.93,19.58,6.22,18.03,5.01,42.74,11.87,44.21,21.48.6,3.92-2.86,8.36-10.3,13.19-3.48,2.26-8.94,3.41-16.21,3.41-21.13,0-51.25-9.77-61.46-15.01-26.88-13.78-55.52-35.49-83.29-56.54-26.48-20.07-56.61-42.9-91.35-63.66v3.16c34.08,20.49,63.71,42.93,89.8,62.7,27.79,21.07,56.53,42.85,83.61,56.73Z"/>
      <path class="cls-1" d="m92.76,1572.19c6.42-139.3,102.42-249.08,179.56-337.29l6.08-6.95c91.73-105,88.01-141.67,44.97-184.14-47.19-46.56-121.57-116.53-222.24-186.33-34.36-23.82-68.34-45.6-101.13-64.98v3.11c32.3,19.15,65.76,40.61,99.59,64.07,100.5,69.68,174.77,139.55,221.88,186.03,41.8,41.24,45.2,77.08-45.1,180.46l-6.08,6.95c-77.41,88.53-173.75,198.7-180.22,338.93-6.07,131.63-55.65,170.28-90.08,181.13v2.82c35.23-10.74,86.57-49.58,92.76-183.81Z"/>
      <path class="cls-1" d="m1650.14,2255.94c-15.79-33.66-79.6-40.72-130.35-40.72-17.83,0-37.15.85-57.4,2.53-56.43,4.67-115.44,15.87-180.39,34.23-9.08,2.58-18.11,5.35-26.83,8.24-55.89,18.55-98.88,45.39-131.41,82.04-19.46,21.93-34.84,47.16-46.56,76.08h1.69c31.1-76.73,88.43-127.26,176.78-156.58,8.7-2.89,17.71-5.65,26.77-8.22,64.85-18.34,123.76-29.52,180.09-34.18,20.21-1.67,39.48-2.52,57.27-2.52,50.29,0,113.47,6.9,128.89,39.79,16.9,36.04-24.21,74.7-51.42,100.28-4.63,4.35-9,8.47-12.67,12.15-17.49,17.59-32.59,32.78-42.94,46.84-.6.82-1.16,1.63-1.76,2.45h1.99c.36-.5.7-.99,1.07-1.49,10.27-13.97,25.33-29.12,42.78-46.66,3.65-3.67,8.01-7.77,12.63-12.11,27.55-25.9,69.18-65.03,51.77-102.13Z"/>
      <path class="cls-1" d="m543.03,2169.15c-23.91-6.14-49.61-6.54-74.46-6.93-14.34-.22-29.16-.45-43.33-1.8-67.66-6.44-125.65-22.08-182.47-49.22-61.82-29.52-105.71-56.71-140.98-78.55-12.8-7.92-25.39-11.94-37.44-11.94-22.49,0-45.72,14.71-64.36,39.3v2.68c18.53-25.22,41.85-40.36,64.36-40.36,11.74,0,24.05,3.94,36.59,11.7,35.3,21.86,79.24,49.08,141.14,78.64,56.99,27.22,115.15,42.91,183.01,49.37,14.23,1.35,29.09,1.58,43.46,1.81,24.76.38,50.36.78,74.08,6.88,36.94,9.49,35.61,36.46,30.37,68.12-6.26,37.76-11.44,75.17-6.29,117.68,2.56,21.11,6.62,41.73,11.46,61.83h1.66c-4.87-20.16-8.95-40.84-11.51-62.02-5.12-42.3.05-79.59,6.28-117.23,5.18-31.26,6.66-60.13-31.56-69.95Z"/>
      <path class="cls-1" d="m685.93,46.48c36.83,114.7,51.8,177.02-39.61,229.86-15,8.67-32.03,15.08-50.62,19.03-15.76,3.36-33.08,5.06-51.5,5.06-169.91-.02-403.3-141.99-528.68-218.26l-4.28-2.6c-3.84-2.34-7.57-4.6-11.24-6.83v3.14c3.22,1.96,6.5,3.95,9.85,5.98l4.28,2.6c125.61,76.41,359.42,218.63,530.08,218.65,18.61,0,36.12-1.72,52.06-5.12,18.86-4.01,36.16-10.52,51.4-19.33,93.2-53.87,78.09-116.94,40.82-233-4.72-14.7-9.62-30-14.12-45.66h-2.8c4.57,15.94,9.56,31.53,14.36,46.48Z"/>
      <path class="cls-1" d="m471.43,30.12c1.08,4.04,2.58,9.01,4.29,14.61,4.85,15.89,3.98,26.61-2.57,31.86-3.29,2.63-8.08,3.97-14.27,3.97-26.23,0-69.89-23.4-84.24-31.09-7.01-3.76-12.3-6.58-16.43-8.64l-22.04-10.88c-20.21-9.89-39.92-19.89-59.02-29.93h-3.44c19.96,10.52,40.58,21.01,61.76,31.38l22.03,10.88c4.12,2.05,9.39,4.87,16.39,8.62,14.43,7.74,58.36,31.28,85,31.28,6.56,0,11.7-1.45,15.27-4.32,7.12-5.71,8.17-17.01,3.11-33.59-1.71-5.59-3.2-10.54-4.28-14.59-2.59-9.71-5.2-19.56-7.63-29.66h-1.66c2.47,10.25,5.12,20.25,7.74,30.12Z"/>
      <path class="cls-1" d="m635.28,62.75c14.91,46.44,29.17,104.69,6.88,143.16-11.04,19.06-30.39,31.65-57.52,37.42-12.14,2.58-25.74,3.9-40.42,3.9-155.01-.02-380.11-136.95-501.04-210.51l-22.31-13.55C14.02,19.03,7.06,15.16,0,11.52v1.83c6.78,3.51,13.46,7.22,20.02,11.19l22.31,13.55c121.07,73.64,346.42,210.73,501.88,210.75,14.8,0,28.51-1.32,40.76-3.93,27.59-5.87,47.3-18.72,58.58-38.19,22.61-39.02,8.28-97.7-6.74-144.46-6.44-20.04-12.82-40.87-18.28-62.25h-1.67c5.49,21.56,11.93,42.55,18.41,62.75Z"/>
      <path class="cls-1" d="m507.78,20.44c.98,3.66,2.34,8.13,3.92,13.32,7.8,25.57,19.59,64.23,8.44,82.05-4.55,7.28-11.59,12.03-20.92,14.11-3.77.84-7.97,1.27-12.52,1.27-39.26,0-98.19-31.6-129.85-48.58-6.15-3.3-11.45-6.14-15.43-8.13l-2.75-1.37c-3.12-1.55-6.03-3-8.71-4.32l-10.37-5.09C276.8,42.75,236.16,21.31,198.73,0h-3.25c38.14,21.79,79.64,43.73,123.4,65.15l10.37,5.09c2.67,1.31,5.58,2.76,8.7,4.31l2.75,1.37c3.96,1.98,9.26,4.82,15.39,8.11,31.79,17.04,90.95,48.77,130.62,48.77,4.66,0,8.99-.44,12.87-1.31,9.77-2.19,17.15-7.17,21.94-14.83,11.54-18.45-.38-57.52-8.27-83.38-1.58-5.16-2.94-9.63-3.91-13.26-1.76-6.6-3.53-13.27-5.24-20.02h-1.66c1.74,6.89,3.55,13.7,5.34,20.44Z"/>
      <path class="cls-1" d="m544.13,10.76c7.64,28.67,15.53,58.31,16.36,88.91,1.08,39.56-14.33,62.2-45.79,67.31-4.68.76-9.79,1.14-15.18,1.14-54.65,0-132.87-39.01-174.89-59.97-4.1-2.04-7.87-3.93-11.27-5.59l-10.36-5.09C237.64,65.46,177.05,32.24,125.02,0h-3.06c52.56,32.7,113.99,66.43,180.33,98.92l10.35,5.08c3.39,1.67,7.16,3.55,11.26,5.59,42.14,21.02,120.59,60.14,175.61,60.14,5.48,0,10.67-.39,15.44-1.17,32.39-5.26,48.25-28.46,47.14-68.94-.84-30.78-8.76-60.52-16.42-89.28-.91-3.43-1.83-6.88-2.74-10.34h-1.67c.94,3.6,1.89,7.19,2.84,10.76Z"/>
      <path class="cls-1" d="m599.46,74.25c.79,2.46,1.6,4.93,2.41,7.4,8.59,26.14,17.47,53.17,3.13,79.26-11.97,21.77-36.22,39.42-61.78,44.97-2.62.57-5.25,1.01-7.84,1.31-6.39.74-13.11,1.12-19.96,1.12-72.16,0-156.8-41.6-218.61-71.97l-10.35-5.08C207.05,92.37,130.37,45.73,62.72,4.57c-2.87-1.74-5.34-3.25-7.53-4.57h-3.11c5.09,3.09,9.8,5.95,9.8,5.95,67.68,41.17,144.39,87.84,223.87,126.76l10.34,5.08c61.95,30.44,146.79,72.14,219.32,72.14,6.92,0,13.7-.38,20.15-1.13,2.64-.31,5.33-.76,7.99-1.34,26-5.64,50.67-23.61,62.85-45.77,14.68-26.7,5.69-54.07-3.01-80.54-.81-2.47-1.62-4.93-2.41-7.39-7.57-23.56-15.01-48.23-21.18-73.76h-1.66c6.19,25.71,13.69,50.55,21.3,74.25Z"/>
      <path class="cls-1" d="m540.96,1199.68c-23.57,5.82-44.19,38.46-60.76,64.68-5.8,9.17-11.27,17.84-16.07,24.04-26.67,34.44-56.78,65.44-85.9,95.42-7.59,7.81-17.12,16.64-27.21,26-29.99,27.79-67.31,62.38-78.65,94.03-9.54,26.62-3.92,52,1.52,76.54,4.46,20.15,9.08,40.98,5.43,62.62-2.26,13.43-10.4,26.64-19.01,40.64-10.31,16.76-20.96,34.08-21.61,52.7-.22,6.33.76,12.59,2.91,18.6,7.12,19.91,14.53,29.19,23.33,29.19s18.21-9.06,32.27-31.28c13.42-21.21,18.7-45.79,23.81-69.56,5.13-23.86,10.43-48.54,23.96-69.88,25.78-40.65,71.25-70.59,111.37-97.01,3.38-2.23,6.73-4.43,10.05-6.63,66.6-44.13,119.2-78.99,142.66-172.86,6.21-24.84,4.58-88.11-20.69-120.48-12.28-15.72-28.4-21.44-47.4-16.75Zm45.29,18.4c22.65,29.01,27.16,90.34,20.2,118.17-23.21,92.86-75.43,127.46-141.56,171.28-3.3,2.18-6.65,4.39-10.02,6.61-40.34,26.57-86.07,56.68-112.16,97.82-13.79,21.75-19.15,46.66-24.32,70.76-5.06,23.54-10.29,47.88-23.45,68.69-9.39,14.85-20.31,30.04-30,30.04-7.4,0-14.21-8.96-20.8-27.4-2.06-5.77-2.96-11.53-2.75-17.6.62-17.91,11.09-34.93,21.21-51.38,8.75-14.22,17.01-27.66,19.37-41.6,3.74-22.15-.93-43.25-5.45-63.65-5.6-25.29-10.9-49.17-1.62-75.06,11.12-31.03,48.17-65.37,77.95-92.97,10.12-9.38,19.68-18.24,27.31-26.1,29.17-30.02,59.34-61.08,86.1-95.64,4.88-6.31,10.39-15.03,16.22-24.26,16.31-25.82,36.61-57.95,59.13-63.51,4.08-1.01,8.06-1.52,11.83-1.52,12.81,0,23.84,5.82,32.81,17.31Z"/>
      <path class="cls-1" d="m565.68,1083c-12.8-18.44-23.93-20.81-35.71-23.33-8.14-1.74-16.55-3.53-26.15-10.79l-.8-.89c-27.43-30.67-119.33-130.73-150.46-130.73-3.67,0-6.53,1.3-8.49,3.86-4.16,5.43-3.95,16.35.64,33.38,2.73,10.13,28.75,24.1,56.31,38.89,22.96,12.32,46.7,25.07,54.74,34.62,7.22,8.57,16.71,20.45,15.86,24.56-.23,1.12-1.44,1.77-3.56,2.82-4.8,2.39-12.06,6-8.19,22.95,2.67,11.72,9.93,23.37,16.95,34.64,6.54,10.5,12.71,20.41,15.22,30.05,6.89,26.42-36.42,74.95-65.07,107.06-9.45,10.59-17.62,19.74-22.81,26.63-20.88,27.7-46.89,53.34-72.06,78.14-48.94,48.24-99.55,98.11-117.35,166.99-26.59,102.91-31.9,193.79-15.76,270.1,8.6,40.72,38.26,97.51,67.02,97.51,17.91,0,30.96-21.52,38.77-63.96,30.09-163.48,112.18-217.88,191.57-270.48,70.34-46.61,136.78-90.63,165.36-204.95,10.77-43.13-5.8-109.46-27.34-146.17-9.61-16.39-21.72-25.6-33.43-34.5-10.29-7.83-20.01-15.22-27.51-27.01-5.32-8.36-4.37-18.09-3.37-28.39,1.03-10.65,2.1-21.66-4.37-30.99Zm4.57,61.4c7.87,12.36,17.85,19.95,28.41,27.98,11.42,8.69,23.23,17.67,32.46,33.42,21.16,36.07,37.48,101.14,26.94,143.36-28.23,112.9-94.07,156.54-163.79,202.72-80.04,53.04-162.81,107.89-193.19,272.94-7.33,39.83-19.46,60.89-35.07,60.89-24.42,0-54.1-50.82-63.34-94.53-16.01-75.74-10.72-166.04,15.72-268.38,17.54-67.87,67.77-117.38,116.35-165.25,25.26-24.9,51.38-50.64,72.42-78.55,5.1-6.77,13.22-15.87,22.62-26.4,30.94-34.67,73.31-82.15,65.91-110.52-2.66-10.19-8.98-20.34-15.67-31.08-6.85-11-13.94-22.38-16.47-33.48-3.21-14.07,1.79-16.56,6.2-18.75,2.44-1.21,4.95-2.46,5.57-5.42.82-3.94-1.68-9.96-16.67-27.75-8.5-10.1-32.57-23.02-55.84-35.51-24.44-13.12-52.15-27.99-54.45-36.55-5.24-19.43-3.59-27.1-1.29-30.11,1.23-1.6,3.03-2.39,5.5-2.39,23.49,0,91.68,66.88,147.65,129.48.7.78,1.09,1.17,1.11,1.18,10.48,7.96,19.71,9.93,27.86,11.67,11.51,2.46,21.45,4.58,33.41,21.79,5.69,8.19,4.73,18.05,3.72,28.48-1.02,10.49-2.07,21.33,3.94,30.78Z"/>
      <path class="cls-1" d="m0,734.14c181.22,102.55,376.52,265.71,412.08,346.81,21.35,48.71-30.41,106.9-95.94,180.58-74.47,83.72-167.15,187.92-172.92,312.99-7.03,152.45-82.58,215.06-143.22,233.99v3.93c62.03-18.9,139.82-82.32,146.98-237.75,5.7-123.74,97.89-227.38,171.97-310.66,66.43-74.68,118.9-133.68,96.58-184.59-35.82-81.71-232.99-246.28-415.53-349.31v4.02Z"/>
      <path class="cls-1" d="m912.88.3c.1-.1.19-.2.28-.3h-2.2c-3.37,3.59-6.78,7.38-9.12,12.87-6.69,15.68-4.79,32.03-2.95,47.84,1.02,8.81,2.08,17.92,1.65,26.83-.67,14-3.52,28.54-6.28,42.6-2.28,11.61-4.63,23.61-5.76,35.3-6.89,71.07-.66,135.35,18.5,191.05,3.98,11.55,19.55,29.33,36.04,48.15,21.08,24.07,42.89,48.96,43.75,64.07.19,3.37-.67,6.02-2.65,8.12-5.7,6.04-20.98,7.15-45.4,3.28-17.76-2.82-34.82-10.23-51.33-17.41-9.64-4.19-19.6-8.52-29.55-11.86-2.81-.94-5.72-1.91-8.72-2.89-35.73-11.8-84.67-27.95-91.68-56.24-3.34-13.49,3.21-28.91,19.49-45.83,25.65-26.67,52.18-54.24,70.13-96.1,17.21-40.12,37.02-118.21,29.43-160.48-1.55-8.66-5.17-14.51-8.67-20.16-4.68-7.57-9.1-14.71-7.08-27.67,1.49-9.54,5.2-15.13,8.48-20.07,3.93-5.92,7.36-11.28,6.41-21.41h-1.6c.96,9.63-2.23,14.62-6.15,20.51-3.37,5.07-7.18,10.82-8.73,20.71-2.12,13.54,2.46,20.93,7.3,28.76,3.42,5.52,6.95,11.24,8.45,19.59,7.53,41.96-12.2,119.63-29.33,159.56-17.84,41.59-44.26,69.05-69.81,95.62-16.69,17.34-23.38,33.27-19.89,47.34,7.23,29.15,56.65,45.47,92.74,57.38,2.99.99,5.91,1.95,8.71,2.89,9.88,3.32,19.82,7.63,29.42,11.81,16.6,7.21,33.76,14.67,51.72,17.52,9.6,1.52,17.9,2.3,24.66,2.3,11.06,0,18.31-1.98,22.16-6.06,2.26-2.4,3.3-5.53,3.08-9.32-.9-15.66-22.89-40.76-44.15-65.03-16.38-18.7-31.86-36.36-35.73-47.62-19.09-55.48-25.28-119.53-18.42-190.37,1.12-11.61,3.47-23.58,5.74-35.14,2.77-14.12,5.63-28.72,6.31-42.84.43-9.05-.63-18.22-1.66-27.1-1.89-16.32-3.69-31.73,2.83-47.02,2.4-5.63,6.04-9.48,9.55-13.2Z"/>
      <path class="cls-1" d="m736.59,30.22c34.01,105.9,69.17,215.41-63.64,292.18-19.85,11.48-42.11,19.89-66.17,25.01-19.4,4.13-40.45,6.22-62.58,6.22C364.65,353.63,140.05,220.1,0,135v4.4c140.51,85.36,364.45,217.99,544.2,217.99,22.39,0,43.71-2.12,63.36-6.31,24.44-5.2,47.07-13.76,67.27-25.43,135.44-78.29,99.8-189.27,65.34-296.59-3.14-9.76-6.24-19.46-9.21-29.07h-3.94c3.07,9.99,6.3,20.07,9.56,30.22Z"/>
      <path class="cls-1" d="m515.21,2220.09c-19.56-18.09-48.8-19.62-74.61-20.97-6.63-.35-12.89-.67-18.94-1.25-72.19-6.87-134.18-23.63-195.1-52.73-52.41-25.03-93.01-47.86-127.78-71.85-9.52-6.58-19.26-9.91-28.95-9.91-22.03,0-42.76,17.28-55.46,46.23-4.8,10.93-9.53,21.67-14.38,32.3v3.87c5.37-11.68,10.57-23.49,15.85-35.53,12.44-28.34,32.62-45.26,53.98-45.26,9.35,0,18.79,3.23,28.03,9.61,34.83,24.05,75.51,46.92,128,71.99,61.09,29.19,123.26,45.98,195.65,52.88,6.08.58,12.36.91,19.01,1.25,25.53,1.34,54.47,2.85,73.59,20.55,22.18,20.52,19.06,59.47,16.3,93.84-1.36,16.9-2.64,32.86-1.05,45.92,2.35,19.39,7.01,38.58,11.93,57.3h1.67c-4.94-18.8-9.64-38.07-11.99-57.49-1.56-12.9-.29-28.79,1.06-45.61,2.79-34.73,5.94-74.1-16.81-95.15Z"/>
      <path class="cls-1" d="m12.93,2313.37c-4.71-1.88-9.04-3.63-12.93-5.64v1.8c3.79,1.91,7.94,3.58,12.33,5.33,2.26.9,4.59,1.84,6.98,2.84,34.57,14.58,60.98,28.32,83.1,43.22,27.74,18.69,59.07,37.99,93.07,57.41h3.25c-34.91-19.87-67.04-39.63-95.41-58.74-22.21-14.96-48.71-28.75-83.38-43.38-2.4-1.01-4.74-1.95-7.01-2.85Z"/>
      <path class="cls-1" d="m81.4,2392.13c12.81,8.63,26.38,17.38,40.57,26.21h3.05c-14.97-9.28-29.27-18.48-42.72-27.54-18.96-12.77-50.9-29.24-82.3-42.13v1.73c31.09,12.8,62.63,29.09,81.4,41.73Z"/>
      <path class="cls-1" d="m50.21,1118.79c-2.65-17.32-14.61-32.81-36.55-47.34-4.5-2.98-9.02-5.99-13.67-9.11v1.93c4.3,2.89,8.56,5.74,12.77,8.52,21.54,14.27,33.27,29.39,35.84,46.24,4.26,27.87-16.91,56.61-42.9,88.6-1.76,2.16-3.7,4.82-5.72,7.68v2.8c2.5-3.6,4.86-6.87,6.96-9.46,26.24-32.29,47.61-61.35,43.25-89.86Z"/>
      <path class="cls-1" d="m40.35,2409.39l.03-.04c-12.99-7.87-26.5-14.83-40.38-21.09v1.76c13.59,6.16,26.82,13,39.55,20.71.12.07,6.59,4,12.53,7.61h3.1c-11.05-6.71-13.99-8.49-14.83-8.95Z"/>
      <path class="cls-1" d="m366.45,5.33c10.08,5.1,23.89,12.09,36.07,12.09,5.11,0,9.54-1.26,13.17-3.74.3-.21.6-.43.89-.66,3.99-3.18,6.54-7.77,8.14-13.02h-2.82c-1.47,4.44-3.67,8.27-7,10.92-.24.19-.48.37-.73.54-3.18,2.17-7.1,3.27-11.65,3.27-11.54,0-25.02-6.82-34.86-11.8-1.48-.75-2.87-1.45-4.15-2.08,0,0-.71-.35-1.73-.85h-6.1l6.64,3.26c1.28.63,2.66,1.33,4.13,2.07Z"/>
      <path class="cls-1" d="m391.73,2369.98c1.97-6.95,1.34-12.99-1.88-17.96-7.89-12.19-29.18-15.29-44.72-17.56-2.6-.38-5.01-.73-7.11-1.1-.71-.12-1.89-.36-3.45-.67-8.13-1.64-25.05-5.03-37.72-5.03-7.57,0-12.41,1.22-14.79,3.72-1.2,1.26-1.76,2.81-1.67,4.6.74,13.88,22.04,22.45,34.77,27.56,1.98.8,3.77,1.52,5.25,2.16,3.44,1.5,7.32,3.43,11.43,5.47,13.13,6.53,28,13.93,40.74,13.93,1.64,0,3.23-.13,4.71-.38,7.15-1.21,12.01-6.17,14.44-14.74Zm-14.96,11.69c-1.32.22-2.73.34-4.19.34-12.01,0-26.54-7.23-39.36-13.61-4.15-2.06-8.06-4.01-11.57-5.54-1.5-.66-3.32-1.39-5.34-2.19-12.04-4.84-32.19-12.95-32.83-24.85-.05-.93.21-1.66.82-2.3,1.2-1.26,4.34-2.76,12.54-2.76,12.37,0,29.08,3.36,37.11,4.98,1.59.32,2.81.56,3.54.69,2.13.37,4.56.72,7.19,1.11,14.12,2.06,35.45,5.17,42.57,16.18,2.75,4.25,3.24,9.29,1.5,15.43-2.11,7.43-6.02,11.52-11.98,12.54Z"/>
      <path class="cls-1" d="m496.44,2298.13c2.56-15.8,5.21-32.14-5.22-44.56-12.45-14.82-32.79-15.86-50.72-16.79l-1.85-.09c-6.38-.34-13.6-.71-20.54-1.37-76.71-7.3-142.72-25.17-207.75-56.23-20.48-9.78-40.6-20.93-60.05-31.71-10.69-5.92-21.73-12.04-32.73-17.88l-.75-.39c-12.89-6.84-26.23-13.92-39.95-13.92-7.23,0-13.76,1.96-19.96,6-21.88,14.24-32.38,41.86-42.53,68.58-4.61,12.13-9.06,23.61-14.38,33.64v3.36c6.01-10.72,10.85-23.19,15.89-36.43,10.06-26.48,20.47-53.85,41.9-67.8,5.93-3.86,12.17-5.74,19.08-5.74,13.32,0,26.47,6.99,39.19,13.73l.75.4c10.98,5.82,22.03,11.94,32.71,17.86,19.48,10.79,39.62,21.95,60.14,31.76,65.21,31.15,131.39,49.06,208.29,56.38,6.97.66,14.22,1.04,20.61,1.37l1.85.1c17.61.9,37.57,1.93,49.57,16.22,9.96,11.85,7.37,27.82,4.86,43.26-.81,4.96-1.56,9.66-1.94,14.29-1.44,17.99-2.93,36.6-.9,53.39,2.22,18.31,6.12,35.8,10.42,52.78h1.66c-4.33-17.06-8.26-34.62-10.49-52.97-2.02-16.64-.53-35.16.91-53.14.36-4.51,1.12-9.17,1.92-14.1Z"/>
      <path class="cls-1" d="m97.75,1136.98c13.97-39.25-.08-55.02-63.34-96.91-5.02-3.32-10.07-6.67-15.24-10.16-6.63-4.48-12.95-8.77-19.18-13.05v1.95c5.95,4.08,11.99,8.18,18.34,12.47,5.11,3.46,10.17,6.8,15.19,10.13,62.42,41.33,76.31,56.83,62.71,95.03-12.31,34.59-36.12,63.89-61.33,94.93-11.73,14.43-23.69,29.17-34.91,44.92v2.79c11.56-16.41,23.99-31.73,36.16-46.71,25.3-31.13,49.19-60.54,61.59-95.39Z"/>
      <path class="cls-1" d="m425.01,2277c-16.98-7.4-35.51-9.18-53.44-10.89-10.21-.98-20.76-1.99-30.85-4.04-50.62-10.25-99.94-26.75-146.59-49.03-21.49-10.26-42.1-21.68-62.08-32.75-2.83-1.57-6.12-3.67-9.61-5.9-11.52-7.35-25.86-16.5-38.68-16.5-4.79,0-9.09,1.31-12.77,3.88-9.79,6.85-14.41,20.66-18.49,32.84-1.02,3.03-1.98,5.9-2.97,8.52-1.74,4.59-5.23,10.91-8.92,17.61-8.93,16.21-20.05,36.39-16.05,48.53,4.04,12.25,20.01,18.96,32.83,24.35,2.91,1.22,5.66,2.38,8,3.5,21.91,10.41,40.89,21.09,58.02,32.62,42.48,28.62,93.65,58.76,150.26,88.61h3.45c-57.64-30.29-109.7-60.9-152.81-89.94-17.2-11.59-36.24-22.3-58.23-32.75-2.38-1.13-5.15-2.29-8.07-3.52-12.53-5.26-28.12-11.82-31.93-23.37-3.78-11.47,7.15-31.31,15.93-47.25,3.88-7.04,7.23-13.12,9.01-17.81,1.01-2.65,1.97-5.53,2.99-8.59,4-11.94,8.53-25.48,17.88-32.02,3.41-2.38,7.39-3.59,11.85-3.59,12.35,0,26.47,9.01,37.81,16.25,3.51,2.24,6.82,4.36,9.74,5.97,19.95,11.06,40.58,22.49,62.12,32.77,46.77,22.34,96.22,38.87,146.97,49.16,10.17,2.06,20.76,3.08,31.01,4.06,17.8,1.7,36.2,3.46,52.94,10.77,29.59,12.91,29.46,38.16,29.33,64.89-.04,8.83-.09,17.95.97,26.71,2.06,16.98,5.33,32.91,9.02,48.26h1.66c-3.72-15.41-7.01-31.4-9.07-48.45-1.05-8.67-1.01-17.74-.96-26.52.14-27.27.27-53.04-30.29-66.38Z"/>
      <path class="cls-1" d="m352.97,2414.02c-79.64-39-151.33-79.55-207.31-117.26-7.38-4.97-15.37-9.1-23.1-13.1-10.69-5.52-21.74-11.24-31.13-19.18-12.76-10.81-16.04-21.44-10.65-34.48,4.23-10.22,11.36-15.18,21.79-15.18,17.4,0,40.57,14.1,57.49,24.39,6.67,4.06,12.44,7.56,16.94,9.71,49.59,23.68,102.02,41.22,155.83,52.12,12.12,2.46,23.72,3.57,34.95,4.64,1.95.18,3.96.35,6.02.51,13.5,1.07,28.8,2.27,37.91,12.31,9.12,10.05,10,30.42,10.7,46.78.19,4.53.38,8.8.72,12.54l.19,2.03c1,10.78,2.46,26.79-1.4,38.47h2.82c3.71-12.16,2.26-27.96,1.26-38.72l-.19-2.03c-.33-3.68-.52-7.92-.71-12.42-.72-16.8-1.62-37.7-11.4-48.47-9.83-10.83-25.69-12.08-39.68-13.19-2.04-.16-4.04-.32-5.98-.5-11.15-1.07-22.69-2.17-34.67-4.6-53.6-10.86-105.82-28.32-155.21-51.91-4.38-2.09-10.09-5.56-16.7-9.59-17.19-10.46-40.74-24.78-58.89-24.78-11.48,0-19.65,5.67-24.27,16.84-5.83,14.1-2.21,26.04,11.39,37.56,9.62,8.14,20.81,13.92,31.63,19.52,7.67,3.96,15.59,8.06,22.83,12.94,56.08,37.79,127.88,78.4,207.63,117.45,1.53.75,2.77,1.36,3.89,1.91h6.1c-2.98-1.46-8.81-4.32-8.81-4.32Z"/>
      <path class="cls-1" d="m521.64,1339.57h-.35c-7.64,0-15.37,9.69-21.02,16.77-1.22,1.53-2.32,2.9-3.26,3.97-5.33,6.08-10.47,12.49-15.43,18.69-3.21,4-6.41,8.01-9.69,11.95l-.4.48c-10.72,12.73-15.1,21.01-13.39,25.34.47,1.19,1.65,2.68,4.56,3.01.42.05.86.08,1.29.08h.26c21.51-.47,38.93-19.95,47.39-31.52,8.06-11.02,13.84-22.92,15.84-32.65.47-2.27,1.76-9.97-1.29-13.87-1.09-1.4-2.66-2.17-4.52-2.25Zm3.17,15.57c-1.93,9.37-7.54,20.89-15.38,31.61-8.17,11.16-24.92,29.97-45.29,30.41l-.2,1.35v-1.34c-.33,0-.66-.02-.98-.06-1.93-.23-2.26-1.06-2.37-1.33-.59-1.49-.5-6.66,12.95-22.62l.41-.49c3.29-3.96,6.5-7.98,9.72-11.99,4.94-6.17,10.06-12.56,15.35-18.59.96-1.1,2.09-2.51,3.34-4.07,5-6.28,12.57-15.76,19.16-15.76h0c1.09.04,1.89.43,2.5,1.22,1.86,2.37,1.58,7.77.77,11.67Z"/>
      <path class="cls-1" d="m1088.62,1883.98c71.3-8.11,147.77-90.7,148.77-160.66,1.52-107.27-60.16-192.96-119.81-275.84-10.13-14.07-20.6-28.62-30.49-42.92l-5.95-8.58c-28.07-40.43-59.89-86.26-70.22-135.76-8.77-41.99-22.15-139.59-7.57-173.34,10.67-24.7,41.1-38.84,70.52-52.51,20.32-9.45,39.51-18.37,53-30.58l.63-.57q46.12-41.78,77.56-42.85c9.51-.33,21.35-.73,38.04-2.3,22.39-2.11,35.63-5.37,45.3-7.75,6.15-1.51,10.59-2.61,14.53-2.61,9.7,0,17.79,6.85,44.61,29.56,79.28,67.13,77.79,183.86,76.34,296.75-1.82,142.06-3.69,288.96,157.07,335.47,23.12,6.69,45.63,10.08,66.91,10.08,60.45,0,111.91-27.01,148.83-78.09,54.17-74.95,68.56-191.92,35.81-291.07-75.59-228.85-256.29-359.71-450.63-484.38-176.64-113.32-344.87-144.55-488.69-164.93-10.4-1.47-20.31-2.22-29.44-2.22-58.32,0-86.05,29.66-121.15,67.22-13.45,14.39-27.35,29.26-44.61,44.43-19.75,17.37-44.9,29.26-69.22,40.75-39.66,18.75-77.12,36.46-92.6,75.84-32.84,83.56,47.84,148.67,119.03,206.12,32.95,26.59,64.08,51.71,82.31,76.81,72.3,99.55,50.67,267.38-14.89,361.68-20.47,29.44-59.69,65.85-101.22,104.4-68.79,63.85-146.76,136.22-160.52,197.02-6.48,28.6-4.78,48.56,5.17,61.03,8.32,10.41,22.34,15.47,42.86,15.47,33.78,0,82.17-13.93,133.41-28.66,62.61-18.02,133.58-38.43,194.12-38.43,28.86,0,52.75,4.49,73.03,13.72,23.32,10.62,43.08,25.98,62.19,40.84,31.52,24.51,61.3,47.66,103.43,47.66,4.43,0,8.99-.27,13.55-.79Zm-178.05-90.16c-20.64-9.39-44.89-13.96-74.15-13.96-60.91,0-132.07,20.47-194.86,38.54-51.05,14.68-99.27,28.56-132.67,28.56-19.66,0-32.99-4.73-40.76-14.45-9.42-11.79-10.94-31.01-4.66-58.75,13.58-60,91.23-132.06,159.73-195.65,41.64-38.65,80.97-75.16,101.6-104.83,66.09-95.05,87.83-264.33,14.86-364.8-18.44-25.39-49.7-50.61-82.79-77.32-70.47-56.87-150.34-121.32-118.21-203.05,15.09-38.39,52.08-55.88,91.24-74.4,24.49-11.58,49.8-23.55,69.84-41.16,17.36-15.26,31.31-30.19,44.8-44.62,34.66-37.08,62.03-66.37,119.19-66.37,9.01,0,18.79.74,29.06,2.2,143.54,20.34,311.44,51.51,487.62,164.53,193.92,124.4,374.22,254.95,449.53,482.96,32.49,98.38,18.25,214.38-35.44,288.66-36.39,50.35-87.1,76.97-146.65,76.97-21.02,0-43.28-3.35-66.16-9.97-71.23-20.6-116.29-62.93-137.75-129.37-19.21-59.5-18.28-132.69-17.37-203.48,1.45-113.51,2.95-230.89-77.3-298.84-38.34-32.47-39.37-32.97-61.52-27.51-9.58,2.36-22.71,5.59-44.9,7.68-16.62,1.57-28.41,1.97-37.88,2.29q-32.42,1.11-79.27,43.55l-.63.57c-13.18,11.94-32.19,20.78-52.33,30.13-29.88,13.89-60.77,28.25-71.85,53.89-14.84,34.34-1.42,132.7,7.4,174.95,10.44,50.04,42.43,96.1,70.64,136.75l5.95,8.58c9.9,14.32,20.38,28.87,30.52,42.96,59.4,82.52,120.82,167.85,119.31,274.23-.98,68.82-76.22,150.05-146.38,158.04-4.46.5-8.92.77-13.25.77-41.21,0-70.63-22.88-101.78-47.1-19.23-14.95-39.11-30.41-62.72-41.16Z"/>
      <path class="cls-1" d="m2418.34,11.52c-8.08-4.16-16.3-8.01-24.69-11.52h-4.36c9.9,4.01,19.59,8.45,29.05,13.35v-1.83Z"/>
      <path class="cls-1" d="m2345.21,1056.45c-2.72-1.98-6.93-5.66-12.28-10.31-20.45-17.83-54.67-47.67-78.79-47.67-9.44,0-16.48,4.57-20.95,13.59-5.61,11.31,6.72,37.52,14.87,54.86,1.99,4.24,3.72,7.91,4.79,10.55,2.2,5.41,4.22,10.39,5.92,14.83,11.41,29.86,23.22,60.74,31.97,94.24.91,3.49,1.8,7.44,2.74,11.63,4,17.87,8.99,40.11,21.35,51,4.8,4.24,9.48,7.05,13.89,8.37,2.02.6,4.04.91,6,.91,14.62,0,24.67-16.61,34.39-32.68,2.21-3.66,4.51-7.45,6.79-10.93l2.17-3.3c37.03-56.39,59.39-90.43-8.69-137.7-6.63-4.6-15.22-10.86-24.18-17.41Zm30.62,153.63l-2.17,3.3c-2.31,3.52-4.62,7.33-6.84,11.01-9.34,15.42-18.99,31.38-32.09,31.38-1.7,0-3.46-.27-5.23-.8-4.04-1.21-8.37-3.84-12.88-7.81-11.71-10.31-16.59-32.08-20.51-49.58-.94-4.22-1.84-8.2-2.76-11.72-8.79-33.64-20.62-64.59-32.07-94.53-1.7-4.46-3.73-9.45-5.94-14.88-1.1-2.71-2.84-6.4-4.85-10.68-7.45-15.85-19.92-42.38-14.9-52.53,4.03-8.14,10.1-12.09,18.55-12.09,23.11,0,56.86,29.42,77.03,47,5.38,4.69,9.64,8.41,12.45,10.46,8.97,6.56,17.57,12.83,24.23,17.45,65.93,45.77,44.12,78.99,7.98,134.01Z"/>
      <path class="cls-1" d="m2389.25,996.12c-11.85-8.65-23.68-18.32-36.22-28.55-38.3-31.27-81.71-66.72-120.72-66.72-7.68,0-14.99,1.35-22.34,4.13-68.91,26.04-59.03,98.9-47,140.02,7.34,25.12,16.84,49.96,26.02,73.99,10.71,28.01,21.77,56.97,29.47,86.47,4.65,17.8,6.99,36.55,9.25,54.68,6.93,55.6,13.48,108.12,87.64,108.12,5.88,0,12.21-.33,18.82-.98,8.43-.83,15.39-2.16,21.28-4.06,19.73-6.35,25.63-18.31,34.56-36.42,2.7-5.47,5.76-11.68,9.56-18.35,5.83-10.25,12.16-19.98,18.76-29.35v-2.79c-7.11,9.99-13.92,20.37-20.17,31.35-3.82,6.72-6.89,12.95-9.59,18.44-8.75,17.73-14.53,29.45-33.61,35.6-5.78,1.86-12.63,3.16-20.94,3.98-6.56.65-12.84.98-18.67.98-72.74,0-78.9-49.45-86.04-106.71-2.27-18.18-4.61-36.98-9.28-54.89-7.73-29.59-18.81-58.59-29.53-86.64-9.17-24-18.65-48.81-25.98-73.87-11.87-40.58-21.67-112.47,46.02-138.06,7.16-2.71,14.29-4.02,21.77-4.02,38.43,0,81.6,35.25,119.7,66.36,12.55,10.25,24.4,19.93,36.28,28.6,8.96,6.55,16.86,12.3,22.78,16.4,2.4,1.66,4.84,3.33,7.27,4.99v-1.95c-2.12-1.45-4.26-2.91-6.35-4.36-5.9-4.09-13.79-9.84-22.74-16.38Z"/>
      <path class="cls-1" d="m2346.8,2196.66c-23.65,36.79-51.58,72.11-73.27,98.79-1.19,1.46-2.5,3-3.84,4.58-9.66,11.34-21.69,25.44-13.19,39.64,8.22,13.73,31.71,16.49,48.87,18.51,3.09.37,6,.71,8.46,1.08,36.91,5.6,71.88,15.97,104.53,30.76v-1.76c-32.59-14.69-67.48-25.01-104.29-30.59-2.49-.38-5.42-.72-8.51-1.09-16.82-1.98-39.85-4.69-47.67-17.74-7.9-13.2,3.71-26.82,13.03-37.77,1.36-1.59,2.67-3.13,3.87-4.6,21.72-26.7,49.69-62.08,73.38-98.93,21.02-32.69,35.87-66.55,51.59-102.39,5.31-12.1,11.62-22.97,18.59-32.46v-2.68c-7.57,9.98-14.39,21.55-20.07,34.49-15.7,35.79-30.52,69.58-51.47,102.17Z"/>
      <path class="cls-1" d="m1771.82,28.32c8.4,28.36,68.4,44.05,106.67,44.05,54.61,0,111.85-10.76,172.46-22.15,61.2-11.51,124.49-23.4,186.05-23.4,67.48,0,124.16,14.45,173.25,44.17,2.6,1.58,5.39,3.27,8.09,4.91v-3.15c-2.22-1.35-4.54-2.76-6.69-4.06-49.53-29.98-106.65-44.56-174.64-44.56-61.81,0-125.23,11.92-186.54,23.45-60.48,11.37-117.61,22.11-171.97,22.11-38.26,0-96.37-16.03-104.1-42.12-2.59-8.74.54-17.96,9.3-27.56h-3.52c-8.22,9.72-11.06,19.19-8.36,28.32Z"/>
      <path class="cls-1" d="m2225.13,214.61c-7.06,0-13.94-.06-20.69-.11-6.5-.05-12.88-.11-19.17-.11-36.64,0-65.81,1.96-97.97,11.73-16.82,5.11-32.58,13.13-47.81,20.88-25.44,12.95-49.47,25.19-78.23,25.19-4.76,0-9.59-.35-14.36-1.04-21.21-3.06-37.09-15.57-52.46-27.67-17.26-13.59-33.57-26.43-56.45-26.43-2.07,0-4.2.11-6.32.33-14.11,1.44-36.71,14.14-58.56,26.43-14.05,7.9-27.33,15.36-36.74,18.83-13.7,5.04-23.96,7.49-31.45,9.27-22.59,5.38-25.44,7.36-36.42,48.95-3.03,11.5-5.23,22.25-7.36,32.64-7.9,38.57-14.14,69.04-55.26,98.15-27.75,19.59-62.96,29.11-107.64,29.12-44.27,0-90.55-9.27-131.39-17.45-21.35-4.28-41.52-8.32-56.5-9.91-8.71-.93-22.12-1.49-35.89-1.49-39.44,0-85.65,14.44-88.88,35.17-1.53,9.81,6.14,24.55,51.36,39.01l5.04,1.61c172.35,55.28,292.55,127.42,414.89,249,33.75,33.54,59.52,49.16,81.11,49.16,5.07,0,10.02-.89,14.74-2.65,22.95-8.57,39.68-37.52,59.06-71.06,10.01-17.32,21.34-36.94,34.75-55.83,64.9-91.48,158.05-158.32,262.28-188.21,30.75-8.82,60.77-13.29,89.22-13.29,92.81,0,158.31,45.44,220.33,92.21v-3.36c-61.89-46.6-127.45-91.53-220.33-91.53-28.7,0-58.97,4.51-89.96,13.4-104.8,30.06-198.47,97.27-263.72,189.24-13.47,18.99-24.84,38.67-34.88,56.03-19.12,33.08-35.63,61.66-57.67,69.88-4.41,1.65-9.05,2.48-13.8,2.48-20.83,0-46.01-15.37-79.22-48.38-122.66-121.9-243.17-194.23-415.96-249.65l-5.05-1.61c-33.86-10.83-51.45-23.62-49.51-36.03,2.69-17.22,43.79-32.9,86.23-32.9,13.68,0,26.99.55,35.6,1.47,14.86,1.58,34.97,5.61,56.26,9.87,40.96,8.2,87.38,17.5,131.91,17.5,45.26,0,80.97-9.69,109.19-29.61,41.99-29.72,48.32-60.65,56.34-99.8,2.13-10.36,4.32-21.07,7.34-32.49,10.93-41.43,13.16-41.96,34.43-47.03,7.56-1.8,17.91-4.26,31.75-9.37,9.61-3.54,22.98-11.05,37.14-19.01,20.61-11.58,43.96-24.71,57.52-26.1,2.03-.21,4.07-.31,6.05-.31,21.95,0,37.9,12.56,54.8,25.86,15.64,12.31,31.81,25.04,53.73,28.21,4.9.71,9.87,1.07,14.75,1.07,29.41,0,54.84-12.95,79.45-25.48,15.13-7.7,30.78-15.67,47.36-20.71,31.85-9.67,60.8-11.61,97.19-11.61,6.28,0,12.65.05,19.15.11,6.75.05,13.65.11,20.71.11,32.83,0,62.2,3.83,89.81,11.71,34.88,9.96,69.1,23.89,103.4,40.11v-2.97c-34.03-16.04-68-29.82-102.66-39.72-27.85-7.95-57.47-11.82-90.55-11.82Z"/>
      <path class="cls-1" d="m2360.12,2240.63c-17.4,20.89-37.12,44.57-36.19,67.25.71,17.48,17.63,20.42,32.55,23.02,3.6.62,6.99,1.21,10.18,1.98,15.28,3.67,33.4,10,51.67,17.52v-1.73c-18.14-7.45-36.11-13.71-51.29-17.35-3.25-.78-6.67-1.37-10.28-2-15.03-2.62-30.56-5.32-31.23-21.5-.9-22.06,18.6-45.49,35.82-66.15,7.09-8.51,13.79-16.55,18.44-23.79,15.33-23.84,27.32-47.66,38.54-72.08v-3.88c-11.62,25.5-23.96,50.29-39.9,75.09-4.6,7.15-11.26,15.16-18.32,23.63Z"/>
      <path class="cls-1" d="m2390.54,1043.4c-6.24-4.33-14.66-10.46-23.47-16.9-12.65-9.23-24.85-19.2-37.83-29.8-2.92-2.39-6.11-5.09-9.5-7.97-21.65-18.37-51.31-43.52-78.6-43.52-7.52,0-14.51,1.96-20.76,5.83-47.17,29.16-18.8,98.81-1.86,140.43,2.06,5.07,4.01,9.86,5.63,14.07,11.06,28.94,22.5,58.86,30.73,90.4,1.55,5.92,3.1,12.89,4.74,20.26,7.52,33.77,17.81,80.02,43.66,96.68,4.26,2.75,8.74,4.47,13.33,5.1,1.37.19,2.78.29,4.18.29,31.6,0,63.11-48.01,86.12-83.07,4.17-6.35,7.96-12.09,11.44-17.09v-2.8c-3.83,5.41-8.07,11.84-12.78,19.01-22.81,34.75-54.05,82.34-84.78,82.34-1.33,0-2.66-.09-3.96-.27-4.35-.6-8.61-2.24-12.67-4.86-25.29-16.31-35.5-62.18-42.96-95.68-1.64-7.38-3.2-14.36-4.75-20.32-8.26-31.62-19.71-61.59-30.8-90.57-1.62-4.23-3.57-9.03-5.64-14.1-16.75-41.14-44.79-110.01,1.22-138.45,5.99-3.7,12.69-5.58,19.91-5.58,26.7,0,56.09,24.93,77.56,43.14,3.41,2.89,6.6,5.6,9.6,8.05,12.93,10.56,25.14,20.53,37.83,29.79,8.82,6.44,17.25,12.59,23.51,16.93,8.39,5.81,16.87,11.55,25.91,17.67.95.64,1.86,1.24,2.81,1.87v-1.93c-.66-.44-1.3-.87-1.97-1.32-8.97-6.07-17.45-11.81-25.83-17.61Z"/>
      <path class="cls-1" d="m2111.19,1424.79c3.05,3.98,8.76,9.42,23.12,10.59,53.71,4.39,134.88,11.04,203.43,73.48l.78.7c23.43,21.41,42.46,48.49,56.56,80.51,3.9,8.84,10.23,13.91,17.37,13.91,1.94,0,3.93-.4,5.89-1.2v-1.92c-1.94.92-3.92,1.51-5.89,1.51-6.47,0-12.26-4.72-15.89-12.95-14.2-32.22-33.36-59.49-56.95-81.05l-.79-.71c-68.96-62.81-150.45-69.47-204.38-73.89-13.72-1.12-19.11-6.22-21.97-9.96-6.84-8.95-7.71-22.74-6.92-26.99,7.47-32.89,16.76-73.83,13.27-118.63-5.88-75.84-36.2-141.01-65.52-204.03-23.53-50.58-50.21-107.9-40.95-134.03,16.49-46.51,83.87-113.19,112.07-139.7,17.92-16.85,39.21-25.39,63.29-25.39,13.77,0,25.65,2.9,33.19,5.33,49.43,15.93,119.42,52.45,197.43,102.59v-1.91c-77.79-49.93-147.58-86.3-196.94-102.21-7.65-2.47-19.71-5.41-33.69-5.41-24.5,0-46.16,8.69-64.39,25.82-28.29,26.59-95.88,93.49-112.49,140.33-9.48,26.75,17.34,84.4,41.01,135.26,29.26,62.89,59.51,127.92,65.38,203.47,3.47,44.56-5.79,85.36-13.25,118.21-.83,4.45.08,18.91,7.23,28.26Z"/>
      <path class="cls-1" d="m2413.56,2231.83c-8.66,14.18-18.47,30.25-16.11,47.74,2.32,17.18,10.17,24.56,20.89,29.95v-1.8c-10.1-5.22-17.11-12.24-19.29-28.37-2.28-16.93,7.37-32.73,15.89-46.68l1.61-2.64c.63-1.04,1.18-2.19,1.79-3.27v-3.36c-1.04,1.96-2.05,3.95-3.16,5.79l-1.61,2.64Z"/>
      <path class="cls-1" d="m1713.22,83.37c46.38,29.12,100.44,43.28,165.28,43.28,59.66,0,122.1-11.74,182.48-23.09,58.77-11.05,119.54-22.47,176.03-22.47s104.76,11.88,145.14,36.32c7.05,4.27,14.45,8.77,22.17,13.46,4.57,2.78,9.26,5.63,14.03,8.53v-4.4c-4.09-2.49-8.13-4.94-12.08-7.34-7.72-4.7-15.12-9.2-22.17-13.47-40.98-24.81-89.09-36.87-147.09-36.87s-117.78,11.46-176.72,22.54c-60.22,11.32-122.49,23.02-181.79,23.02-64.11,0-117.52-13.97-163.28-42.7-30.73-19.3-45.57-39.59-44.1-60.3.47-6.61,2.64-13.26,6.37-19.88h-4.2c-3.42,6.52-5.47,13.08-5.93,19.61-1.57,22.2,13.85,43.65,45.85,63.75Z"/>
      <path class="cls-1" d="m2212.37,1376.09c12.23,6.7,29.03,9.56,45.27,12.32,12.02,2.05,24.45,4.16,34.58,7.81,6.39,2.31,13.45,5.79,20.93,9.47,15.41,7.59,32.88,16.21,48.8,16.21,3.06,0,6.02-.32,8.8-.95.74-.17,1.47-.36,2.19-.58,22.78-6.79,34.94-35.35,45.41-61.6v-4.36c-.06.16-.13.31-.19.47-10.64,26.75-22.7,57.08-45.68,63.94-.69.2-1.39.38-2.09.55-2.66.61-5.49.92-8.43.92-15.53,0-32.83-8.52-48.09-16.04-7.52-3.7-14.62-7.2-21.09-9.54-10.26-3.7-22.76-5.83-34.85-7.89-16.11-2.74-32.77-5.57-44.77-12.15-26.55-14.55-23.77-41.2-20.85-69.42,1.15-11.04,2.34-22.47,1.53-32.9-6.94-89.41-40.16-160.82-72.29-229.88-14.58-31.35-15.66-65.71-3.01-96.75,13.69-33.58,42.38-60.71,78.71-74.44,11.33-4.28,23.13-6.45,35.07-6.45,51.84,0,100.53,39.76,143.49,74.84,12.16,9.93,23.65,19.31,34.67,27.36,2.85,2.08,5.42,3.96,7.87,5.73v-1.99c-2.16-1.57-4.45-3.24-6.91-5.04-10.98-8.02-22.46-17.38-34.61-27.3-43.17-35.25-92.09-75.2-144.51-75.2-12.14,0-24.14,2.21-35.64,6.56-36.75,13.89-65.78,41.35-79.63,75.34-12.82,31.45-11.74,66.27,3.04,98.04,32.07,68.92,65.22,140.2,72.14,229.32.8,10.29-.38,21.63-1.52,32.61-2.86,27.5-5.81,55.93,21.67,71Z"/>
      <path class="cls-1" d="m2225.13,268.89c-45.2,0-93.26,8.19-144.23,16.89-57.35,9.79-116.65,19.9-179.82,19.9-4.56,0-9.06-.05-13.4-.16-21.93-.52-40.53-4.14-56.93-7.33-14.19-2.76-26.43-5.14-38.19-5.14-27.93,0-48.46,14.7-70.87,50.75-10.81,17.38-18.69,38.14-26.31,58.22-13.49,35.52-27.44,72.26-58.26,94.03-10.61,7.49-30.92,13.29-52.42,19.43-37.56,10.72-80.14,22.87-85.92,48.24-7.21,31.8,58.11,75.31,93.21,98.69,6.53,4.35,12.17,8.11,15.87,10.82,41.15,30.19,75.19,50.29,107.53,50.29,4.43,0,8.84-.39,13.11-1.16,25.8-4.63,49.24-22.88,73.75-57.42,72-101.49,175.56-175.71,291.58-208.98,35.62-10.22,70.68-15.4,104.19-15.4,92.72,0,161.32,37.45,220.33,79.16v-1.98c-59-41.59-127.63-78.79-220.33-78.79-33.66,0-68.87,5.2-104.63,15.46-116.38,33.38-220.24,107.81-292.45,209.59-24.26,34.18-47.36,52.22-72.72,56.77-4.18.75-8.49,1.13-12.83,1.13-31.91,0-65.69-19.98-106.58-49.98-3.73-2.73-9.38-6.5-15.93-10.86-34.77-23.16-99.5-66.27-92.53-96.99,5.57-24.44,47.66-36.45,84.79-47.05,21.63-6.18,42.07-12.01,52.91-19.66,31.22-22.05,45.25-59.02,58.83-94.77,7.6-20.01,15.46-40.7,26.17-57.95,22.08-35.5,42.21-49.99,69.5-49.99,11.6,0,23.78,2.37,37.88,5.11,16.47,3.21,35.14,6.84,57.2,7.36,4.36.1,8.88.16,13.45.16,63.31,0,122.68-10.13,180.17-19.94,50.82-8.67,98.82-16.85,143.88-16.85,27.81,0,52.41,3.16,75.2,9.67,39.04,11.15,78.15,28.17,118.01,48.12v-1.81c-39.69-19.83-78.64-36.75-117.57-47.86-22.93-6.55-47.67-9.73-75.64-9.73Z"/>
      <path class="cls-1" d="m2177.56,1405.04c10.99,2.76,21.73,5.25,32.12,7.66,56.19,13.03,104.71,24.28,153.23,68.21l.98.88c11.15,10.1,19.95,15,26.92,15,1.08,0,2.15-.12,3.16-.35,10.54-2.44,15.79-17.15,21.56-36.12.9-2.94,1.87-5.86,2.81-8.79v-5.29c-1.51,4.52-2.97,9.06-4.36,13.61-5.62,18.47-10.69,32.77-20.39,35.02-6.97,1.64-16.2-3.02-28.63-14.28l-.97-.88c-48.83-44.21-97.55-55.5-153.95-68.58-10.38-2.41-21.11-4.9-32.09-7.65-39.41-9.89-32.74-46.94-26.3-82.78,2.82-15.66,5.73-31.85,4.68-45.41-6.41-82.61-38.17-150.91-68.91-216.98-3.67-7.89-7.6-15.61-11.41-23.07-19.75-38.73-36.8-72.18-12.42-113.35,18.35-30.97,45.82-56.32,72.4-80.83,4.79-4.42,9.56-8.82,14.24-13.22,10.26-9.63,24.23-14.51,41.51-14.51,66.2,0,168.03,70.46,226.62,112.92v-1.99c-58.88-42.63-160.28-112.54-226.62-112.54-17.7,0-32.04,5.03-42.61,14.95-4.68,4.4-9.45,8.8-14.24,13.21-26.65,24.59-54.22,50.02-72.69,81.19-24.83,41.94-6.76,77.38,12.38,114.91,3.8,7.45,7.73,15.16,11.4,23.04,30.66,65.92,62.37,134.08,68.76,216.4,1.03,13.35-1.86,29.44-4.66,44.99-6.58,36.57-13.38,74.38,27.49,84.64Z"/>
      <path class="cls-1" d="m1046.61,2178.97c-13.59,20.5-30.5,46.03-24.66,63.65,2.38,7.19,8.38,12.56,17.82,15.96,1.78.63,3.75.96,5.83.96,20.77,0,53.64-32.07,82.65-60.36,18.45-18,35.89-35,46.37-39.75,50.11-22.72,119.18-33.54,180.13-43.08,24.06-3.77,46.78-7.32,67.76-11.43,47.83-9.37,94-14.12,137.25-14.12,141.54,0,260.38,50.93,353.24,151.38,10.41,11.26,25.55,16.97,45.01,16.97,60.63,0,164.59-59.01,237.83-168.38,43.81-65.41,107.42-199.14,41.27-359.8-26.51-64.39-65.91-94.38-123.98-94.38-44.2,0-94.6,16.24-152.96,35.05-71.82,23.15-153.22,49.39-240.79,49.39-68.18,0-130.8-15.72-191.45-48.06-187-99.73-192.45-281.65-176.31-429,6.28-57.3-3.91-102.66-29.46-131.16-18.04-20.13-42.64-30.77-71.12-30.77-53.96,0-121.29,41.88-145.57,121.93-22.86,75.36,31.32,143.85,94.07,223.16,70.75,89.43,150.94,190.8,135.38,326.07-7.72,67.05-32.21,131.4-65.51,172.13-25.25,30.89-47.57,33.64-71.2,36.54-18.04,2.22-36.69,4.51-58.59,18.4-16.69,10.59-21.93,28.62-27.48,47.72-3.83,13.16-7.78,26.78-15.82,37.92-4.41,6.12-12.07,7.45-20.17,8.85-10.7,1.86-22.83,3.97-29.26,17.8-4.48,9.63,1.43,20.96,7.14,31.92,4.76,9.13,9.68,18.57,8.21,26.43-1.18,6.28-7.86,16.37-15.61,28.05Zm10.15-55.91c-5.61-10.77-10.91-20.93-7.08-29.19,5.74-12.35,16.54-14.23,26.98-16.04,8.36-1.45,17.01-2.95,22.16-10.09,8.36-11.58,12.39-25.46,16.29-38.87,5.38-18.52,10.47-36.01,26.16-45.97,21.31-13.51,39.61-15.76,57.3-17.94,24.27-2.99,47.19-5.8,73.23-37.66,33.66-41.18,58.4-106.12,66.18-173.74,15.71-136.54-64.9-238.44-136.03-328.34-62.2-78.63-115.92-146.53-93.53-220.35,23.85-78.61,89.79-119.73,142.61-119.73,27.57,0,51.37,10.28,68.81,29.74,24.94,27.83,34.87,72.35,28.69,128.76-16.25,148.32-10.71,331.47,177.93,432.07,61.1,32.59,124.2,48.43,192.91,48.42,88.06,0,169.71-26.31,241.75-49.53,58.11-18.73,108.29-34.91,152-34.91,57.44,0,94.79,28.52,121.12,92.46,65.61,159.33,2.49,292-40.98,356.89-70.01,104.54-174.59,167.01-235.25,167.01-18.56,0-32.94-5.37-42.74-15.98-93.47-101.11-213.08-152.37-355.51-152.37-43.44,0-89.82,4.77-137.85,14.18-20.91,4.1-43.61,7.65-67.64,11.41-61.14,9.57-130.44,20.42-180.93,43.31-10.98,4.98-27.79,21.38-47.25,40.36-28.58,27.88-60.98,59.48-80.48,59.48-1.73,0-3.34-.26-4.79-.78-8.62-3.1-13.83-7.69-15.93-14.02-5.37-16.19,11.08-41.01,24.3-60.96,7.93-11.97,14.77-22.29,16.07-29.2,1.67-8.91-3.5-18.84-8.5-28.43Z"/>
      <path class="cls-1" d="m712.97,2187.85c24.24-21.92,62.61-41.13,107.04-63.38,31.03-15.54,72.69-53.69,70.2-84.91-1.36-17.06-15.08-29.81-40.77-37.91-10.1-3.19-21.16-4.73-33.81-4.73-32.91,0-69.96,10.92-102.64,20.56-14.94,4.4-29.04,8.56-41.91,11.48-108.15,24.55-173.43,39.37-231.92,39.38-51.79,0-97.21-11.6-156.77-40.05-57.31-27.37-98.81-53.07-132.19-73.75-49.09-30.41-72.02-43.86-101.06-43.86-13.54,0-29.72,3.03-49.13,9.21v2.82c19.45-6.25,35.66-9.34,49.13-9.34,28.3,0,51,13.33,99.68,43.48,33.4,20.68,74.97,46.43,132.41,73.87,59.94,28.63,105.7,40.31,157.93,40.31,58.8,0,124.19-14.85,232.52-39.44,12.95-2.94,27.1-7.11,42.07-11.53,32.51-9.58,69.36-20.45,101.88-20.45,12.37,0,23.17,1.51,33,4.61,24.55,7.74,37.64,19.7,38.9,35.56,2.39,30.04-38.38,67.09-68.73,82.29-44.6,22.34-83.12,41.63-107.63,63.79-73.93,66.85-62.02,154.14-39.59,232.49h2.8c-22.34-77.8-34.4-164.48,38.59-230.49Z"/>
      <path class="cls-1" d="m2345.49,1812.2c6.91,4.41,18.12,6.84,31.57,6.84,11.99,0,26.17-2,41.28-6.6v-3.93c-15.11,4.72-29.31,6.77-41.28,6.77-12.56,0-23.33-2.28-29.55-6.25-31.57-20.17-45.53-55.77-60.3-93.45-12.75-32.53-25.93-66.15-51.52-89.86l-.07-1.11-1.11.03c-29.43-25.96-69.08-38.58-121.21-38.58s-104.3,12.2-147.27,22.01c-29.35,6.7-54.71,12.49-71.02,12.49-9.58,0-15.41-1.97-17.82-6.03-3.2-5.4-.79-15.51,7.17-30.06,37.14-67.81,112.13-229.46,106.94-296.36-4.09-52.79-29.46-107.3-53.99-160.02-35.52-76.34-72.25-155.28-45.51-230.69,30.51-86.04,164.92-239.83,260.56-252.87,5.58-.76,11.6-1.15,17.89-1.15,62.21,0,153.22,37.08,248.09,90.77v-4.02c-94.9-53.57-185.84-90.51-248.09-90.51-6.47,0-12.65.4-18.39,1.18-96.85,13.21-232.8,168.49-263.6,255.34-27.25,76.86,9.81,156.51,45.65,233.54,24.39,52.42,49.61,106.62,53.66,158.73,4.63,59.64-60.8,210.85-106.48,294.26-8.89,16.23-11.15,26.97-7.11,33.78,3.14,5.3,10.02,7.87,21.05,7.87,16.74,0,42.28-5.83,71.86-12.57,42.79-9.76,96.04-21.91,146.43-21.91s90.51,12.47,119.27,38.13h0c25.32,23.15,38.45,56.63,51.14,89,15,38.27,29.17,74.42,61.78,95.25Z"/>
      <path class="cls-1" d="m2314.12,2057.56c-14.2,32.38-27.62,62.95-44.62,89.41-99.07,154.05-209.49,180.01-326.4,207.49-8.9,2.09-18.25,4.08-27.3,6.01-38.94,8.3-79.21,16.87-112.03,38.16-10.27,6.66-18.11,13.24-23.59,19.71h3.52c5.2-5.69,12.37-11.52,21.53-17.46,32.41-21.02,72.43-29.55,111.13-37.79,9.06-1.93,18.43-3.93,27.36-6.02,117.45-27.61,228.38-53.69,328.04-208.65,17.12-26.63,30.58-57.3,44.85-89.84,22.64-51.58,48.29-110.03,83.75-129.57,6.3-2.39,12.26-4.47,17.98-6.3v-2.82c-6.05,1.93-12.4,4.14-19.1,6.69-36.44,20.05-62.28,78.95-85.11,130.99Z"/>
      <path class="cls-1" d="m1755.42,2360.03c63.36-28.25,120.67-41.72,176.1-54.75,111.33-26.17,207.47-48.77,295.49-185.65,14.83-23.06,27.47-51.87,40.85-82.38,27.96-63.72,56.87-129.61,110.53-156.82,14.46-5.6,27.65-9.93,39.95-13.17v-3.86c-12.79,3.33-26.53,7.82-41.68,13.7-54.84,27.79-84.02,94.31-112.25,158.64-13.32,30.36-25.9,59.04-40.57,81.85-87.2,135.6-182.66,158.04-293.19,184.02-55.59,13.07-113.08,26.59-176.77,54.98-41.43,18.47-69.12,39.86-80.59,61.74h4.2c11.55-20.47,38.3-40.64,77.93-58.31Z"/>
      <path class="cls-1" d="m1767.84,2231.49c-9.97-31.51-53.57-55.03-129.59-69.92-50.07-9.8-101.24-14.77-152.09-14.77-74.74,0-150.42,10.69-224.94,31.76-10.09,2.85-20.23,5.96-30.12,9.24-128.6,42.69-202.81,113.82-236.13,230.54h3.95c33.16-114.8,106.55-184.87,233.37-226.97,9.84-3.26,19.92-6.36,29.96-9.19,74.18-20.98,149.52-31.62,223.91-31.62,50.61,0,101.54,4.95,151.37,14.71,74.57,14.6,117.21,37.26,126.73,67.35,7.29,23.05-4.79,51.18-35.9,83.62-32.18,33.54-64.7,67.44-93.92,102.1h4.95c28.62-33.75,60.31-66.79,91.69-99.5,32.13-33.5,44.51-62.89,36.77-87.36Z"/>
      <path class="cls-1" d="m1469.72,1932.53c2.21,1.22,4.58,1.84,7.02,1.84,9.55,0,18.94-9.33,27.22-17.55,4.8-4.77,9.34-9.27,13.04-11.05,4.84-2.31,9.36-3.44,13.82-3.44,8.53,0,15.78,4.08,24.17,8.8,3.01,1.69,6.11,3.44,9.45,5.09,8.02,3.96,15.86,5.88,23.97,5.88s15.71-1.86,23.71-3.83c8.31-2.05,16.91-4.16,26.97-4.38l1.29-.02c20.43,0,39.14,10.58,57.23,20.8,18,10.18,36.6,20.7,56.85,20.7,9.73,0,19.06-2.35,28.53-7.17,7.58-3.86,13.37-8.62,18.47-12.82,8.33-6.86,15.53-12.78,27.68-12.78,3.55,0,7.35.49,11.59,1.49,34.52,8.15,49.7,39.88,64.38,70.57,6.88,14.38,14,29.25,22.96,41.11,18,23.81,41.22,36.91,65.4,36.91h1.25c24.25-.46,47.53-13.81,65.54-37.62,24.45-32.31,68.87-137.58,50.48-189.97-5.44-15.47-15.89-25.26-31.08-29.1-5.36-1.35-10.33-2.02-15.19-2.02-15.71,0-27.45,7.02-41.04,15.15-3.06,1.83-6.22,3.72-9.56,5.61-27.56,15.6-54.89,18.82-83.82,22.24-11.35,1.34-23.09,2.72-34.98,4.91-13.24,2.44-25.14,7.05-36.65,11.51-15.15,5.87-29.46,11.41-45.2,11.41-10.65,0-21.04-2.57-31.76-7.84-22.13-10.88-46.28-20.96-72.94-20.96-8.84,0-17.5,1.04-26.48,3.2-4.09.98-8.1,2-12.03,3-15.42,3.93-29.99,7.63-44.77,7.63-12.01,0-23.27-2.49-34.43-7.62l-4.75-2.19c-20.3-9.39-41.31-19.09-62.78-19.09-11.85,0-22.8,2.88-33.49,8.81-13.46,7.46-31.46,38.87-31.43,60.75.02,10.34,3.95,17.96,11.38,22.05Zm21.36-80.45c10.28-5.7,20.8-8.47,32.19-8.47,20.88,0,41.61,9.58,61.66,18.85l4.75,2.19c11.52,5.29,23.15,7.86,35.55,7.86,15.11,0,29.84-3.75,45.43-7.71,3.93-1,7.92-2.02,12-2.99,8.77-2.1,17.22-3.12,25.85-3.12,26.11,0,49.92,9.95,71.76,20.69,11.1,5.46,21.88,8.11,32.95,8.11,16.24,0,30.78-5.63,46.17-11.6,11.39-4.41,23.18-8.98,36.16-11.37,11.81-2.17,23.5-3.55,34.81-4.89,29.21-3.44,56.79-6.7,84.83-22.57,3.35-1.9,6.53-3.8,9.61-5.64,13.26-7.92,24.7-14.77,39.67-14.77,4.63,0,9.39.63,14.53,1.93,14.26,3.61,24.09,12.82,29.21,27.38,18.1,51.54-25.9,155.5-50.08,187.46-17.51,23.13-40.04,36.11-63.45,36.54h-1.2c-23.32.01-45.79-12.72-63.26-35.83-8.8-11.64-15.54-25.73-22.68-40.65-14.95-31.26-30.41-63.58-66.18-72.02-4.45-1.05-8.45-1.56-12.21-1.56-13.1,0-20.65,6.21-29.39,13.39-5.24,4.31-10.66,8.77-17.98,12.51-9.08,4.63-18.02,6.88-27.31,6.88-19.54,0-37.02-9.88-55.53-20.35-18.39-10.4-37.41-21.16-58.55-21.16l-1.34.02c-10.35.22-19.1,2.38-27.55,4.46-7.84,1.93-15.24,3.75-23.07,3.75s-15.03-1.78-22.78-5.61c-3.26-1.61-6.34-3.34-9.32-5.01-8.36-4.7-16.26-9.14-25.49-9.14-4.87,0-9.77,1.21-14.97,3.7-4.12,1.97-8.81,6.63-13.78,11.57-7.91,7.86-16.88,16.77-25.33,16.77-2.01,0-3.88-.49-5.72-1.5-6.61-3.64-9.97-10.27-9.99-19.71-.03-22.21,18.7-52.11,30.05-58.4Z"/>
      <path class="cls-1" d="m1123.07,2122.51c3.43.89,9.62,1.37,17.44,1.37,16.34,0,77.02-2.43,171.64-33.68,79.12-26.13,171.63-40.52,260.5-40.52,146.28,0,243.46,21.92,368.63,141.73,8.88,8.5,20.79,12.82,35.39,12.82,54.4,0,136.67-59.21,187.3-134.81,39.55-59.06,97.03-179.66,37.67-323.84-25.56-62.06-57.64-70.62-88.51-70.62-38.15,0-85.87,15.38-141.19,33.2-74.5,24.02-158.94,51.23-252.57,51.23-74.63,0-143.16-17.2-209.5-52.58-209.64-111.81-212.49-320.08-196.39-467.02,4.98-45.51-2.09-81.52-19.9-101.38-10.72-11.96-25.03-18.02-42.55-18.02-39.82,0-90,32.53-108.86,94.71-17.04,56.17,31.37,117.36,87.44,188.23,71.63,90.55,160.78,203.22,143.41,354.23-4.98,43.25-16.52,84.37-34.31,122.22-28.31,60.22-65.75,111.33-111.27,151.91-30.03,26.78-60.17,45.5-82.18,59.16-20.04,12.44-32.14,19.96-31.27,25.67.39,2.58,3.28,4.49,9.07,5.98Zm23.05-30.28c22.05-13.7,52.26-32.46,82.39-59.33,45.69-40.73,83.25-92.02,111.65-152.43,17.87-38.01,29.46-79.3,34.46-122.72,17.44-151.68-71.93-264.65-143.76-355.44-55.77-70.5-103.94-131.39-87.15-186.74,18.63-61.43,68.09-93.57,107.32-93.57,17.04,0,30.95,5.88,41.36,17.48,17.5,19.52,24.42,55.08,19.49,100.13-16.15,147.4-13.27,356.36,197.24,468.63,66.58,35.5,135.35,52.76,210.26,52.76,93.88,0,178.45-27.26,253.14-51.34,55.12-17.77,102.71-33.1,140.61-33.1,30.31,0,61.82,8.43,87.02,69.62,59.08,143.49,1.85,263.55-37.52,322.34-49.52,73.94-132.94,134.1-185.96,134.1-14.17,0-25.7-4.16-34.28-12.37-60.66-58.07-117.11-94.98-177.65-116.17-52.1-18.23-109.56-26.01-192.1-26.01-89.03,0-181.73,14.42-261,40.6-94.39,31.17-154.85,33.6-171.13,33.6-7.68,0-13.73-.47-17.04-1.32-4.95-1.28-7.6-2.84-7.88-4.67-.71-4.66,12.39-12.79,30.53-24.05Z"/>
      <path class="cls-1" d="m1251.03,1157.48c-28.83,0-60.47,29.15-70.85,55.3-6.87,17.34-1.63,46.99,14.01,79.32,14.75,30.48,34.4,53.89,48.89,58.24,2.21.67,4.43,1,6.61,1,2.42,0,4.83-.41,7.17-1.23,18.72-6.52,18.29-18,17.37-43.16-.57-15.46-1.36-36.64,1.83-65.75,4.29-39.06-1.83-68.83-10.09-78.05-2.65-2.95-6.29-5.69-14.95-5.69Zm22.37,83.44c-3.22,29.31-2.42,50.6-1.85,66.14.93,25.22,1.29,34.65-15.56,40.52-3.92,1.36-8,1.43-12.12.19-13.82-4.16-32.81-27-47.25-56.84-15.32-31.66-20.53-60.51-13.93-77.16,10.06-25.35,40.6-53.6,68.35-53.61,7.6,0,10.71,2.3,12.94,4.79,7.86,8.77,13.62,37.68,9.43,75.96Z"/>
      <path class="cls-1" d="m1901.57,1936.28c5.88,2.37,9.31,4.29,13.64,6.72,1.71.96,3.56,2,5.76,3.18,22.13,11.87,40.69,23.94,53.68,34.92,7.34,6.21,13.36,9.23,18.4,9.23,7.38,0,11.68-6.26,15.13-12.13,13.02-22.16,17.59-39.26,22.92-69.21.65-3.66.78-8.8-2.29-12.46-3.88-4.63-11.57-5.43-22.86-2.31-34.07,9.44-57.04,13.78-86.12,19.29-5.09.96-10.33,1.96-15.83,3.01-5.62,1.08-9.85,5.03-10.29,9.61-.19,2.03.18,7.07,7.85,10.16Zm3.03-16.73c5.5-1.05,10.74-2.05,15.82-3.01,29.15-5.52,52.17-9.88,86.37-19.34,4.24-1.18,7.93-1.77,10.97-1.77,4.05,0,6.96,1.03,8.68,3.08,2.31,2.75,2.15,6.92,1.62,9.92-5.26,29.57-9.77,46.44-22.55,68.18-3.74,6.37-7.29,10.6-12.45,10.6-4.27,0-9.64-2.78-16.4-8.49-13.15-11.12-31.9-23.32-54.22-35.29-2.17-1.17-4.01-2.19-5.71-3.15-4.43-2.49-7.93-4.45-14-6.89-4.04-1.62-6.19-4.17-5.92-6.99.31-3.17,3.58-6.06,7.79-6.86Z"/>
      <path class="cls-1" d="m1408.04,1992.9c4.94,0,11.03-.42,18.6-1.28,3.28-.37,81.28-9.1,164.94-9.1,32.61,0,61.68,1.35,86.39,4.01,123.57,13.28,230.49,72.21,281.65,124.71,9.41,9.66,20.65,14.55,33.42,14.55,28.62,0,63.9-24.92,96.78-68.37,57.59-76.1,75.01-221.77,46.47-279.13-7.57-15.22-18.15-23.27-30.61-23.27-1.04,0-2.08.05-3.15.16-22.59,2.31-53.95,11.5-93.64,23.15-74.33,21.8-176.12,51.66-286.5,53.43-94.31,1.55-202.12-35.79-238.78-53.66-11.98-5.84-19.73-8.44-25.11-8.44-10.94,0-11.41,10.4-12.19,27.62-.62,13.69-1.47,32.43-8.16,53.86-12.13,38.91-25.89,68.42-35.93,89.96-11.14,23.91-17.87,38.34-13.1,45.83,2.63,4.13,8.47,5.97,18.92,5.97Zm-4.37-51.12c10.07-21.59,23.84-51.15,36.01-90.16,6.74-21.63,7.6-40.49,8.22-54.27.76-16.81,1.18-26.08,10.58-26.08,5.05,0,12.81,2.63,24.41,8.28,36.06,17.58,140.72,53.87,233.99,53.87,1.85,0,3.69-.02,5.52-.04,110.6-1.77,212.52-31.67,286.93-53.5,39.62-11.62,70.91-20.8,93.36-23.09,13.33-1.35,24.16,6.15,32.15,22.22,28.33,56.97,10.97,201.75-46.31,277.44-32.58,43.04-67.39,67.73-95.5,67.73-12.31,0-23.17-4.73-32.26-14.07-51.36-52.71-158.66-111.86-282.63-125.19-24.77-2.66-53.9-4.01-86.56-4.01-83.75,0-161.84,8.74-165.12,9.11-7.52.86-13.54,1.27-18.43,1.27-9.71,0-15.29-1.66-17.57-5.23-4.3-6.74,2.29-20.87,13.2-44.28Z"/>
      <path class="cls-1" d="m1287.77,2054.45c4.99,0,11.4-1.27,18.06-3.58,75.26-26.1,162.53-38.79,266.82-38.79,129.89,0,258.6,11.9,404.84,155.69,4.2,4.13,9.72,6.22,16.41,6.22h0c40.9,0,116.47-78.35,138.88-125.59,2.04-4.3,4.26-8.86,6.6-13.67,28.52-58.5,76.24-156.4,27.48-274.82-19.49-47.33-37.68-47.33-53.72-47.33-32.24,0-77.37,14.55-129.65,31.39-77.13,24.87-164.56,53.05-264.11,53.05-85.18,0-154.1-15.65-223.49-50.75-10.74-5.44-21.09-11.37-30.21-16.61-18.27-10.48-32.7-18.76-41.99-18.76-7.24,0-10.83,5.06-10.96,15.46-.02,1.65.24,4.32.6,8.01,9.93,102.01-29.56,197.23-117.39,283.03-15.34,14.98-21.83,25.75-19.29,31.99,1.35,3.31,5.2,5.06,11.12,5.06Zm9.29-35.9c56.49-55.18,93.51-115.06,110.02-177.98,13.28-50.59,9.47-89.67,7.85-106.36-.35-3.64-.61-6.28-.59-7.84.15-12.43,5.41-13.87,9.34-13.87,8.86,0,23.84,8.6,41.19,18.55,9.15,5.25,19.51,11.19,30.29,16.65,69.62,35.22,138.77,50.93,224.21,50.93,99.8,0,187.35-28.23,264.61-53.13,52.14-16.8,97.15-31.31,129.14-31.31,15.54,0,33.16,0,52.23,46.32,48.48,117.75.96,215.25-27.44,273.51-2.35,4.81-4.57,9.37-6.61,13.68-22.24,46.9-97.05,124.67-137.42,124.67-6.25,0-11.39-1.94-15.27-5.76-67.95-66.8-138.27-110.55-214.98-133.75-68.38-20.67-131.84-22.4-190.98-22.4-104.46,0-191.91,12.72-267.34,38.88-6.5,2.25-12.73,3.5-17.54,3.5-3.64,0-8.26-.7-9.62-4.06-1.28-3.14-.53-11.24,18.91-30.23Z"/>
      <path class="cls-1" d="m998.92,0h-3.95c-8.27,28.96-14.06,60.69-17.49,95.53-5.96,60.6-11.22,139.97,1.19,216.49,9.05,55.76,27.2,80.63,58.87,80.63h0c20.22,0,43.72-9.8,70.92-21.15,18.9-7.89,38.45-16.04,59.35-21.95,2.01-.57,3.99-1.12,6.02-1.66,59.5-15.95,126.57-18.2,197.72-6.68,19.1,3.09,38.44,8.44,57.16,13.6,27.28,7.54,55.49,15.33,84.13,16.59,15.53.69,26.59-.89,34.42-4.78,22.86-11.38,11.74-39.82-.03-69.92-6.95-17.81-14.15-36.22-15.33-52.73-6.28-87.69,42.72-167.62,107.47-243.97h-4.95c-64.26,76.23-112.58,156.18-106.27,244.24,1.22,17.09,8.52,35.77,15.58,53.83,11.6,29.7,21.62,55.34,1.85,65.18-7.14,3.56-17.95,5.03-32.57,4.39-28.22-1.24-56.22-8.97-83.3-16.46-18.81-5.19-38.26-10.57-57.56-13.69-71.68-11.6-139.27-9.32-199.29,6.76-2.04.55-4.05,1.1-6.07,1.67-21.12,5.97-40.77,14.17-59.78,22.09-26.83,11.19-50.01,20.86-69.47,20.86-29.46,0-46.47-23.89-55.16-77.47-12.34-76.08-7.11-155.14-1.17-215.51,3.45-35.03,9.31-66.87,17.69-95.9Z"/>
      <path class="cls-1" d="m950.74,1503.91c-3.59-3.25-6.8-4.84-9.82-4.84-7.53,0-12.8,9.56-20.77,24.04-8.25,14.99-19.56,35.52-39.13,56.31l-5.74,6.09c-22.43,23.77-32.66,34.63-30.15,40.45,1.14,2.65,4.61,3.83,11.22,3.83,5.64,0,13.93-.82,27.73-2.76,5.7-.8,11.5-1.21,17.25-1.21,46.61,0,85.46,26.14,113.82,45.22,16.6,11.17,29.72,20,39.12,20,3.95,0,7.17-1.57,9.59-4.68,29.75-38.2-74.32-147.26-113.13-182.45Zm111.01,180.8c-1.91,2.45-4.35,3.64-7.47,3.64-8.58,0-21.39-8.62-37.62-19.54-28.65-19.28-67.89-45.67-115.32-45.67-5.88,0-11.81.41-17.63,1.23-13.67,1.92-21.85,2.73-27.35,2.73-5.18,0-8.12-.75-8.76-2.21-1.81-4.2,10.7-17.46,29.64-37.54l5.74-6.09c19.8-21.03,31.2-41.74,39.52-56.85,7.51-13.63,12.47-22.65,18.41-22.65,2.32,0,4.94,1.35,8.01,4.15,48.2,43.71,139.19,144.93,112.81,178.81Z"/>
      <path class="cls-1" d="m951.49,1548.73c-18.81,0-43.03,29.65-43.16,43.74-.05,5.76,3.53,9.14,9.81,9.25,27.71.5,57,18.06,78.39,30.88,12.67,7.6,21.83,13.09,27.26,13.09h0c1.73,0,3.11-.54,4.1-1.61,1.24-1.34,1.74-3.38,1.52-6.24-1.99-25.83-51.05-77.58-70.96-87.53-2.1-1.05-4.44-1.58-6.95-1.58Zm74.16,89.4c.18,2.27-.26,3.11-.53,3.4-.09.1-.37.4-1.34.4h0c-4.38,0-14.09-5.82-25.32-12.56-21.75-13.04-51.53-30.9-80.25-31.41-4.27-.08-6.15-1.76-6.12-5.46.11-12.56,22.64-40.01,39.4-40.01,1.92,0,3.7.4,5.27,1.19,21.45,10.72,67.09,61.04,68.89,84.45Z"/>
      <path class="cls-1" d="m885,1061.29h0c4.63,0,8.31-6.54,11.91-21.21,13.49-54.85,58.07-127.47,127.25-166.08,70.01-39.08,116.69-49.22,141.76-54.67,12.45-2.71,18.7-4.06,20.2-7.35.58-1.26.39-2.73-.56-4.48-4.82-8.83-91.58-57.36-216.33-67.42l-5.26-.43c-11.24-.93-20.96-1.72-30.28-1.72-32.54,0-58.8,9.11-120.04,60.86-9.67,8.17-19.57,15.76-29.15,23.1-29.63,22.71-55.22,42.32-53.55,64.57,1.29,17.09,18.21,34.06,53.27,53.38,38.82,21.4,62.46,63.83,78.11,91.91,9.92,17.79,16.47,29.54,22.66,29.55Zm-99.99-122.87c-34.06-18.78-51.21-35.82-52.43-52.09-1.61-21.38,23.66-40.75,52.92-63.17,9.59-7.35,19.5-14.95,29.2-23.14,60.85-51.43,86.86-60.48,119-60.48,9.26,0,18.94.8,30.15,1.72l5.26.43c121.88,9.83,210.47,58.2,215.04,66.59.93,1.69.73,2.55.51,3.04-1.17,2.55-7.91,4.01-19.08,6.44-25.16,5.47-71.99,15.64-142.21,54.84-69.6,38.85-114.45,111.92-128.02,167.11-3.31,13.45-6.69,19.98-10.35,19.98h0c-5.25,0-12.31-12.68-21.26-28.72-15.74-28.24-39.52-70.91-78.74-92.53Z"/>
      <path class="cls-1" d="m895.15,1153.55c4.66,0,7.89-5.61,10.16-17.64,13.96-73.98,44.21-178.79,145.3-234.7,31.24-17.28,66.51-30.97,107.85-41.87,8.32-2.19,17.22-8.19,25.82-13.99,11.14-7.5,22.66-15.26,33.3-15.26,1.23,0,2.45.1,3.61.31,5.96,1.06,10.41,4.5,14.72,7.83,4.85,3.75,9.43,7.3,15.74,7.3,2.39,0,4.83-.51,7.46-1.55,4.52-1.78,6.88-5.28,9.15-8.67,3.22-4.79,6.23-9.29,15.36-8.52,9.06.77,13.95,7.68,19.13,15,3.62,5.12,7.36,10.41,12.66,13.36,3.88,2.15,10.87,4.47,17.04,4.47,4.31,0,7.36-1.14,9.07-3.39,1.63-2.14,1.91-5.19.83-9.05-3.52-12.67-30.69-24.5-48.67-32.34-5.31-2.31-9.89-4.31-12.84-5.87-26.77-14.18-53.47-26.19-76.06-36.07-95.24-41.67-182.06-67.09-265.4-77.72-9.38-1.2-17.52-1.78-24.87-1.78-41.03,0-72.85,17.95-136.18,76.84-15.54,14.45-31.53,26.86-46.99,38.86-34.63,26.88-61.98,48.11-61.32,74.83.52,21.08,18.82,43.54,57.61,70.69,62.43,43.7,103.9,110.07,131.34,153.99,16.9,27.05,28.07,44.93,36.19,44.93Zm-166.61-200.23c-38.32-26.83-56.41-48.88-56.92-69.41-.64-25.9,26.43-46.91,60.7-73.51,15.49-12.02,31.51-24.45,47.1-38.95,62.98-58.56,94.54-76.41,135.08-76.41,7.28,0,15.35.58,24.66,1.77,83.19,10.61,169.86,35.99,264.96,77.59,22.56,9.87,49.23,21.87,75.95,36.02,3.01,1.59,7.62,3.6,12.95,5.93,17.7,7.71,44.45,19.36,47.76,31.29.93,3.35.74,5.92-.57,7.65-1.73,2.27-5.19,2.75-7.79,2.75-5.62,0-12.43-2.15-16.25-4.28-4.97-2.76-8.61-7.9-12.13-12.88-5.16-7.3-10.5-14.85-20.31-15.68-10.11-.89-13.51,4.28-16.83,9.22-2.23,3.32-4.34,6.46-8.4,8.06-2.45.97-4.69,1.43-6.88,1.43-5.76,0-10.13-3.38-14.76-6.96-4.46-3.45-9.07-7.01-15.42-8.14-1.26-.23-2.57-.34-3.89-.34-11.13,0-22.86,7.9-34.2,15.54-8.89,5.99-17.28,11.64-25.33,13.76-41.46,10.93-76.86,24.67-108.22,42.02-101.69,56.24-132.08,161.51-146.1,235.81-2.07,10.98-4.88,16.32-8.58,16.32-7.23,0-18.8-18.53-34.83-44.17-27.51-44.03-69.08-110.56-131.78-154.45Z"/>
      <path class="cls-1" d="m1093.68,1827.86c36.74-4.18,71.38-29.44,88.23-64.34,15.39-31.87,23.72-85.92-24.01-162.47-20.49-32.86-42.85-66.05-64.46-98.14-61.8-91.75-120.17-178.42-144.27-265.37-27.26-98.35-5.37-179.48,68.9-255.32,64.3-65.67,149.3-103.34,233.19-103.34,63.04,0,119.28,22.18,158.36,62.45,42.95,44.26,64.41,108.99,62.06,187.2-.54,18.16-1.41,36.92-2.32,56.78-3.25,70.61-6.93,150.64,4.48,217.23,13.12,76.57,44.22,123.86,95.08,144.59,27.22,11.1,53.04,16.72,76.72,16.72,43.06,0,79.7-18.79,105.97-54.33,44.67-60.45,55.38-163.97,26.63-257.6-61.67-200.88-209.85-320.8-428.95-449.2-166.43-97.52-307.01-127.63-434.13-145.65-9.48-1.34-18.5-2.03-26.82-2.03-53.08,0-78.35,27.03-110.34,61.26-12.29,13.14-24.99,26.73-40.77,40.61-18.16,15.97-33.97,25.69-47.93,34.27-22.39,13.77-41.73,25.65-63.01,57.46-42.25,63.15,14.27,101.89,74.12,142.9,31.62,21.67,64.32,44.09,81.82,70.6,110.07,166.76,65.66,344.64-12.61,455.51-22.37,31.7-55.05,61.62-89.64,93.3-42.3,38.74-86.04,78.8-111.06,123.53-10.76,19.25-13.82,32.31-9.35,39.94,3.27,5.58,10.51,8.29,22.11,8.29h.02c20.64,0,53.44-8.55,91.41-18.46,53.26-13.89,119.54-31.17,178.09-31.17,31.03,0,57.63,4.94,79.05,14.69,21.34,9.71,39.41,23.76,56.87,37.34,28.73,22.34,55.86,43.44,94.2,43.44,4.03,0,8.18-.24,12.33-.71Zm-162.73-81.54c-21.93-9.98-48.01-14.84-79.72-14.84-58.76,0-125.15,17.31-178.5,31.23-37.87,9.88-70.58,18.41-91.01,18.41h-.01c-10.98,0-17.76-2.45-20.72-7.5-4.16-7.09-1.1-19.63,9.37-38.34,24.89-44.5,68.53-84.47,110.74-123.13,34.66-31.74,67.39-61.72,89.86-93.55,45.88-64.99,72.95-139.1,78.3-214.3,6.11-85.99-15.98-167.75-65.67-243.03-17.67-26.78-50.51-49.28-82.25-71.04-59.16-40.55-115.05-78.86-73.69-140.68,21.09-31.52,40.29-43.32,62.52-56.99,14.01-8.61,29.89-18.37,48.15-34.43,15.84-13.93,28.57-27.55,40.88-40.72,31.72-33.94,56.78-60.74,109.16-60.74,8.24,0,17.19.67,26.6,2.01,126.96,17.99,267.35,48.06,433.54,145.44,218.77,128.2,366.71,247.9,428.22,448.28,28.6,93.17,18,196.11-26.39,256.17-25.95,35.12-62.14,53.68-104.67,53.68-23.47,0-49.09-5.58-76.11-16.6-50.3-20.5-81.08-67.4-94.1-143.37-11.38-66.43-7.7-146.37-4.46-216.89.91-19.87,1.78-38.63,2.32-56.81,2.36-78.65-19.27-143.79-62.53-188.37-39.39-40.59-96.04-62.94-159.52-62.94-84.32,0-169.74,37.84-234.35,103.82-39.45,40.29-63.81,81.86-74.48,127.1-9.52,40.39-7.83,82.84,5.18,129.78,24.17,87.2,82.61,173.97,144.49,265.84,21.61,32.08,43.95,65.25,64.43,98.09,47.35,75.92,39.15,129.41,23.93,160.91-16.62,34.42-50.76,59.32-86.97,63.44-4.09.47-8.18.7-12.15.7-37.78,0-64.7-20.93-93.21-43.1-17.54-13.64-35.68-27.75-57.2-37.54Z"/>
      <path class="cls-1" d="m1128.93,1761.22c14.09-10.24,22.34-24.59,24.53-42.64,6.42-52.85-40.45-129.93-82.54-179.87-52.52-62.33-104.63-128.88-130.14-193.25-1.26-3.18-3.18-12.13-5.61-23.47-8.2-38.25-21.93-102.27-41.8-102.27-1.85,0-3.72.56-5.55,1.65-8.26,4.91-10.7,14.54-7.46,29.44,2.65,12.19,8.73,26.26,14.1,38.67,5.68,13.13,10.58,24.48,10.5,30.91-.21,16.58-7.96,23.91-15.45,31-5.84,5.53-11.89,11.24-14.05,21.16-2.8,12.8,2.48,22.4,7.58,31.7,4.71,8.58,9.59,17.46,8.04,28.9-2.85,21-69.36,96.75-128.04,163.58-48.56,55.3-90.5,103.06-89.78,112.21.05.7.31,1.24.77,1.62,4.01,3.33,11.3,4.95,22.31,4.95h0c17.35,0,41.51-3.87,69.47-8.36,33.91-5.44,72.35-11.6,105.7-11.6,26.05,0,45.55,3.71,59.6,11.34,7.66,4.16,16.16,9.1,25.15,14.32,40.08,23.3,89.97,52.28,132.18,52.28,15.67,0,29.28-4.13,40.47-12.27Zm-197.04-55.76c-14.3-7.76-34.05-11.54-60.37-11.54-33.48,0-71.98,6.18-105.96,11.62-27.9,4.48-52,8.34-69.22,8.34h0c-10.61,0-17.57-1.5-21.28-4.58-.04-.04-.17-.14-.19-.51-.66-8.47,43.08-58.28,89.39-111.02,58.83-67,125.51-142.94,128.42-164.42,1.62-11.97-3.38-21.08-8.22-29.89-5.19-9.45-10.09-18.37-7.42-30.58,2.06-9.44,7.66-14.73,13.59-20.34,7.74-7.32,15.74-14.88,15.95-32.15.09-6.78-4.88-18.27-10.63-31.57-5.33-12.34-11.38-26.34-14-38.38-3.08-14.13-.88-23.2,6.71-27.71,1.59-.94,3.18-1.42,4.73-1.42,18.57,0,32.65,65.7,40.22,100.99,2.54,11.86,4.38,20.43,5.69,23.74,25.6,64.57,77.8,131.25,130.41,193.69,41.88,49.69,88.53,126.3,82.17,178.64-2.13,17.58-10.17,31.55-23.88,41.53-10.91,7.94-24.2,11.96-39.52,11.96-41.78,0-91.46-28.86-131.37-52.06-9.01-5.24-17.52-10.18-25.19-14.35Z"/>
      <path class="cls-1" d="m1110.54,1693.77c4.79-44.26-42.63-113.72-66.34-140.42-40.9-46.06-69.41-85.31-88.28-111.29-18.71-25.77-29.02-39.96-35.71-39.96-4.58,0-7.09,5.93-8.65,20.47-11.74,109.42-82.5,168.67-124.78,204.07-18.52,15.51-30.75,25.75-31.26,34.19-.15,2.42.72,4.66,2.57,6.62,3.85,4.11,9.97,6.02,19.24,6.02,10.43,0,23.6-2.42,38.84-5.22,19.79-3.63,42.22-7.75,65.2-7.75,31.25,0,56.48,7.79,77.12,23.82,29.05,22.57,72.09,46.68,105.74,46.68h0c12.13,0,22.54-3.09,30.92-9.18,8.89-6.47,14.06-15.9,15.37-28.05Zm-46.29,35.62h0c-33.24,0-75.91-23.94-104.75-46.34-20.94-16.26-46.49-24.16-78.11-24.16-23.12,0-45.63,4.13-65.49,7.77-15.17,2.78-28.26,5.18-38.55,5.18-8.8,0-14.54-1.75-18.07-5.51-1.56-1.66-2.25-3.43-2.13-5.42.47-7.75,13.14-18.36,30.69-33.05,42.47-35.56,113.54-95.08,125.35-205.14,1.41-13.15,3.58-19.02,7.05-19.02,5.86,0,16.6,14.79,34.4,39.3,18.89,26,47.43,65.3,88.38,111.41,23.56,26.53,70.68,95.46,65.95,139.18-1.26,11.68-6.22,20.74-14.72,26.92-8.1,5.89-18.18,8.87-29.97,8.87Z"/>
      <path class="cls-1" d="m1569.72,1251.58c-5.54,84.05,18.61,141.9,43.05,168.02,11.18,11.95,23.45,18.53,34.55,18.54h0c15.65,0,27.41-12.3,33.11-34.64,36.72-143.88-88.28-295.55-103.63-308.22-4.43-3.65-7.48-4.12-9.47-1.95-3.58,3.91-2.46,16.74-.43,40.04,2.4,27.56,6.04,69.2,2.81,118.21Zm-.4-156.44c.27-.3.56-.43.95-.43.74,0,2.18.46,4.82,2.63,15.21,12.56,139.12,162.89,102.74,305.48-5.37,21.03-16.2,32.62-30.51,32.62h0c-10.34,0-21.92-6.28-32.59-17.69-24.06-25.7-47.81-82.81-42.34-166,3.24-49.22-.4-90.98-2.81-118.62-1.77-20.29-3.05-34.96-.26-37.99Z"/>
      <path class="cls-1" d="m2225.13,306.51c-42.02,0-88.59,7.94-137.9,16.35-58.89,10.05-119.79,20.44-186.16,20.44-4.9,0-9.71-.06-14.29-.17-3.96-.09-7.86-.2-11.7-.3-10.03-.27-19.51-.53-28.64-.53-57.17,0-92.58,11.65-115.92,73.1-14.75,38.85-31.47,82.89-71.59,111.29-11.35,8.03-22.7,14.89-32.72,20.94-23.22,14.03-41.55,25.11-42.24,40.41-.63,14.07,13.6,30.98,46.13,54.86,31.21,22.89,56.88,34.02,78.48,34.02,1.95,0,3.91-.09,5.81-.27,31.38-2.92,52.43-28.85,79.08-61.68,12.12-14.93,25.85-31.84,41.95-47.94,69.79-69.79,155.55-120.7,248.02-147.22,39-11.18,77.54-16.86,114.56-16.86,91.45,0,161.98,33.08,220.33,71.3v-1.93c-58.37-38.11-128.91-70.98-220.33-70.98-37.17,0-75.86,5.69-115,16.92-92.73,26.59-178.74,77.64-248.72,147.63-16.16,16.16-29.91,33.11-42.05,48.07-26.41,32.54-47.28,58.24-77.98,61.09-1.86.17-3.76.26-5.67.26-21.24,0-46.61-11.03-77.53-33.71-32.05-23.52-46.07-40.01-45.47-53.48.65-14.44,18.66-25.32,41.47-39.1,10.04-6.06,21.42-12.94,32.82-21.01,40.52-28.68,57.33-72.96,72.17-112.03,23-60.58,57.96-72.06,114.4-72.06,9.11,0,18.58.26,28.6.53,3.84.1,7.74.21,11.7.3,4.6.11,9.42.17,14.33.17,66.5,0,127.47-10.4,186.43-20.46,49.24-8.4,95.75-16.33,137.63-16.33,24.27,0,45.49,2.69,64.87,8.22,41.66,11.9,84.3,31.41,128.34,54.17v-1.82c-43.85-22.64-86.34-42.04-127.9-53.9-19.53-5.58-40.89-8.29-65.31-8.29Z"/>
      <path class="cls-1" d="m1528.13,1246.73c-6.24,81.54,9.87,147.53,45.34,185.82,18.55,20.03,41.35,31.05,64.18,31.05h0c32.55,0,58.6-22.62,66.35-57.63,22.64-102.3-12.39-194.34-45.76-253.54-39.21-69.57-89.38-118.77-113.53-134.87-8.82-5.88-15.05-9.53-18.83-9.53-1.38,0-2.49.47-3.3,1.39-3.1,3.52-1.84,13.47.69,33.28,4.47,35.07,12.78,100.35,4.86,204.03Zm-4.34-236.24c.51-.58,1.17-.84,2.09-.84,3.36,0,9.6,3.7,17.94,9.26,54.54,36.36,199.46,202.14,158.61,386.72-7.58,34.24-33.01,56.37-64.78,56.37-22.38,0-44.76-10.85-63-30.54-35.16-37.95-51.11-103.51-44.91-184.59,7.94-103.84-.39-169.23-4.87-204.36-2.3-18.11-3.7-29.04-1.08-32.01Z"/>
      <path class="cls-1" d="m1497.2,1252.01c-6.19,101.49,13.23,181.65,54.69,225.73,21.45,22.8,47.47,34.85,75.27,34.85h0c53.19,0,98.26-43.03,112.13-107.09,20.48-94.5,2.87-187.52-52.32-276.47-55.92-90.12-133.32-148.4-174.47-175.12-20.96-13.61-29.94-19.27-33.38-15.14-2.83,3.42-.99,13.19,2.7,32.66,7.98,42.17,24.57,129.92,15.38,280.58Zm-16.84-312.21c.44-.53,1.04-.78,1.91-.78,4.34,0,13.75,6.11,29.35,16.24,137.14,89.02,268.56,253.96,226.11,449.89-13.71,63.3-58.15,105.83-110.56,105.82-27.34,0-52.96-11.88-74.1-34.34-41.16-43.75-60.42-123.49-54.26-224.53,9.21-150.86-7.42-238.74-15.4-280.97-3.36-17.77-5.39-28.5-3.04-31.33Z"/>
      <path class="cls-1" d="m878.75,914.83c15.23,0,26.12-14.66,37.77-36.68,20.38-38.5,62.92-57.11,85.78-67.1,11.57-5.06,15.91-6.96,15.36-10.13-.46-2.66-3.44-3.8-19.26-4.88-47.6-3.23-154.43,42.17-166.74,76.36-2.85,7.92-.74,15.1,6.1,20.76,18.35,15.19,30.61,21.67,40.99,21.67h0Zm-43.55-41.16c11.25-31.24,110.53-74.04,158.13-74.04,1.67,0,3.28.05,4.82.15,9.32.63,13.43,1.3,15.12,1.84-2.02,1.39-7.32,3.71-12.47,5.96-23.28,10.18-66.6,29.14-87.6,68.79-13.21,24.96-22.87,34.68-34.45,34.68-9.43,0-20.97-6.22-38.59-20.81-5.67-4.69-7.29-10.12-4.96-16.59Z"/>
      <path class="cls-1" d="m925.52,912.9c36.61-66.68,103.49-89.96,157.67-102.79,5.2-1.23,5.69-3.9,5.52-5.37-1.27-10.87-52-31.66-127.72-31.66-8.55,0-17.29.27-25.98.8-34.6,2.1-116.19,50.36-145.5,86.07-7.61,9.28-11.07,16.99-10.25,22.94,2.02,14.82,15.23,21.4,30.53,29.02,16.18,8.06,34.52,17.2,43.45,38.49,5.2,12.4,12.03,18.69,20.29,18.69,14.03,0,31.52-18.9,51.99-56.18Zm-69.8,36.45c-9.32-22.22-28.13-31.59-44.73-39.86-14.62-7.28-27.24-13.57-29.07-26.98-.7-5.1,2.65-12.32,9.67-20.87,28.99-35.31,109.5-83.03,143.59-85.09,8.64-.52,17.32-.79,25.82-.79,74.42,0,124.03,20.59,125.05,29.28.16,1.38-2.1,2.13-3.47,2.45-54.72,12.96-122.29,36.5-159.4,104.11-30.85,56.18-54.01,69.78-67.45,37.74Z"/>
      <path class="cls-1" d="m1632.62,1373.75h0c2.83,0,5.32-1.97,7.39-5.86,10.46-19.62,10.27-87.53-17.5-128.87-3.61-5.36-8.84-4.67-12.76,2.1-10.43,17.96-14.81,75.04,13.6,124.83,2.95,5.17,6.07,7.8,9.26,7.8Zm-19.61-130.74c1.39-2.38,2.87-3.81,3.97-3.81.98,0,1.93,1.2,2.41,1.92,26.57,39.56,27.14,106.55,17.3,125.01-1.33,2.49-2.78,3.87-4.07,3.87-1.67,0-3.86-2.16-6-5.91-27.31-47.86-23.38-104.26-13.61-121.07Z"/>
      <path class="cls-1" d="m1982.18,1538.65c3.84,5.53,13.2,7.89,31.31,7.89,11.33,0,24.84-.9,40.48-1.95,19.37-1.29,41.32-2.76,64.03-2.76,71.86,0,120.32,15.27,152.63,48.17,30.04,23.11,46.61,60.78,61.23,94.03,17.77,40.4,33.12,75.3,67,75.3,3.59,0,7.39-.41,11.3-1.21,2.6-.54,5.34-1.24,8.18-2.11v-2.82c-3.04.96-5.97,1.72-8.73,2.29-3.72.77-7.34,1.16-10.75,1.16-32.13,0-47.15-34.15-64.54-73.69-14.75-33.54-31.47-71.55-61.91-94.95-32.72-33.33-81.78-48.85-154.41-48.85-22.79,0-44.79,1.46-64.21,2.76-15.6,1.04-29.07,1.94-40.31,1.94-16.67,0-25.91-2.14-29.1-6.73-1.74-2.51-1.77-5.91-.09-10.41,34.2-91.4,62.82-207.09,60.05-242.73-4.84-62.39-32.27-121.34-58.79-178.35-32.44-69.71-63.08-135.56-43.61-190.47,27.06-76.32,150.67-208.8,217.61-217.94,3.2-.44,6.8-.66,10.7-.66,52.13,0,143.99,37.32,248.09,99.04v-3.11c-103.98-61.47-195.77-98.61-248.09-98.61-4.01,0-7.74.23-11.06.68-67.68,9.23-192.5,142.79-219.78,219.7-19.84,55.95,11.03,122.28,43.71,192.5,26.42,56.79,53.75,115.51,58.55,177.42,2.42,31.21-23.21,143.54-59.89,241.57-2.01,5.38-1.88,9.59.4,12.88Z"/>
      <path class="cls-1" d="m2237.01,2389.26c-3.08,0-8.27.34-14.84.76-11.07.71-26.23,1.69-41.28,1.69-37.34,0-56.9-6.14-58.14-18.25-1.87-18.21,41.42-45.28,70.07-63.2,11.38-7.12,21.21-13.27,25.79-17.28,35.67-31.26,68.61-70.22,97.91-115.78,19.4-30.18,33.68-62.72,48.79-97.16,11.37-25.92,29.47-52.84,53.04-71.44v-2c-24.28,18.8-42.89,46.3-54.52,72.79-15.09,34.39-29.34,66.87-48.67,96.94-29.22,45.44-62.06,84.28-97.62,115.44-4.48,3.93-14.26,10.04-25.58,17.13-30.72,19.21-72.79,45.52-70.82,64.73,1.36,13.25,20.91,19.7,59.75,19.7,15.11,0,30.3-.98,41.39-1.7,6.54-.42,11.71-.75,14.74-.75,56.55,0,106.81,9.06,152.29,27.47h4.35c-46.65-19.52-98.33-29.09-156.64-29.09Z"/>
      <path class="cls-1" d="m1198.52,153.75c7.21,0,15.55-1.08,25.51-3.29,9.91-2.2,19.27-4.28,27.76-5.42,14.38-1.94,28.3-2.74,40.69-3.46,14.11-.81,26.8-4.61,38.78-11.61,50.04-29.25,70.95-89.08,77.61-113.44,1.61-5.86,3.2-11.31,4.77-16.53h-1.68c-1.53,5.1-3.08,10.4-4.64,16.11-6.61,24.18-27.34,83.53-76.87,112.48-11.76,6.87-24.2,10.59-38.15,11.39-12.32.71-26.27,1.52-40.72,3.47-8.55,1.15-17.94,3.24-27.88,5.45-9.85,2.19-18.08,3.25-25.17,3.25-11.88,0-20.16-3.05-25.3-9.33-7.61-9.29-8.7-25.91-3.42-52.31l.87-4.31c7.17-36.33,19.48-64.33,38.9-86.19h-2.12c-19.06,21.91-31.24,49.8-38.35,85.88l-.87,4.31c-5.38,26.91-4.19,43.96,3.75,53.65,5.47,6.67,14.16,9.92,26.55,9.92Z"/>
      <path class="cls-1" d="m2225.13,343.59c-38.87,0-83.93,7.68-131.67,15.82-60.42,10.31-122.89,20.96-192.39,20.97-5.09,0-10.14-.06-15.16-.18l-11.83-.31c-9.76-.26-18.97-.51-27.64-.51-75.29,0-79.02,41.38-82.96,85.2-2.17,24.03-4.4,48.88-17.64,70-4.73,7.54-17.43,17.08-30.87,27.19-28.63,21.51-61.08,45.89-45.51,68.72,6.7,9.82,14.76,14.8,23.98,14.8,5.04,0,10.51-1.5,16.25-4.47,25.4-13.1,52.55-51.89,74.38-83.06,12.39-17.69,23.08-32.97,28.93-36.46,6.13-3.66,12.98-4.16,18.87-4.16,2.28,0,4.58.08,6.88.16,2.35.08,4.71.17,7.06.17,8.85,0,18.2-1.06,26.64-8.74,10.18-9.27,11.46-21.26,12.7-32.87,1.12-10.43,2.17-20.29,9.1-28.58,20.95-25.04,94.46-42.54,143.1-54.12,14.32-3.41,26.68-6.35,35.9-9,42.32-12.14,84.3-18.3,124.78-18.3,89.86,0,161.71,29.45,220.33,64.69v-3.15c-58.67-35.06-130.53-64.22-220.33-64.22-40.73,0-82.96,6.19-125.52,18.4-9.16,2.63-21.5,5.57-35.78,8.97-51.91,12.36-123.01,29.28-144.53,55.01-7.46,8.92-8.61,19.65-9.71,30.02-1.24,11.62-2.41,22.59-11.83,31.16-7.77,7.07-16.53,8.04-24.83,8.04-2.32,0-4.65-.08-6.97-.16-2.34-.08-4.67-.16-6.97-.16-6.26,0-13.56.54-20.24,4.54-6.35,3.79-16.67,18.55-29.75,37.23-20.51,29.3-48.6,69.42-73.41,82.21-15.13,7.79-27.1,4.75-36.79-9.46-14.12-20.71,17.24-44.27,44.91-65.05,14.25-10.7,26.55-19.95,31.54-27.91,13.58-21.66,15.85-46.84,18.04-71.19,4-44.4,7.45-82.75,80.29-82.75,8.63,0,17.83.25,27.56.51l11.84.31c5.04.12,10.12.18,15.23.18,69.73,0,132.32-10.68,192.87-21.01,47.59-8.12,92.54-15.78,131.18-15.78,20.67,0,38.47,2.21,54.4,6.76,43.93,12.55,90.3,34.83,138.81,60.56v-3.04c-48.18-25.52-94.29-47.6-138.08-60.1-16.17-4.62-34.21-6.86-55.13-6.86Z"/>
      <path class="cls-1" d="m1208.89,97.04c4.13,8.02,13.04,12.09,26.49,12.09,3.5,0,7.36-.28,11.46-.84,15.76-2.12,30.45-2.97,43.52-3.73,3.88-.22,7.47-.81,10.99-1.8,3.89-1.1,7.56-2.67,11.19-4.8,29.07-16.98,63.42-67,64.56-97.96h-2.69c-1.19,29.72-35.36,79.36-63.22,95.64-3.44,2.01-6.9,3.49-10.58,4.53-3.32.94-6.72,1.5-10.51,1.71-13.01.75-27.77,1.61-43.63,3.74-18.57,2.5-30.58-.84-35.2-9.82-6.27-12.17,1.19-35.63,19.44-61.23,9.93-13.92,23.35-25.2,41.04-34.57h-5.62c-15.93,9.09-28.26,19.91-37.61,33.02-19.14,26.82-26.48,50.76-19.65,64.02Z"/>
      <path class="cls-1" d="m2063.34,1468.65c10,14.37,31.11,15.99,60.32,18.22,3.17.24,6.43.49,9.79.77,9.24.76,18.91,1.09,29.15,1.44,47.51,1.63,101.36,3.47,149.99,47.75l.59.53c26.97,23.61,43.01,65.21,57.17,101.9,14.26,36.97,26.58,68.9,46.15,68.9.61,0,1.23-.13,1.85-.19v-1.62c-.62.07-1.25.2-1.85.2-18.47,0-30.6-31.45-44.65-67.86-14.22-36.87-30.34-78.66-57.6-102.53l-.58-.52c-49.05-44.68-103.22-46.54-151.01-48.17-10.22-.35-19.87-.68-29.07-1.43-3.36-.27-6.63-.53-9.8-.77-28.78-2.2-49.57-3.79-59.13-17.54-9.05-13.02-7.77-37.39,4.16-79.01,11.04-38.52,15.13-73.71,12.5-107.6-5.36-69.07-34.22-131.1-62.14-191.12-29.15-62.64-56.68-121.81-42.28-162.44,23.98-67.64,139.75-187.05,187.67-193.59,1.07-.14,2.92-.32,5.68-.32,40.04,0,130.63,33.32,248.09,105.26v-1.89c-117.35-71.75-207.94-104.98-248.09-104.98-2.85,0-4.79.18-5.9.33-48.3,6.58-164.86,126.64-188.98,194.64-14.62,41.25,13.05,100.71,42.36,163.69,27.85,59.86,56.64,121.75,61.98,190.53,2.62,33.69-1.45,68.71-12.44,107.04-12.24,42.69-13.41,66.73-3.93,80.37Z"/>
      <path class="cls-1" d="m1083.43,1954.63c79.99-9.11,175.28-104.2,200.84-176.85,44.36-126.15-34.49-227.72-110.74-325.94-73.6-94.81-143.11-184.36-109.31-293.37,29.45-94.99,124.57-146.24,199.12-146.24,40.18,0,74.93,14.25,97.86,40.14,27.23,30.74,37.93,77.43,30.94,135.03-24.02,197.94-31.16,414.46,189.5,478.28,25.33,7.33,50.32,11.04,74.3,11.04,92.9,0,152.2-53.23,185.58-97.87,64.01-85.6,86.24-213.66,55.31-318.64-26.24-89.02-77.86-175.35-157.81-263.92-118.84-131.66-280.68-244.85-494.77-346.07l-9.26-4.38c-90.07-42.6-183.2-86.66-281.26-110.95-5.82-1.44-12.25-3.15-19.12-4.97-30.29-8.05-68-18.06-100.34-18.06-12.95,0-24.17,1.67-33.34,4.95-13.96,5-21.82,14.56-29.43,23.8-5.67,6.89-11.54,14.02-19.92,19.13-5.45,3.31-16.05,7.41-27.27,11.74-18.14,7.01-36.89,14.25-42.84,21.22-11.45,13.42-8.3,21.51-5.25,29.32,2.19,5.62,4.26,10.92,1.57,18.8l-2.12,6.23q-16.28,47.89-53.81,58.75c-7.25,2.09-16.27,4.71-26.95,8.11-30.92,9.85-43.6,25-55.86,39.65-9.43,11.27-18.34,21.92-35.12,30.54-.45-.04-.95-.04-1.49-.04-19.37,0-166.07,9.66-177.34,45.73-3.03,9.72,3.56,20.28,19.61,31.38,20.1,13.9,35.33,15.51,45.04,15.51,4.73,0,9.01-.41,13.15-.81,3.54-.34,6.89-.67,10.06-.67,11.8,0,23.75,3.34,40.12,43.7,4.03,9.93,7.13,18.07,9.71,24.82,12.68,33.2,13.1,33.64,45.33,47.4,7.99,3.41,17.93,7.66,30.58,13.49,41.48,19.13,49.98,40.86,60.74,68.37,5.69,14.53,12.13,31.01,24.33,49.53,13.06,19.83,28.39,35.79,43.22,51.22,26.28,27.35,51.1,53.19,59,96.35,13.69,74.74-26.89,146.11-72.77,212.11-22.25,32-67.97,69.25-116.38,108.69-82.21,66.97-175.39,142.89-175.72,213.19-.19,40.14,10.12,70.95,30.64,91.56,22.36,22.46,56.33,33.38,103.87,33.38,68.93,0,153.65-23.25,228.41-43.75,58.85-16.14,109.67-30.08,142.16-30.08,7.34,0,13.57.74,18.51,2.21,31.33,9.32,56.18,29.2,80.21,48.42,31.89,25.51,62,49.6,105.08,49.6,4.4,0,8.92-.26,13.44-.78Zm-197.66-100.86c-5.36-1.59-11.76-2.37-19.58-2.37-33,0-84.05,14-143.16,30.22-74.53,20.44-159,43.61-227.41,43.62-46.49,0-79.59-10.55-101.21-32.27-19.79-19.88-29.73-49.79-29.54-88.89.32-68.54,92.77-143.85,174.34-210.3,48.62-39.61,94.55-77.02,117.1-109.46,46.35-66.67,87.32-138.84,73.38-214.94-8.11-44.26-33.31-70.5-59.99-98.27-14.71-15.31-29.92-31.15-42.79-50.68-11.98-18.19-18.35-34.47-23.97-48.83-11.07-28.3-19.81-50.65-62.67-70.41-12.7-5.86-22.67-10.12-30.68-13.53q-31.06-13.26-43.29-45.29c-2.58-6.76-5.7-14.93-9.74-24.89-15.62-38.52-27.81-46.05-43.6-46.05-3.35,0-6.79.33-10.42.68-4.05.39-8.23.79-12.79.79-9.98,0-23.87-1.69-42.9-14.84-14.54-10.06-20.65-19.2-18.16-27.16,9.79-31.36,146.55-43.09,173.74-43.09.66,0,1.1,0,1.32.04l.43-1.73.83,1.65c17.87-9.03,27.56-20.6,36.92-31.8,12.46-14.89,24.24-28.96,54.12-38.48,10.63-3.39,19.63-5.99,26.85-8.08,39.05-11.29,39.57-11.86,56.33-61.15l2.12-6.22c3.13-9.17.6-15.66-1.63-21.38-2.89-7.4-5.38-13.8,4.61-25.52,5.33-6.24,24.46-13.63,41.33-20.15,11.38-4.4,22.13-8.55,27.87-12.04,8.93-5.43,15-12.81,20.87-19.95,7.62-9.26,14.81-18,27.79-22.65,8.76-3.14,19.55-4.73,32.07-4.73,31.85,0,69.29,9.95,99.37,17.94,6.89,1.83,13.34,3.55,19.18,4.99,97.69,24.2,190.65,68.17,280.56,110.7l9.26,4.38c213.64,100.99,375.09,213.91,493.59,345.19,79.56,88.14,130.91,173.99,156.99,262.46,30.62,103.9,8.63,230.62-54.71,315.32-32.87,43.96-91.23,96.36-182.57,96.36-23.62,0-48.27-3.66-73.25-10.88-217.83-63-210.64-277.81-186.81-474.21,7.12-58.7-3.89-106.41-31.86-137.98-23.65-26.7-59.41-41.4-100.68-41.4-75.89,0-172.73,52.18-202.71,148.89-34.38,110.89,38.99,205.39,109.93,296.79,75.63,97.43,153.84,198.17,110.16,322.39-25.2,71.65-119.02,165.4-197.72,174.36-4.38.5-8.76.75-13.01.75-41.75,0-71.37-23.69-102.73-48.78-24.31-19.45-49.46-39.57-81.49-49.1Z"/>
      <path class="cls-1" d="m1175.95,195.62c18.29,0,38.46-4.48,56.25-8.43,9.12-2.02,17.73-3.94,24.62-4.87,12.99-1.75,25.62-2.48,37.82-3.18,25.42-1.46,49.43-2.84,68.49-13.68,15.36-8.74,26.56-23.13,34.23-44,13.81-37.52,30.82-79.67,54.99-121.46h-1.86c-23.97,41.62-40.9,83.55-54.64,120.9-7.54,20.5-18.51,34.61-33.51,43.15-18.74,10.65-42.56,12.02-67.79,13.47-12.24.71-24.89,1.43-37.95,3.2-6.95.94-15.6,2.86-24.75,4.89-17.72,3.93-37.79,8.39-55.91,8.39s-30.35-4.32-38.48-13.21c-19.76-21.66-9.86-71.11-4.54-97.68l.84-4.21c6.04-30.62,15.74-56.69,29.43-78.91h-1.9c-13.51,22.19-23.11,48.16-29.12,78.6l-.84,4.2c-5.37,26.85-15.38,76.82,4.93,99.08,8.46,9.25,21.43,13.74,39.67,13.74Z"/>
      <path class="cls-1" d="m1591.98,0h-3.71c-6.68,7.1-12.39,13.62-16.73,19.52-59.26,80.57-85.54,154.94-80.36,227.37,2.02,28.18-1.44,46.83-10.57,57.01-5.81,6.49-14.12,9.64-25.37,9.64-15.63,0-34.91-5.96-55.3-12.27-18.52-5.73-37.67-11.65-55.75-13.63-13.58-1.48-27.2-2.2-41.63-2.2-45.54,0-88.81,7.25-134.62,14.93-7.7,1.29-15.42,2.58-23.19,3.85l-.59.09c-16.07,2.61-34.29,5.58-52.03,5.58-33.53,0-54.99-11.12-65.61-34.01-22.18-47.79-15.98-105.32-10.51-156.07.74-6.84,1.47-13.61,2.13-20.27,3.65-37.09,10.06-70.07,19.51-99.53h-2.85c-9.35,29.42-15.7,62.33-19.34,99.27-.65,6.65-1.38,13.41-2.12,20.25-5.51,51.1-11.75,109.03,10.74,157.49,11.11,23.93,33.37,35.56,68.05,35.56,17.96,0,36.29-2.98,52.46-5.61l.59-.1c7.78-1.26,15.51-2.56,23.21-3.85,45.7-7.66,88.86-14.89,134.18-14.89,14.33,0,27.85.72,41.33,2.19,17.82,1.95,36.85,7.83,55.25,13.52,20.6,6.37,40.05,12.39,56.1,12.39,12.06,0,21.01-3.45,27.37-10.53,9.64-10.75,13.32-30.05,11.24-58.99-5.13-71.76,20.98-145.55,79.85-225.58,4.63-6.3,10.93-13.37,18.28-21.11Z"/>
      <path class="cls-1" d="m1574.49,407.37c-18.22,12.87-43.17,19.12-76.26,19.12-38.88,0-82.36-8.71-120.72-16.39-22.61-4.53-43.97-8.81-61.41-10.66-8.55-.91-31.48-3.03-59.74-3.03-52.36,0-119.5,7.1-142.06,40.89-9.81,14.69-10.21,33.16-1.19,54.88,4.24,10.2,15.19,15.74,25.78,21.1,8.38,4.24,17.05,8.63,21.85,15.16,5.7,7.75,9.07,18.62,12.32,29.12,4.33,13.99,8.81,28.45,18.98,37,12.61,10.6,26.46,15.53,43.57,15.53,11.87,0,24.02-2.4,35.76-4.72,11.6-2.29,23.6-4.67,35.18-4.67s20.8,2.2,29.59,6.74c21.36,11.01,30.35,25.83,39.04,40.16,11.33,18.69,22.03,36.35,57.3,44.6,73.8,17.27,94.03,35.31,142.9,78.91,6.3,5.62,13.07,11.66,20.49,18.17,17.59,15.44,30.58,33.06,43.14,50.1,11.2,15.21,22.79,30.93,37.7,45.28,18.35,17.66,35.62,25.52,52.33,33.12,22.27,10.13,43.3,19.69,62.38,52.46l2.98,5.14c24,41.51,48.27,79.93,63.19,79.93,2.39,0,4.47-.94,6.16-2.79,5.38-5.89,6.83-21.53,4.45-47.83-1.4-15.41-12.53-29.18-23.3-42.5-11.61-14.36-22.58-27.93-21.93-42.92.79-17.97,11.66-26.82,23.16-36.18,8.42-6.85,17.13-13.94,22.23-24.92,12.25-26.37,15.22-49.98,18.08-72.82,3.99-31.79,7.76-61.81,36.22-95.78,50.92-60.78,122.34-106.69,201.11-129.28,26.24-7.53,50.52-11.18,74.24-11.18,80.48,0,138.23,43.78,199.36,90.12,6.92,5.25,13.91,10.53,20.97,15.79v-4.7c-6.28-4.7-12.52-9.41-18.7-14.09-61.65-46.74-119.89-90.89-201.63-90.89-24.07,0-48.69,3.71-75.28,11.33-79.48,22.8-151.56,69.13-202.96,130.48-29.16,34.81-33,65.37-37.06,97.72-2.83,22.55-5.76,45.87-17.77,71.7-4.73,10.19-13.1,17-21.19,23.58-11.65,9.48-23.68,19.27-24.55,38.94-.72,16.41,11.22,31.17,22.76,45.45,10.42,12.88,21.19,26.21,22.48,40.48,2.8,30.93-.35,41.52-3.48,44.95-.98,1.07-2.05,1.57-3.38,1.57-14.8,0-46.43-54.69-59.93-78.05l-2.99-5.15c-19.69-33.8-41.25-43.6-64.08-53.99-16.42-7.47-33.4-15.19-51.28-32.4-14.68-14.13-26.18-29.73-37.29-44.8-12.68-17.2-25.79-34.99-43.69-50.7-7.4-6.5-14.16-12.53-20.46-18.15-49.37-44.04-69.81-62.27-144.54-79.76-33.73-7.9-44.04-24.89-54.95-42.89-8.96-14.78-18.23-30.06-40.54-41.56-9.34-4.82-19.59-7.15-31.32-7.15s-24.14,2.41-35.91,4.74c-11.57,2.29-23.52,4.65-35.03,4.65-16.17,0-29.25-4.66-41.15-14.65-9.32-7.83-13.63-21.76-17.8-35.23-3.35-10.8-6.8-21.98-12.88-30.24-5.33-7.26-14.41-11.85-23.18-16.29-10.44-5.28-20.3-10.27-24.01-19.19-8.51-20.49-8.22-37.77.85-51.35,21.64-32.41,87.5-39.22,138.93-39.22,28.08,0,50.85,2.1,59.34,3.01,17.27,1.84,38.55,6.1,61.07,10.61,38.54,7.72,82.21,16.47,121.46,16.46,33.89,0,59.55-6.48,78.43-19.81,47.03-33.25,33.54-83.4,20.49-131.9-13.93-51.8-28.34-105.37,29.59-140.33,6.94-4.19,16.23-6.32,27.59-6.32,34.64,0,83.44,18.94,130.63,37.25,41.1,15.95,79.92,31.01,105.17,31.61,3.64.08,7.26.13,10.9.13h.04c54.28,0,109.16-9.36,162.22-18.41,52.97-9.03,107.75-18.38,161.84-18.38,37.84,0,71.99,4.5,104.42,13.76,29.98,8.56,59.57,19.86,88.79,32.79v-4.1c-28.86-12.72-58.11-23.84-87.76-32.31-32.76-9.36-67.26-13.9-105.45-13.9-54.4,0-109.34,9.37-162.47,18.43-52.92,9.02-107.63,18.36-161.59,18.36-3.68.12-7.23-.04-10.85-.13-24.59-.58-63.11-15.53-103.9-31.35-47.52-18.44-96.64-37.5-131.99-37.5-12.23,0-21.89,2.24-29.53,6.85-60.36,36.42-45.57,91.38-31.28,144.53,13.29,49.43,25.85,96.11-19.04,127.85Z"/>
      <path class="cls-1" d="m1117.43,270.11c11.5,0,24.84-1.41,44.61-4.73,50.15-8.41,99.92-12.32,156.65-12.32,14.24,0,28.88.24,44.75.73,5.52.17,10.33.25,14.69.25,26.26,0,41.59-3.19,52.89-11,13.51-9.34,21.54-25.71,26.83-54.74,12.14-66.64,38.87-126.52,84.04-188.3h-1.99c-44.89,61.65-71.52,121.47-83.64,188.01-5.21,28.57-13.04,44.63-26.16,53.7-11.01,7.61-26.07,10.71-51.98,10.71-4.35,0-9.14-.08-14.64-.25-15.88-.49-30.53-.73-44.8-.73-56.82,0-106.68,3.92-156.92,12.35-19.68,3.3-32.94,4.71-44.34,4.71-32.4,0-55.64-10.85-63.72-63.83-7.73-50.65-.87-104.26,6.24-140.33,4.59-23.28,10.94-44.63,18.93-64.35h-1.69c-7.94,19.59-14.24,40.82-18.82,64.03-7.14,36.19-14.03,90-6.26,140.88,7.07,46.31,25.99,65.2,65.32,65.2Z"/>
      <path class="cls-1" d="m1139.59,229.73h0c5.04,0,10.5-.49,16.22-1.45,42.7-7.16,88.42-11.38,135.88-12.54,11.06-.28,21.7,0,31.85.27,6.82.18,13.26.34,19.54.34,19.32,0,39.33-1.49,54.79-12.33,12.82-8.99,21.94-23.89,27.88-45.57,16.15-58.84,39.35-110.92,70.49-158.46h-1.91c-30.94,47.44-54.03,99.39-70.13,158.03-5.85,21.3-14.76,35.92-27.25,44.68-15.09,10.58-34.81,12.04-53.86,12.04-6.26,0-12.69-.17-19.5-.34-10.17-.26-20.82-.54-31.93-.27-47.53,1.16-93.32,5.38-136.1,12.56-24.56,4.12-42.83-.81-54.22-14.67-25.94-31.56-11.98-102.36-4.47-140.4,5.25-26.58,13.07-50.34,23.44-71.63h-1.82c-10.25,21.23-17.99,44.9-23.2,71.32-7.56,38.3-21.62,109.59,4.8,141.73,9.1,11.07,22.39,16.68,39.51,16.68Z"/>
    </g>
  </g>
</svg>