<?xml version="1.0" encoding="UTF-8"?>
<svg id="Camada_2" data-name="Camada 2" xmlns="http://www.w3.org/2000/svg" viewBox="0 0 170.44 169.76">
  <defs>
    <style>
      .cls-1 {
        stroke-width: 0px;
      }
    </style>
  </defs>
  <g id="Camada_1-2" data-name="Camada 1">
    <g>
      <g>
        <path class="cls-1" d="m1.62,84.58l1.13-2.38-.71-1.43h1.73s-.28,1.39-.28,1.39l3.48.02c.56,0,.94-.03,1.14-.09.26-.08.56-.27.91-.54.57-.44.98-.66,1.22-.66s.48.12.7.35c.22.23.57.86,1.03,1.87-.12.34-.22.67-.28.98-.06.31-.09.61-.09.89,0,.68.11,1.46.35,2.34l-.26.11-2.11-1.83-1.31,1.81-5.55-.03c-.21-1.01-.58-1.95-1.11-2.79Zm1.85-.86l-.73,2.09,5.03.03.83-1.13-1.14-.97-3.98-.02Zm7.11,2.34c-.1-.67-.16-1.2-.15-1.61,0-.37.05-.74.15-1.11.1-.38.25-.76.45-1.14l-.2-.32c-.65.69-1.17,1.15-1.57,1.4-.4.24-.83.4-1.3.46l2.62,2.32Z"/>
        <path class="cls-1" d="m2.64,74l.13-.26c.4.32.71.53.93.62.22.1.52.17.91.2l3.25.33c.54.05.88.05,1.02-.01s.22-.15.23-.25c0-.06,0-.11-.03-.18-.02-.04-.1-.16-.23-.35l.25-.16,1.24,1.77c-.35.36-.65.6-.9.7-.25.11-.6.15-1.03.12l1.59,2.5c-.8.8-1.55,1.16-2.24,1.09-.46-.05-.89-.19-1.28-.42-.51-.31-1.09-.8-1.74-1.49l-2.06.72-.19-.13c.04-.2.06-.34.07-.44.06-.6-.12-1.15-.55-1.66.25-.35.47-.74.65-1.16.18-.43.28-.75.3-.99.01-.11,0-.19-.03-.25-.03-.06-.13-.17-.3-.32Zm1.25,2.06l-1.07,2.53,2.06-.73.96-1.6-1.95-.2Zm2.27.23l-1.06,1.76c.59.35,1.12.55,1.59.59.83.08,1.54-.22,2.15-.91l-.81-1.25-1.88-.19Z"/>
        <path class="cls-1" d="m.41,68.39h.21c.16.42.33.72.53.88.2.17.55.3,1.06.4l2.65.51-1.39-2.75c.39-.38.75-.63,1.07-.73.32-.1.74-.1,1.25,0l4.54.88c.12.66.26,1.22.42,1.67.13.35.29.68.49,1.01-.43.36-.79.73-1.06,1.12s-.58.98-.93,1.78l-.13-.03c-.11-.24-.26-.41-.45-.51-.28-.14-.96-.32-2.03-.53l-4.36-.85c-.57-.11-.99-.13-1.26-.07s-.56.24-.84.52l-.16-.17c.24-.35.42-.59.53-.71.12-.12.26-.24.42-.34-.27-.59-.44-1-.49-1.24-.06-.24-.08-.52-.06-.86Zm8.54,2.59l1.16-1.81-4.24-.82c-.39-.08-.67-.09-.83-.05-.16.04-.36.18-.6.42l.77,1.54,3.74.73Z"/>
        <path class="cls-1" d="m5.25,60.51l1.66-.74.68,1.4-1.45.6.46.92,4.29,1.22.84-.67-.38-.93.28-.1.98,2.32c-.47.3-.83.56-1.06.79-.23.23-.44.49-.62.79l-.16-.04c-.09-.26-.2-.44-.34-.56-.14-.11-.42-.23-.86-.35l-3.01-.85c-.38-.11-.64-.14-.79-.09s-.24.12-.27.23c-.03.11.02.29.17.54l-.26.12-.9-1.92c.44-.33.8-.54,1.08-.62.18-.06.39-.05.65.03l-.97-2.07Z"/>
        <path class="cls-1" d="m4.19,55.48l.33-.92,1.2,1.55-.1.29-1.43-.93Zm2.27,1.43l1.52-.9.35.77,3.93,1.41c.42.15.7.21.85.19.15-.02.24-.07.26-.15.02-.05.02-.1.02-.16-.01-.07-.06-.23-.15-.48l.29-.1.7,2c-.41.29-.76.45-1.04.47-.28.02-.73-.07-1.33-.29l-4.03-1.44-.75.34-.61-1.66Z"/>
        <path class="cls-1" d="m8.93,50.74l3.18-.97.83,4.11,1.28.56,1.36-1.35-.27-1.43.28-.06.6,2.97c-.45.36-.8.66-1.04.91-.24.25-.54.63-.9,1.13l-.18-.08c-.02-.2-.09-.36-.21-.47-.12-.11-.4-.27-.86-.47l-4.02-1.75c.03-.51.05-.94.04-1.29,0-.25-.04-.86-.1-1.81Zm.34,1.42v.12s3.2,1.39,3.2,1.39l-.49-2.42-2.71.91Z"/>
        <path class="cls-1" d="m9.33,43.56l.18.09c0,.46.1.83.29,1.11.19.29.56.57,1.11.86l6.05,3.14.98-.47-.09-.43.33-.04.33,1.9c-.57.23-.97.41-1.19.55-.22.14-.47.36-.74.64l-.15-.08c-.01-.17-.06-.32-.14-.45s-.19-.25-.34-.36c-.05-.04-.32-.19-.81-.44l-4.86-2.52c-.41-.21-.71-.35-.89-.4-.18-.05-.36-.07-.56-.05s-.44.09-.74.23l-.08-.18c.33-.35.77-.6,1.3-.74-.18-.53-.27-.96-.26-1.3.01-.34.1-.7.27-1.06Z"/>
        <path class="cls-1" d="m15.28,40.61l-1.02-3.24.12-.19,1.72,1.23.85-1.28.72.47-.85,1.28,4.31,2.86,1-.36-.05-.62.3-.03.19,2.16c-.81.15-1.5.47-2.08.96l-.13-.09c0-.25-.05-.44-.13-.58-.11-.18-.31-.36-.61-.56l-3.67-2.43-.4.6-.28-.19Z"/>
        <path class="cls-1" d="m17.02,31.82l.19.05c-.04.43,0,.78.13,1.05s.42.58.88.93l1.98,1.53-.04-3.03c.57-.2,1.02-.26,1.35-.2.33.07.79.32,1.37.77l2.75,2.13c.53.41.87.76,1.03,1.06.26.48.38,1.09.37,1.83-.02.97-.22,2.06-.62,3.27l-.3-.09c.28-1.02.4-1.78.38-2.29-.03-.51-.15-.92-.38-1.24-.17-.24-.72-.72-1.65-1.45l-2.54-1.97c-.28-.22-.5-.34-.65-.37-.22-.03-.48,0-.8.12l.04,1.69,3.37,2.62.77-.09.04,1.74-1.71.41-.11-.85-5.51-4.27c-.5-.39-.88-.61-1.13-.67-.25-.06-.56-.01-.91.13l-.1-.18c.23-.17.43-.28.6-.36.18-.07.44-.14.79-.2-.04-.43-.03-.8.04-1.11.07-.31.19-.63.38-.96Z"/>
        <path class="cls-1" d="m24.27,27.64l3.32.12-.56,4.16,1.03.95,1.72-.83.21-1.44.28.03-.4,3c-.54.19-.97.37-1.28.53-.31.16-.71.42-1.22.78l-.14-.13c.04-.2.03-.37-.04-.51s-.29-.39-.66-.73l-3.23-2.97c.2-.47.35-.87.46-1.2.08-.24.24-.82.5-1.74Zm-.14,1.45l-.03.12,2.56,2.36.33-2.44-2.86-.03Z"/>
        <path class="cls-1" d="m31.45,22.27l3.87,4.23c-.36.75-.59,1.31-.71,1.69-.09.29-.15.59-.18.92-.85.17-1.51.35-1.99.55-.36.15-.72.38-1.08.67l-.16-.06c.03-.25.02-.44-.03-.58-.06-.18-.24-.42-.52-.72l-2.84-3.11c.48-.86.78-1.73.88-2.6.86-.14,1.78-.47,2.76-1Zm.74,6.09l2.03-.75-3.29-3.59c-.66.21-1.12.37-1.38.47-.18.07-.38.18-.61.33l3.24,3.54Z"/>
        <path class="cls-1" d="m32.6,21.34l.57-1.92c.5-.02.88.02,1.14.13.26.11.52.34.78.68l.49-2.65c.83-.02,1.44.04,1.83.18.25.09.51.32.78.67l2.6,3.42c-.35.65-.62,1.53-.81,2.66-.36.03-.84.11-1.44.25l.33.43c.39.51.71.83.98.98.27.14.6.2.99.16l.04.23c-.57.18-1.02.28-1.35.31-.24.01-.49-.02-.75-.11-.09.48-.24.87-.43,1.16l-.18-.06c.05-.3.04-.57-.02-.8-.06-.23-.21-.5-.45-.82l-.68-.89c-.26.13-.52.29-.76.47-.02.02-.05.04-.09.08l-.39-.51c.24-.29.47-.54.7-.75l-2.31-3.04c-.25-.33-.47-.52-.66-.58-.19-.06-.33-.05-.43.02-.07.06-.13.18-.17.38l-.31-.09Zm2.72-.79l2.4,3.15c.55-.27.93-.44,1.14-.52.21-.08.47-.16.79-.23l-2.61-3.42c-.14-.19-.23-.29-.27-.32-.04-.02-.15-.04-.32-.05-.39-.02-.69-.03-.88-.02l-.24,1.4Z"/>
        <path class="cls-1" d="m39.3,11.67l.16.12c-.19.39-.26.74-.24,1.03.03.3.2.69.5,1.18l1.33,2.12,1.01-2.86c.6,0,1.05.1,1.34.28s.63.57,1.02,1.19l1.85,2.94c.35.56.55,1.01.6,1.35.08.54-.01,1.16-.28,1.84-.35.91-.92,1.86-1.71,2.86l-.25-.19c.61-.86.99-1.53,1.14-2.02.15-.48.17-.92.07-1.3-.07-.28-.43-.93-1.05-1.93l-1.71-2.72c-.19-.3-.35-.49-.49-.57-.19-.1-.46-.16-.8-.16l-.55,1.6,2.27,3.62.75.17-.55,1.65-1.74-.2.19-.83-3.71-5.91c-.34-.54-.61-.87-.83-1.01-.22-.14-.52-.2-.9-.19l-.03-.21c.27-.08.5-.12.69-.13.19,0,.46.02.81.08.11-.42.25-.76.42-1.03.17-.27.4-.52.69-.77Z"/>
        <path class="cls-1" d="m45.14,8.54l.86-.46-.16,1.96-.27.14-.43-1.65Zm.72,2.59l1.73.36-.26.8,1.95,3.69c.21.39.37.62.5.71.13.08.22.11.29.07.05-.03.09-.06.12-.11.04-.06.11-.22.21-.46l.28.12-.83,1.95c-.5-.07-.86-.18-1.09-.36-.22-.17-.49-.54-.79-1.11l-2-3.78-.78-.25.67-1.63Z"/>
        <path class="cls-1" d="m50.57,5.7l.08.18c-.28.36-.43.71-.46,1.06s.09.8.35,1.36l2.85,6.19,1.07.23.19-.39.29.17-.91,1.7c-.59-.17-1.02-.27-1.28-.3-.27-.03-.59,0-.98.05l-.07-.15c.09-.14.15-.29.16-.44.02-.15,0-.32-.04-.5-.02-.06-.14-.34-.36-.84l-2.29-4.97c-.19-.42-.35-.71-.45-.86-.11-.15-.25-.28-.41-.38-.17-.11-.41-.2-.73-.28l.05-.19c.48-.07.97,0,1.48.21.18-.53.38-.92.6-1.19.22-.26.51-.49.87-.67Z"/>
        <path class="cls-1" d="m58.71,6.73l2.02,5.37c-.61.56-1.04,1-1.29,1.3-.19.23-.36.49-.51.78-.85-.16-1.54-.24-2.05-.23-.39,0-.81.08-1.25.22l-.12-.12c.12-.22.19-.4.19-.55,0-.19-.06-.48-.21-.86l-1.48-3.94c.77-.62,1.36-1.32,1.79-2.08.85.19,1.83.22,2.93.09Zm-1.58,5.93l2.16.06-1.71-4.56c-.69-.05-1.18-.08-1.45-.07-.2,0-.42.03-.69.08l1.69,4.49Z"/>
        <path class="cls-1" d="m63.12,8.01l2.56-.72.27.95-2.56.72-.27-.95Z"/>
        <path class="cls-1" d="m65.95.76l5.8,2.53c.04-.2.11-.36.19-.47.08-.11.21-.23.39-.36l.06.31c-.07.16-.12.29-.12.41,0,.12.02.34.08.69l.98,5.07c-.59.36-1.03.66-1.3.9-.28.24-.57.54-.87.91-.67-.27-1.25-.45-1.74-.54-.49-.09-1.01-.11-1.55-.08l-.03-.14c.15-.19.24-.37.26-.54.02-.17-.01-.5-.11-1l-.76-3.95c.65-.32,1.1-.63,1.33-.93l-2.26-.98-.36-1.84Zm4.95,3.82l-1.76-.76c-.12.14-.24.26-.37.38l.9,4.66,2.15.5-.92-4.77Z"/>
        <path class="cls-1" d="m77.29,1.61l2.42,2.28-3.16,2.76.15,1.39,1.84.51,1.11-.94.19.21-2.28,1.98c-.53-.22-.97-.37-1.31-.45-.34-.08-.81-.15-1.43-.22l-.02-.19c.16-.12.27-.26.31-.41.04-.16.04-.48-.02-.98l-.46-4.36c.46-.22.84-.42,1.14-.6.22-.13.73-.46,1.52-.98Zm-1.07,1l-.1.07.37,3.46,1.86-1.62-2.12-1.91Z"/>
        <path class="cls-1" d="m84.66,4.08l1.8.89.06,3.23c-.43.05-.82.16-1.16.34-.34.18-.73.47-1.17.88-.38-.22-.71-.37-.99-.45-.28-.08-.58-.12-.89-.11-.48,0-.91.16-1.27.46-.14.11-.24.17-.3.17-.06,0-.11-.03-.17-.08-.06-.05-.09-.11-.09-.17,0-.06.05-.14.16-.25.06-.06.16-.18.31-.36l.68-.88.96-1.33-1.7-.87-.05-2.86c.53-.17.94-.36,1.23-.57.29-.21.58-.49.85-.85.66.26,1.19.45,1.59.55.29.07.56.1.82.1.29,0,.51-.07.67-.2.16-.13.23-.26.23-.4,0-.09-.05-.18-.16-.27-.2-.17-.31-.35-.31-.52,0-.16.04-.29.12-.38.08-.1.18-.14.29-.15.14,0,.27.06.39.19.12.13.18.3.18.51,0,.22-.04.44-.13.65-.09.21-.26.49-.51.82l-1.44,1.91Zm-.9,1.25l-1.8,2.51c.22-.08.43-.14.62-.18.19-.04.37-.06.53-.06.59-.01,1.2.17,1.84.55l-.04-2.22-1.15-.59Zm-1.33-.67l1.06.52,1.63-2.26c-.34.1-.64.16-.89.16-.63.01-1.24-.18-1.84-.59l.04,2.16Z"/>
        <path class="cls-1" d="m91.52,1.47l1.99,2.66-3.59,2.17-.09,1.39,1.73.82,1.25-.74.15.24-2.59,1.57c-.49-.3-.89-.53-1.21-.67-.32-.14-.78-.29-1.37-.46v-.19c.19-.09.32-.21.38-.36s.12-.47.15-.97l.29-4.38c.49-.14.9-.27,1.22-.39.24-.09.79-.33,1.67-.71Zm-1.22.8l-.11.05-.23,3.47,2.11-1.28-1.77-2.24Z"/>
        <path class="cls-1" d="m99.61,2.48l.86,1.3.85-.59.18.24c-.41.27-.66.48-.77.63-.14.21-.24.51-.3.9l-.57,3.61c-.05.33-.04.59.04.77.05.12.12.18.2.19.07.01.25-.06.55-.22l.15.26-1.84,1.08c-.37-.38-.6-.7-.68-.97-.08-.26-.08-.66,0-1.21l.66-4.14-.56-.81-1.46.83-.67,4.2.48.63-1.51.87-1.17-1.3.65-.45.61-3.86c.09-.55.09-.93,0-1.14-.06-.14-.13-.22-.23-.24-.1-.02-.27.06-.5.22l-.15-.26,1.82-1.08c.39.4.63.71.71.92.08.21.1.49.04.83l-.04.27,2.62-1.5Z"/>
        <path class="cls-1" d="m104.79,5.48l2.74-1.22c.4.53.64.95.72,1.28.08.33.06.72-.06,1.18l-1.15,4.45c-.45,0-.89.04-1.3.13s-.92.27-1.49.54c-.43-.57-.85-.99-1.26-1.29-.41-.29-.9-.52-1.46-.68l.05-.19c.22-.07.38-.17.48-.3.11-.13.21-.41.32-.83l.86-3.32c.04-.17.06-.31.05-.42,0-.11-.06-.29-.17-.54-.1-.25-.16-.47-.18-.65-.02-.19,0-.38.05-.6.1-.39.31-.71.62-.95.31-.24.84-.46,1.59-.65l.1.24c-.61.24-.95.53-1.04.86-.03.12-.03.24,0,.34.03.13.13.36.3.68.17.32.28.63.32.94.03.24,0,.56-.09.97Zm-.1.4l-.93,3.6,1.73,1.39,1.07-4.15c.09-.36.12-.64.07-.84-.04-.2-.19-.43-.44-.69l-1.51.69Z"/>
        <path class="cls-1" d="m115.42,8.04l-1.93,5.4c-.83.04-1.44.09-1.83.16-.3.05-.6.14-.89.27-.55-.67-1.02-1.17-1.42-1.5-.3-.25-.67-.46-1.1-.64l-.02-.17c.24-.09.4-.19.5-.3.12-.14.26-.4.4-.79l1.42-3.96c.99.02,1.89-.12,2.71-.43.52.7,1.25,1.35,2.18,1.97Zm-5.04,3.5l1.61,1.45,1.64-4.59c-.49-.49-.85-.82-1.06-1-.15-.12-.34-.25-.57-.38l-1.61,4.52Z"/>
        <path class="cls-1" d="m121.69,6.47l-.08.18c-.45.03-.82.15-1.09.36-.28.21-.54.6-.79,1.17l-2.75,6.24.54.95.42-.12.06.33-1.88.45c-.26-.56-.47-.94-.63-1.16-.16-.21-.39-.45-.69-.7l.07-.15c.16-.02.31-.08.44-.17.12-.09.24-.21.34-.36.03-.05.16-.33.39-.83l2.21-5.01c.19-.42.3-.73.34-.91s.04-.37.01-.56c-.03-.2-.12-.44-.27-.73l.17-.09c.37.31.65.73.82,1.25.51-.21.94-.33,1.28-.34.34,0,.7.06,1.08.21Z"/>
        <path class="cls-1" d="m122.82,12.25l2.95-.55c.27.61.4,1.08.4,1.42,0,.34-.11.72-.34,1.14l-2.16,4.06c-.44-.11-.87-.17-1.3-.17-.43,0-.95.05-1.58.17-.29-.65-.6-1.16-.93-1.54s-.75-.71-1.26-1l.09-.17c.23-.01.41-.07.54-.18.13-.11.3-.35.51-.73l1.61-3.03c.08-.16.13-.29.15-.4.02-.11,0-.29-.04-.56-.04-.27-.05-.5-.03-.68.03-.18.09-.37.19-.57.19-.36.46-.62.83-.78.36-.16.93-.25,1.7-.26l.04.26c-.65.09-1.05.29-1.21.6-.06.11-.09.22-.09.33,0,.14.04.38.13.73.09.35.12.68.1.99-.03.24-.13.54-.32.93Zm-.2.37l-1.74,3.29,1.36,1.76,2.01-3.79c.18-.33.26-.6.27-.8,0-.2-.09-.46-.27-.77l-1.63.32Z"/>
        <path class="cls-1" d="m129.66,14l.55,1.68-.83.17-2.22,3.53c-.23.37-.36.63-.36.79,0,.15.02.25.09.29.05.03.1.05.15.05.07,0,.24-.01.5-.05l.03.3-2.1.25c-.19-.47-.27-.84-.23-1.12s.23-.69.57-1.24l2.28-3.62-.17-.8,1.75-.24Zm1.88-1.91l.83.52-1.78.84-.26-.16,1.21-1.19Z"/>
        <path class="cls-1" d="m140.39,22.37l.05.3c-.39.02-.67.06-.84.12-.17.06-.32.14-.44.24-.12.1-.32.34-.62.72l-1.96,2.51c-.26.33-.4.58-.42.74-.02.16,0,.26.06.31.08.06.29.09.62.08v.3l-2.14.04c-.12-.47-.16-.81-.13-1.03.05-.33.17-.62.37-.87l2.84-3.64-.2-1-1.66.15-2.55,3.27.07.84h-1.69s-.44-1.66-.44-1.66l.82-.14,2.34-3c.27-.35.42-.6.45-.74.04-.19-.01-.49-.14-.9l-1.58.06-2.62,3.37.08.85h-1.7s-.45-1.67-.45-1.67l.85-.12,2.52-3.24c.26-.33.41-.61.44-.82.02-.16,0-.27-.05-.31-.06-.05-.26-.08-.58-.08v-.3s2.08-.08,2.08-.08c.12.41.19.71.19.91,0,.2-.03.39-.1.57-.06.12-.21.34-.45.65l2.97-.09c.15.62.21,1.08.17,1.38-.04.3-.17.62-.4.95l2.91-.25.27,1.7,1.05-.1Z"/>
        <path class="cls-1" d="m144.41,25.72l-.22,3.32-4.14-.69-.98,1,.78,1.75,1.44.26-.04.28-2.99-.5c-.17-.55-.33-.98-.48-1.29-.15-.31-.4-.73-.74-1.24l.13-.14c.2.05.37.04.51-.03.15-.07.4-.28.75-.64l3.07-3.13c.46.21.86.38,1.19.5.24.08.81.27,1.72.55Zm-1.45-.19l-.11-.04-2.44,2.49,2.43.4.12-2.85Z"/>
        <path class="cls-1" d="m149.9,31.75l-.2,1.54,1.03.1-.02.3c-.48-.06-.82-.07-.99-.02-.24.07-.51.23-.81.48l-2.79,2.37c-.26.22-.42.42-.47.61-.04.12-.03.21.02.27.05.05.23.12.56.19l-.06.3-2.09-.38c-.03-.53,0-.92.12-1.17.11-.25.38-.55.79-.91l3.2-2.72.11-.98-1.65-.32-3.24,2.75-.05.79-1.71-.32-.04-1.75.79.08,2.98-2.53c.42-.36.67-.65.75-.86.05-.15.04-.25-.02-.33-.07-.08-.24-.13-.53-.16l.06-.3,2.08.37c.04.56.02.95-.06,1.16-.08.21-.25.43-.51.66l-.21.18,2.96.57Z"/>
        <path class="cls-1" d="m151.35,34.94l3.39.2.13.18-1.76,1.17.9,1.25-.7.5-.9-1.25-4.2,3.02v1.07s.58.17.58.17l-.08.29-2.08-.58c.14-.81.09-1.57-.17-2.28l.12-.09c.23.09.43.11.59.08.2-.04.45-.17.74-.37l3.57-2.57-.42-.59.27-.2Z"/>
        <path class="cls-1" d="m156.92,43.86l-4.89,3c-.67-.49-1.18-.83-1.52-1.02-.26-.14-.55-.26-.87-.35,0-.87-.06-1.56-.17-2.06-.08-.38-.23-.78-.46-1.19l.09-.15c.24.08.43.11.57.08.19-.03.46-.15.81-.37l3.59-2.2c.76.64,1.55,1.09,2.38,1.36-.03.87.12,1.84.46,2.9Zm-6.12-.43l.35,2.13,4.15-2.54c-.08-.69-.14-1.17-.2-1.44-.04-.19-.11-.41-.2-.66l-4.09,2.51Z"/>
        <path class="cls-1" d="m161.42,55.08l2.56,1.44c-.14.57-.31.97-.51,1.2-.26.32-.61.56-1.05.74l-4.32,1.7c-.35-.44-.69-.79-1.02-1.06-.32-.27-.71-.52-1.16-.75.19-1,.18-1.78-.03-2.31-.2-.5-.65-.91-1.36-1.21.2-.62.31-1.19.31-1.69,0-.5-.08-1.01-.25-1.53l.17-.07c.17.18.35.28.54.31.2.03.52-.05.98-.23l2.7-1.07c.42-.17.68-.28.76-.34.08-.06.17-.19.27-.37.16-.3.31-.52.45-.65s.32-.25.54-.34c.4-.16.8-.17,1.2-.04.4.13.88.44,1.42.95l-.13.2c-.56-.37-1.01-.49-1.35-.36-.12.05-.22.12-.3.22-.04.05-.18.3-.4.76-.15.31-.34.57-.59.8-.14.13-.37.28-.68.42l2.5,1.42c-.1.48-.25.86-.45,1.15-.2.29-.47.53-.8.71Zm-1.59-3.15l-3.66,1.44-.04,2.09,3.89-1.53c.41-.16.68-.32.81-.47.13-.15.24-.42.31-.8l-1.31-.74Zm1.23,3.29l-3.57,1.41-.05,2.11,3.97-1.56c.35-.14.58-.27.68-.39.1-.12.22-.4.34-.82l-1.38-.74Z"/>
        <path class="cls-1" d="m165.87,62.53l-1.82,2.78-3.27-2.63-1.34.39-.19,1.91,1.12.93-.17.23-2.35-1.9c.12-.56.19-1.02.21-1.36.02-.35,0-.83-.04-1.45l.19-.05c.15.14.3.21.46.23.16.01.48-.05.96-.19l4.22-1.22c.3.41.56.75.79,1.02.17.19.58.63,1.23,1.33Zm-1.17-.88l-.08-.09-3.35.96,1.92,1.55,1.51-2.43Z"/>
        <path class="cls-1" d="m170.11,68.22l-.19.09c-.31-.34-.58-.55-.83-.63-.25-.08-.62-.07-1.13.03l-2.64.52,2.32,2.02c-.22.51-.46.86-.72,1.08-.26.21-.65.37-1.16.47l-4.54.9c-.36-.57-.7-1.03-1.02-1.38-.25-.27-.53-.52-.84-.75.27-.5.45-.98.56-1.44.11-.46.17-1.13.19-2l.14-.03c.19.19.39.29.61.3.31.03,1.01-.07,2.08-.28l4.36-.86c.57-.11.96-.25,1.2-.42.23-.17.42-.43.58-.8l.21.1c-.09.42-.16.7-.22.86-.06.16-.15.32-.26.48.47.44.78.76.92.96.14.2.27.45.38.77Zm-8.89.83l-.38,2.12,4.23-.84c.39-.08.65-.17.79-.27.13-.1.27-.31.4-.62l-1.29-1.13-3.74.74Z"/>
        <path class="cls-1" d="m164.74,75.56l.29,2.64-.98.11-.3-2.65.98-.11Z"/>
      </g>
      <g>
        <path class="cls-1" d="m168.92,85.88l-1.15,2.37.7,1.44-1.72-.02.29-1.38-3.48-.05c-.56,0-.94.02-1.14.08-.26.08-.57.26-.91.53-.57.44-.98.65-1.23.65-.25,0-.48-.12-.7-.36-.22-.24-.56-.86-1.02-1.88.13-.34.22-.67.29-.98.06-.31.1-.61.1-.89,0-.67-.1-1.46-.33-2.35l.26-.1,2.09,1.84,1.33-1.8,5.55.08c.2,1.02.56,1.95,1.08,2.8Zm-8.94-1.55c.1.67.15,1.2.14,1.61,0,.37-.06.74-.16,1.11-.1.38-.26.75-.46,1.13l.2.32c.65-.68,1.18-1.14,1.58-1.38.4-.24.84-.39,1.31-.45l-2.6-2.34Zm7.09,2.4l.75-2.08-5.03-.07-.84,1.12,1.13.98,3.98.05Z"/>
        <path class="cls-1" d="m167.82,96.45l-.14.26c-.4-.32-.7-.53-.92-.63-.22-.1-.52-.17-.91-.21l-3.25-.36c-.54-.06-.88-.06-1.02,0-.14.06-.22.15-.23.25,0,.06,0,.12.02.18.02.04.09.16.22.35l-.26.16-1.22-1.77c.35-.36.65-.59.91-.7s.6-.14,1.03-.11l-1.57-2.52c.81-.79,1.56-1.15,2.25-1.07.46.05.89.19,1.27.43.51.31,1.08.81,1.73,1.5l2.06-.7.19.13c-.04.2-.06.34-.07.44-.07.6.11,1.15.53,1.66-.26.35-.47.73-.65,1.16-.18.42-.28.75-.31.99-.01.11,0,.19.03.25s.13.17.3.32Zm-3.51-2.32l1.07-1.75c-.59-.35-1.12-.56-1.59-.61-.82-.09-1.54.21-2.16.9l.8,1.25,1.88.21Zm2.27.25l1.09-2.52-2.07.71-.97,1.59,1.95.21Z"/>
        <path class="cls-1" d="m170,102.07h-.21c-.15-.42-.33-.72-.52-.89-.2-.17-.55-.3-1.05-.41l-2.64-.54,1.37,2.76c-.4.38-.76.62-1.08.72s-.74.09-1.25-.01l-4.53-.92c-.12-.66-.25-1.22-.4-1.67-.12-.35-.28-.69-.48-1.02.44-.36.79-.73,1.07-1.11.28-.38.59-.98.95-1.77l.13.03c.11.25.25.42.44.51.28.15.96.33,2.03.55l4.35.88c.57.12.99.14,1.27.08.28-.06.56-.24.84-.51l.16.17c-.24.35-.42.58-.54.71s-.26.24-.42.34c.27.59.43,1.01.48,1.24.05.24.07.52.05.86Zm-8.52-2.66l-1.17,1.81,4.23.86c.39.08.67.1.83.06.16-.04.36-.18.61-.42l-.76-1.54-3.74-.76Z"/>
        <path class="cls-1" d="m165.09,109.92l-1.66.72-.66-1.41,1.45-.59-.45-.92-4.28-1.25-.85.66.38.93-.29.1-.96-2.33c.47-.3.83-.56,1.07-.79.24-.23.45-.49.63-.78l.16.05c.09.26.2.45.34.56.13.11.42.23.86.36l3,.88c.38.11.64.14.79.09.15-.05.24-.12.27-.22.03-.11-.02-.29-.16-.54l.27-.12.88,1.92c-.44.33-.8.53-1.08.61-.18.05-.39.04-.65-.03l.96,2.08Z"/>
        <path class="cls-1" d="m163.85,113.51l-1.53.89-.34-.77-3.92-1.44c-.41-.15-.69-.22-.84-.19-.15.02-.24.07-.27.15-.02.05-.02.1-.02.16.01.07.06.23.15.48l-.29.09-.68-2c.42-.29.76-.44,1.05-.46s.73.08,1.33.3l4.02,1.48.75-.34.59,1.66Zm2.26,1.45l-.34.91-1.19-1.56.11-.29,1.42.94Z"/>
        <path class="cls-1" d="m161.34,119.66l-3.19.95-.8-4.12-1.28-.57-1.37,1.34.26,1.43-.28.06-.57-2.97c.45-.35.8-.66,1.04-.91.24-.25.54-.63.91-1.13l.17.08c.02.2.09.36.21.47.11.11.4.27.86.48l4.01,1.79c-.04.51-.06.94-.05,1.29,0,.25.03.86.08,1.81Zm-.33-1.42v-.12s-3.19-1.42-3.19-1.42l.47,2.42,2.72-.88Z"/>
        <path class="cls-1" d="m160.88,126.84l-.18-.09c0-.46-.09-.83-.28-1.12-.19-.29-.56-.58-1.11-.87l-6.02-3.19-.99.47.09.43-.33.04-.31-1.9c.58-.22.97-.4,1.2-.54s.47-.35.75-.64l.15.08c0,.17.05.32.13.45.08.13.19.25.34.37.05.04.32.19.8.45l4.84,2.56c.41.22.71.35.88.41.18.05.36.07.56.05s.45-.09.75-.22l.08.18c-.34.35-.77.59-1.31.73.18.53.26.96.25,1.3-.01.34-.11.7-.28,1.06Z"/>
        <path class="cls-1" d="m154.9,129.73l.99,3.25-.12.18-1.71-1.25-.86,1.28-.71-.48.86-1.28-4.28-2.89-1.01.35.04.62-.3.03-.17-2.16c.81-.15,1.5-.46,2.08-.95l.13.09c0,.25.04.44.13.58.11.18.31.37.61.57l3.65,2.46.4-.6.28.19Z"/>
        <path class="cls-1" d="m153.11,138.49l-.19-.05c.04-.43,0-.78-.13-1.05-.12-.27-.42-.58-.87-.94l-1.96-1.55v3.03c-.56.19-1.01.26-1.34.19-.33-.07-.79-.33-1.36-.78l-2.73-2.15c-.52-.41-.86-.77-1.02-1.07-.26-.48-.38-1.09-.36-1.83.02-.97.24-2.06.65-3.27l.3.1c-.29,1.02-.42,1.78-.4,2.29.02.51.15.92.37,1.25.17.24.71.73,1.64,1.46l2.52,1.99c.28.22.5.35.65.38.21.03.48,0,.81-.12l-.02-1.69-3.35-2.64-.77.09-.03-1.74,1.71-.39.1.85,5.48,4.31c.5.39.87.62,1.13.67.25.06.56.02.91-.13l.1.19c-.23.16-.43.28-.6.35-.17.07-.44.14-.79.2.04.43.02.8-.04,1.11s-.2.63-.39.96Z"/>
        <path class="cls-1" d="m145.8,142.63l-3.32-.14.59-4.15-1.02-.95-1.73.82-.22,1.44-.28-.03.43-3c.54-.18.97-.36,1.28-.52.31-.16.72-.42,1.22-.77l.14.13c-.04.2-.03.37.04.51.07.15.29.39.65.73l3.2,3c-.2.47-.36.87-.47,1.2-.08.24-.25.82-.51,1.74Zm.15-1.45l.03-.12-2.54-2.38-.35,2.44,2.86.05Z"/>
        <path class="cls-1" d="m138.58,147.94l-3.84-4.26c.36-.75.6-1.31.73-1.68.09-.29.16-.59.19-.91.85-.16,1.52-.34,2-.54.36-.15.72-.37,1.08-.67l.16.06c-.04.25-.03.44.02.58.06.18.23.42.51.73l2.82,3.13c-.49.86-.79,1.72-.9,2.59-.86.13-1.78.46-2.76.98Zm-.69-6.09l-2.04.73,3.26,3.62c.66-.2,1.12-.36,1.38-.46.18-.07.38-.18.61-.32l-3.21-3.57Z"/>
        <path class="cls-1" d="m137.42,148.86l-.58,1.91c-.5.02-.88-.03-1.14-.14-.26-.12-.51-.34-.77-.69l-.51,2.64c-.83.01-1.44-.05-1.83-.19-.25-.09-.51-.32-.77-.68l-2.57-3.44c.35-.64.63-1.53.83-2.65.36-.03.84-.1,1.44-.23l-.33-.44c-.38-.51-.71-.84-.98-.98-.27-.14-.6-.2-.99-.17l-.04-.23c.57-.18,1.02-.28,1.36-.3.24-.01.49.03.75.12.1-.48.24-.87.43-1.16l.18.06c-.05.3-.04.57.02.8.06.23.21.51.45.82l.67.9c.26-.13.52-.28.76-.47.02-.02.05-.04.09-.08l.39.52c-.24.29-.48.54-.71.75l2.29,3.06c.25.33.46.53.65.58.19.06.33.05.42-.02.07-.06.13-.18.18-.38l.31.1Zm-2.73.77l-2.38-3.17c-.55.26-.93.43-1.15.51-.21.08-.47.15-.79.22l2.58,3.44c.14.19.23.29.27.32.04.02.15.04.32.05.39.03.69.04.88.03l.25-1.4Z"/>
        <path class="cls-1" d="m130.65,158.48l-.16-.12c.19-.39.27-.74.25-1.03-.03-.3-.19-.69-.49-1.18l-1.31-2.13-1.03,2.85c-.6-.01-1.05-.11-1.34-.29-.29-.18-.63-.58-1.01-1.2l-1.82-2.96c-.35-.57-.54-1.02-.59-1.35-.08-.54.02-1.16.3-1.84.36-.9.93-1.85,1.73-2.84l.24.19c-.62.86-1,1.53-1.16,2.01-.15.48-.18.92-.08,1.29.07.28.42.93,1.04,1.94l1.69,2.74c.19.3.35.5.48.58.19.1.46.16.8.17l.56-1.59-2.24-3.63-.75-.18.57-1.64,1.74.22-.2.83,3.66,5.94c.33.54.61.88.83,1.02.22.14.52.21.9.19l.03.21c-.27.08-.5.12-.69.12-.19,0-.46-.02-.81-.08-.11.42-.25.76-.42,1.03-.17.27-.4.52-.7.76Z"/>
        <path class="cls-1" d="m124.09,158.97l-1.73-.38.27-.8-1.92-3.7c-.2-.39-.37-.63-.49-.71-.13-.08-.22-.11-.29-.07-.05.03-.09.06-.12.1-.04.06-.11.21-.21.46l-.28-.12.84-1.94c.5.07.86.19,1.08.37.22.17.48.55.78,1.12l1.97,3.8.78.26-.68,1.63Zm.69,2.59l-.86.45.18-1.96.27-.14.42,1.65Z"/>
        <path class="cls-1" d="m119.33,164.36l-.08-.18c.28-.36.44-.71.46-1.05.03-.35-.09-.8-.34-1.37l-2.8-6.21-1.06-.24-.19.39-.29-.17.92-1.69c.59.18,1.02.28,1.28.31s.59.01.98-.04l.07.15c-.1.14-.15.28-.17.44-.02.15,0,.32.04.5.02.06.13.34.36.85l2.25,4.99c.19.42.34.71.45.86.11.15.24.28.41.39.17.11.41.2.72.28l-.05.19c-.48.07-.97,0-1.48-.23-.18.52-.38.92-.61,1.18-.22.26-.51.48-.87.66Z"/>
        <path class="cls-1" d="m111.2,163.26l-1.97-5.38c.61-.56,1.05-.99,1.3-1.29.19-.23.37-.49.52-.78.85.17,1.54.25,2.05.25.39,0,.81-.07,1.25-.21l.12.12c-.13.22-.19.4-.19.54,0,.19.06.48.2.87l1.45,3.95c-.77.62-1.37,1.3-1.8,2.07-.85-.2-1.82-.24-2.93-.12Zm1.63-5.91l-2.16-.08,1.67,4.57c.69.06,1.18.09,1.45.09.2,0,.42-.02.69-.07l-1.65-4.51Z"/>
        <path class="cls-1" d="m106.8,161.94l-2.57.7-.26-.96,2.57-.7.26.96Z"/>
        <path class="cls-1" d="m103.91,169.17l-5.78-2.58c-.05.2-.11.36-.19.47-.08.11-.21.23-.4.35l-.06-.31c.08-.16.12-.29.13-.41.01-.12-.02-.35-.08-.69l-.94-5.08c.59-.36,1.03-.66,1.31-.89.28-.24.57-.54.88-.91.67.28,1.24.46,1.73.55.49.09,1.01.12,1.55.09l.03.14c-.15.19-.24.37-.26.54-.02.17.01.5.1,1l.73,3.95c-.65.32-1.1.62-1.34.92l2.26,1,.34,1.84Zm-4.91-3.86l1.75.78c.12-.14.24-.26.37-.37l-.86-4.66-2.15-.52.88,4.78Z"/>
        <path class="cls-1" d="m92.58,168.22l-2.4-2.3,3.19-2.73-.13-1.39-1.84-.53-1.12.93-.19-.21,2.3-1.96c.53.22.96.37,1.3.46.34.08.81.16,1.43.23l.02.19c-.16.12-.27.26-.31.41-.04.16-.04.48,0,.98l.42,4.37c-.46.22-.84.42-1.14.59-.22.13-.73.45-1.53.96Zm1.08-.99l.1-.06-.34-3.46-1.87,1.6,2.11,1.92Z"/>
        <path class="cls-1" d="m85.23,165.7l-1.79-.91-.04-3.23c.43-.04.82-.15,1.16-.33.35-.17.74-.46,1.17-.87.38.22.71.37.99.46.28.08.58.12.89.12.48,0,.91-.16,1.28-.45.14-.11.24-.16.3-.17.06,0,.11.03.17.08.06.05.09.11.09.17,0,.06-.05.14-.16.25-.06.06-.16.18-.31.36l-.69.87-.97,1.32,1.69.88.03,2.86c-.53.17-.94.36-1.24.56-.3.21-.58.49-.85.84-.66-.27-1.19-.46-1.59-.57-.29-.07-.56-.11-.82-.11-.29,0-.51.07-.67.2-.16.13-.24.26-.23.4,0,.09.05.18.16.27.2.18.3.35.3.52,0,.16-.04.29-.13.38-.09.09-.18.14-.29.14-.14,0-.27-.06-.39-.19-.12-.13-.18-.3-.18-.52,0-.22.04-.44.13-.65.09-.21.26-.48.52-.82l1.46-1.89Zm2.24-.56l-1.06-.53-1.65,2.24c.34-.1.64-.15.89-.16.63,0,1.24.2,1.84.61l-.02-2.16Zm-1.33-.68l1.82-2.5c-.22.08-.43.14-.63.17-.19.04-.37.06-.53.06-.59,0-1.2-.18-1.84-.56l.02,2.22,1.15.6Z"/>
        <path class="cls-1" d="m78.35,168.25l-1.97-2.68,3.61-2.15.1-1.39-1.72-.84-1.26.73-.15-.24,2.6-1.54c.49.31.89.53,1.21.67.32.14.77.3,1.37.47v.19c-.2.09-.32.21-.39.35-.07.15-.12.47-.16.97l-.33,4.37c-.49.14-.9.27-1.23.38-.24.09-.79.32-1.67.69Zm1.23-.79l.11-.05.26-3.47-2.12,1.26,1.75,2.26Z"/>
        <path class="cls-1" d="m70.27,167.18l-.84-1.31-.86.59-.18-.24c.41-.26.67-.47.77-.63.14-.21.24-.5.31-.89l.6-3.61c.06-.33.04-.59-.04-.77-.05-.12-.11-.18-.19-.2-.07-.01-.25.06-.55.21l-.15-.27,1.84-1.06c.37.39.59.71.67.97.08.26.07.66-.02,1.21l-.69,4.14.55.82,1.46-.82.7-4.2-.48-.64,1.52-.86,1.16,1.31-.66.45-.64,3.86c-.09.55-.1.93-.02,1.14.05.14.13.22.23.24.1.02.27-.06.5-.22l.15.27-1.83,1.06c-.39-.41-.62-.71-.7-.93-.08-.21-.09-.49-.03-.83l.05-.27-2.63,1.47Z"/>
        <path class="cls-1" d="m65.11,164.13l-2.75,1.2c-.4-.53-.63-.96-.71-1.29-.08-.33-.05-.72.07-1.18l1.19-4.44c.45,0,.89-.03,1.3-.12.42-.09.92-.27,1.5-.52.43.57.84,1,1.25,1.3.41.29.89.52,1.45.69l-.05.19c-.22.06-.38.16-.49.29-.11.13-.22.41-.33.83l-.89,3.31c-.05.17-.07.31-.06.42,0,.11.06.29.17.54s.16.47.18.65c.02.19,0,.38-.06.6-.11.39-.31.71-.63.95-.32.24-.85.45-1.59.63l-.1-.24c.61-.23.96-.52,1.05-.85.03-.12.04-.24.01-.34-.03-.13-.13-.36-.3-.68-.17-.32-.27-.63-.32-.94-.03-.24,0-.56.1-.97Zm.11-.4l.96-3.59-1.72-1.41-1.11,4.14c-.1.36-.12.64-.08.84.04.2.19.43.43.69l1.51-.67Z"/>
        <path class="cls-1" d="m54.53,161.5l1.97-5.39c.83-.03,1.44-.08,1.83-.15.3-.05.6-.14.9-.26.54.68,1.01,1.18,1.41,1.51.3.25.67.47,1.1.65l.02.17c-.24.09-.4.18-.5.29-.13.14-.26.4-.4.79l-1.45,3.95c-.99-.03-1.89.11-2.71.41-.52-.7-1.24-1.36-2.16-1.98Zm5.06-3.46l-1.6-1.46-1.67,4.57c.49.49.84.83,1.05,1,.15.13.34.26.57.39l1.65-4.51Z"/>
        <path class="cls-1" d="m48.22,163.01l.08-.18c.45-.03.82-.14,1.1-.35.28-.21.54-.59.8-1.16l2.8-6.21-.53-.95-.42.11-.06-.33,1.88-.43c.26.56.46.95.62,1.16.16.22.38.45.68.7l-.07.15c-.17.02-.31.07-.44.16-.13.09-.24.21-.34.36-.03.05-.17.33-.4.83l-2.25,4.99c-.19.42-.31.73-.35.91-.04.18-.05.37-.02.56.03.2.12.44.27.73l-.17.09c-.37-.31-.64-.73-.81-1.26-.51.21-.94.32-1.29.33-.34,0-.7-.06-1.07-.22Z"/>
        <path class="cls-1" d="m47.13,157.21l-2.96.53c-.26-.61-.39-1.08-.39-1.42,0-.34.12-.71.34-1.13l2.19-4.05c.44.12.87.18,1.3.19.43,0,.95-.04,1.58-.16.28.65.59,1.17.91,1.55.33.38.75.72,1.25,1.01l-.09.17c-.23.01-.41.07-.54.17-.13.1-.31.35-.51.73l-1.63,3.01c-.08.16-.14.29-.15.4-.02.11,0,.29.03.56.04.27.05.49.02.68-.03.18-.09.37-.2.56-.19.36-.47.61-.83.77-.36.16-.93.24-1.7.25l-.04-.26c.65-.09,1.05-.28,1.22-.59.06-.11.09-.22.09-.33,0-.14-.04-.38-.13-.73-.09-.35-.12-.68-.09-.99.03-.23.14-.54.32-.92Zm.2-.36l1.77-3.27-1.35-1.77-2.04,3.77c-.18.33-.27.59-.27.8,0,.2.08.46.26.77l1.63-.3Z"/>
        <path class="cls-1" d="m38.41,157.31l-.82-.52,1.78-.83.26.17-1.22,1.18Zm1.9-1.9l-.54-1.69.83-.17,2.25-3.51c.24-.37.36-.63.37-.78,0-.15-.02-.25-.08-.29-.05-.03-.1-.05-.15-.05-.07,0-.24,0-.5.04l-.03-.3,2.1-.24c.19.47.26.84.22,1.12-.04.28-.23.69-.58,1.24l-2.31,3.6.17.8-1.75.22Z"/>
        <path class="cls-1" d="m29.65,146.95l-.04-.3c.39-.02.67-.05.84-.11.17-.06.32-.14.44-.24s.33-.34.62-.71l1.98-2.5c.26-.33.4-.57.42-.73.02-.16,0-.26-.06-.31-.08-.06-.28-.09-.61-.08v-.3l2.14-.03c.11.47.15.81.12,1.04-.05.33-.17.62-.37.87l-2.87,3.62.19,1,1.66-.14,2.58-3.25-.07-.84,1.69.02.43,1.65-.82.14-2.37,2.98c-.28.35-.43.59-.46.73-.04.19,0,.49.14.9l1.58-.04,2.65-3.35-.08-.85,1.7.03.44,1.66-.85.11-2.55,3.21c-.26.33-.41.61-.45.82-.02.16,0,.27.04.31.07.05.26.08.58.08v.3l-2.08.07c-.12-.41-.18-.71-.18-.91,0-.2.03-.39.11-.56.06-.12.21-.34.46-.65l-2.98.07c-.15-.62-.2-1.09-.16-1.39.04-.3.18-.62.41-.95l-2.91.22-.25-1.7-1.05.09Z"/>
        <path class="cls-1" d="m25.65,143.57l.25-3.31,4.13.72.98-.99-.76-1.76-1.43-.27.04-.28,2.98.52c.17.55.33.98.47,1.3s.39.73.73,1.25l-.14.14c-.2-.05-.37-.04-.51.02-.15.07-.4.28-.75.63l-3.1,3.11c-.46-.22-.86-.38-1.18-.51-.24-.09-.81-.28-1.72-.57Zm1.45.2l.11.04,2.46-2.47-2.43-.42-.14,2.85Z"/>
        <path class="cls-1" d="m20.22,137.49l.21-1.54-1.03-.11.02-.3c.48.07.81.08.99.03.24-.06.51-.22.82-.48l2.81-2.34c.26-.22.42-.42.48-.61.04-.12.03-.21-.02-.27-.05-.05-.23-.12-.56-.2l.06-.3,2.09.4c.03.53-.01.92-.12,1.17-.11.25-.38.55-.8.9l-3.22,2.69-.12.98,1.64.33,3.27-2.73.05-.79,1.71.33.03,1.75-.79-.09-3,2.51c-.43.36-.68.64-.75.85-.05.14-.05.25.01.33.07.08.24.13.53.16l-.06.3-2.08-.38c-.03-.56,0-.95.07-1.16.08-.21.25-.43.52-.65l.21-.18-2.95-.6Z"/>
        <path class="cls-1" d="m18.79,134.3l-3.39-.22-.13-.18,1.77-1.16-.89-1.26.7-.5.89,1.26,4.22-2.98.02-1.07-.6-.18.08-.29,2.08.6c-.15.81-.1,1.57.15,2.28l-.12.09c-.23-.09-.43-.11-.59-.08-.2.04-.45.16-.75.37l-3.59,2.54.42.59-.27.2Z"/>
        <path class="cls-1" d="m13.3,125.33l4.92-2.96c.66.5,1.17.84,1.52,1.03.26.15.55.27.86.36,0,.87.05,1.56.15,2.06.08.38.23.78.45,1.19l-.09.15c-.24-.08-.43-.11-.57-.09-.19.03-.46.15-.81.36l-3.61,2.17c-.75-.64-1.54-1.1-2.37-1.38.04-.87-.11-1.84-.44-2.9Zm6.12.48l-.33-2.14-4.17,2.51c.07.69.13,1.17.19,1.44.04.19.1.41.2.66l4.11-2.48Z"/>
        <path class="cls-1" d="m8.88,114.08l-2.54-1.46c.15-.57.32-.97.52-1.2.26-.31.62-.56,1.06-.73l4.34-1.67c.35.44.69.8,1.01,1.07.32.27.71.52,1.16.76-.2,1-.2,1.77,0,2.31.19.51.64.91,1.35,1.22-.21.62-.32,1.19-.33,1.68s.07,1.01.24,1.53l-.17.07c-.17-.18-.35-.29-.54-.31-.19-.03-.52.05-.98.23l-2.71,1.04c-.43.16-.68.28-.76.34-.08.06-.17.19-.27.37-.16.3-.31.51-.45.65-.14.14-.32.25-.54.33-.4.15-.8.16-1.2.03-.4-.13-.87-.45-1.42-.96l.14-.2c.56.38,1,.5,1.34.37.12-.05.22-.12.3-.21.04-.05.18-.3.41-.76.15-.31.35-.57.59-.79.15-.13.37-.27.69-.42l-2.48-1.44c.11-.48.26-.86.46-1.15.2-.29.47-.52.8-.71Zm.37-.14l3.58-1.38.07-2.11-3.98,1.53c-.35.14-.58.26-.69.38-.11.12-.22.39-.35.82l1.37.75Zm1.2,3.3l3.68-1.41.06-2.09-3.9,1.5c-.41.16-.68.31-.82.46-.13.15-.24.42-.32.8l1.3.75Z"/>
        <path class="cls-1" d="m4.5,106.59l1.85-2.76,3.24,2.66,1.34-.38.2-1.9-1.11-.94.18-.22,2.34,1.92c-.12.56-.2,1.01-.22,1.36-.02.35-.02.83.02,1.45l-.18.05c-.15-.14-.3-.22-.46-.23-.16-.02-.48.04-.96.18l-4.22,1.18c-.3-.42-.56-.76-.78-1.02-.17-.19-.57-.64-1.22-1.34Zm1.16.88l.08.09,3.35-.94-1.91-1.56-1.53,2.41Z"/>
        <path class="cls-1" d="m.3,100.86l.19-.09c.3.34.58.55.83.63s.62.07,1.13-.02l2.65-.5-2.31-2.04c.22-.5.46-.86.73-1.07s.65-.37,1.17-.46l4.54-.86c.36.57.69,1.03,1.01,1.39.25.27.52.53.83.76-.27.49-.46.97-.57,1.43s-.18,1.13-.21,2l-.14.02c-.19-.19-.39-.29-.6-.31-.31-.03-1.01.06-2.08.26l-4.37.83c-.57.11-.97.24-1.2.41-.23.16-.43.43-.59.79l-.21-.1c.09-.41.17-.7.23-.86.06-.16.15-.32.27-.47-.47-.45-.77-.77-.91-.97-.14-.2-.26-.46-.37-.77Zm8.89-.76l.4-2.12-4.24.81c-.39.07-.65.16-.79.26-.13.1-.27.3-.4.61l1.28,1.14,3.75-.71Z"/>
        <path class="cls-1" d="m5.73,93.57l-.27-2.65.98-.1.27,2.65-.99.1Z"/>
      </g>
    </g>
  </g>
</svg>